<?xml version="1.0" encoding="UTF-8" standalone="no"?>
<!-- Created with Inkscape (http://www.inkscape.org/) -->

<svg
   xmlns:dc="http://purl.org/dc/elements/1.1/"
   xmlns:cc="http://creativecommons.org/ns#"
   xmlns:rdf="http://www.w3.org/1999/02/22-rdf-syntax-ns#"
   xmlns:svg="http://www.w3.org/2000/svg"
   xmlns="http://www.w3.org/2000/svg"
   xmlns:sodipodi="http://sodipodi.sourceforge.net/DTD/sodipodi-0.dtd"
   xmlns:inkscape="http://www.inkscape.org/namespaces/inkscape"
   width="135.46666mm"
   height="53.955746mm"
   viewBox="0 0 135.46666 53.955746"
   version="1.1"
   id="svg4112"
   inkscape:version="0.92.1 r15371"
   sodipodi:docname="engineering.svg">
  <defs
     id="defs4106">
    <clipPath
       clipPathUnits="userSpaceOnUse"
       id="clipPath2732">
      <path
         d="m 288,650.462 h 182.362 v 72.634 H 288 Z"
         id="path2730"
         inkscape:connector-curvature="0" />
    </clipPath>
  </defs>
  <sodipodi:namedview
     id="base"
     pagecolor="#ffffff"
     bordercolor="#666666"
     borderopacity="1.0"
     inkscape:pageopacity="0.0"
     inkscape:pageshadow="2"
     inkscape:zoom="0.35"
     inkscape:cx="-119.71429"
     inkscape:cy="-32.322106"
     inkscape:document-units="mm"
     inkscape:current-layer="layer1"
     showgrid="false"
     fit-margin-top="0"
     fit-margin-left="0"
     fit-margin-right="0"
     fit-margin-bottom="0"
     inkscape:window-width="1600"
     inkscape:window-height="838"
     inkscape:window-x="-8"
     inkscape:window-y="-8"
     inkscape:window-maximized="1" />
  <metadata
     id="metadata4109">
    <rdf:RDF>
      <cc:Work
         rdf:about="">
        <dc:format>image/svg+xml</dc:format>
        <dc:type
           rdf:resource="http://purl.org/dc/dcmitype/StillImage" />
        <dc:title></dc:title>
      </cc:Work>
    </rdf:RDF>
  </metadata>
  <g
     inkscape:label="Layer 1"
     inkscape:groupmode="layer"
     id="layer1"
     transform="translate(-8.6178594,-86.325698)">
    <g
       transform="matrix(0.74284726,0,0,-0.74284726,-205.3223,623.47558)"
       id="g2726">
      <g
         id="g2728"
         clip-path="url(#clipPath2732)">
        <g
           id="g2734"
           transform="translate(288.0978,709.443)">
          <path
             d="M 0,0 C -0.083,0.634 -0.042,1.552 -0.042,2.004 L 0.911,12.826 H 4.455 L 3.484,1.909 C 3.275,-0.454 4.202,-2.14 6.561,-2.14 c 2.412,0 3.687,1.714 3.897,3.809 l 1.005,11.157 h 3.542 L 14.026,1.81 C 13.631,-2.432 10.816,-5.61 6.267,-5.61 2.72,-5.61 0.434,-3.317 0,0"
             style="fill:#4682c4;fill-opacity:1;fill-rule:nonzero;stroke:none"
             id="path2736"
             inkscape:connector-curvature="0" />
        </g>
        <g
           id="g2738"
           transform="translate(304.5432,713.1085)">
          <path
             d="m 0,0 c 0.463,5.195 3.967,9.503 10.023,9.503 1.595,0 3.124,-0.362 4.653,-1.346 L 14.272,3.865 C 12.875,5.701 11.216,6 9.684,6 5.917,6 3.85,3.383 3.554,0.071 c -0.286,-3.226 1.38,-5.849 5.03,-5.849 1.593,0 3.283,0.461 5.052,2.227 L 13.244,-7.957 C 11.522,-8.892 9.918,-9.317 8.305,-9.317 2.314,-9.317 -0.431,-4.865 0,0"
             style="fill:#4682c4;fill-opacity:1;fill-rule:nonzero;stroke:none"
             id="path2740"
             inkscape:connector-curvature="0" />
        </g>
        <g
           id="g2742"
           transform="translate(322.0482,722.2695)">
          <path
             d="M 0,0 H 3.535 L 2.244,-14.698 h 5.064 c 0.357,0 1.564,0.018 1.892,0.038 -0.019,-0.178 -0.324,-3.396 -0.324,-3.396 H -1.603 Z"
             style="fill:#4682c4;fill-opacity:1;fill-rule:nonzero;stroke:none"
             id="path2744"
             inkscape:connector-curvature="0" />
        </g>
        <g
           id="g2746"
           transform="translate(341.3654,723.0968)">
          <path
             d="m 0,0 -0.244,-0.004 -9.676,-18.88 h 3.755 l 1.359,2.864 h 6.818 l 0.851,-2.864 H 6.61 Z m -0.906,-7.568 c 0.117,0.256 0.222,0.573 0.263,0.759 0,0.001 0.055,0.001 0.055,0.001 0.021,-0.227 0.062,-0.498 0.135,-0.763 0.194,-0.824 1.571,-5.395 1.571,-5.395 h -4.462 c 0,0 2.391,5.282 2.438,5.398"
             style="fill:#4682c4;fill-opacity:1;fill-rule:nonzero;stroke:none"
             id="path2748"
             inkscape:connector-curvature="0" />
        </g>
        <g
           id="g2750"
           transform="translate(288.4189,664.4022)">
          <path
             d="M 0,0 H 181.924"
             style="fill:none;stroke:#231f20;stroke-width:0.58200002;stroke-linecap:butt;stroke-linejoin:miter;stroke-miterlimit:10;stroke-dasharray:none;stroke-opacity:1"
             id="path2752"
             inkscape:connector-curvature="0" />
        </g>
        <g
           id="g2754"
           transform="translate(353.2021,704.2133)">
          <path
             d="M 0,0 V 10.376 H 5.226 V 9.423 H 1.183 V 5.826 H 5.026 V 4.873 H 1.183 V 0.984 H 5.226 V 0 Z"
             style="fill:#231f20;fill-opacity:1;fill-rule:nonzero;stroke:none"
             id="path2756"
             inkscape:connector-curvature="0" />
        </g>
        <g
           id="g2758"
           transform="translate(367.5279,704.2133)">
          <path
             d="M 0,0 -4.319,6.887 C -4.781,7.64 -5.165,8.332 -5.503,9.008 -5.457,7.824 -5.411,4.98 -5.411,3.182 V 0 h -1.153 v 10.376 h 1.568 L -0.753,3.643 C -0.307,2.921 0.123,2.152 0.523,1.43 0.461,2.813 0.415,5.642 0.415,7.532 v 2.844 H 1.568 V 0 Z"
             style="fill:#231f20;fill-opacity:1;fill-rule:nonzero;stroke:none"
             id="path2760"
             inkscape:connector-curvature="0" />
        </g>
        <g
           id="g2762"
           transform="translate(379.3627,713.1752)">
          <path
             d="m 0,0 c -0.877,0.354 -1.845,0.554 -2.767,0.554 -2.183,0 -4.15,-1.415 -4.15,-4.366 0,-2.737 1.629,-4.274 4.058,-4.274 0.753,0 1.398,0.108 2.014,0.308 v 4.043 H 0.338 V -8.516 C -0.707,-8.901 -1.952,-9.1 -3.044,-9.1 c -3.074,0 -5.118,1.906 -5.118,5.134 0,3.151 2.075,5.519 5.518,5.519 0.969,0 1.891,-0.154 2.828,-0.446 z"
             style="fill:#231f20;fill-opacity:1;fill-rule:nonzero;stroke:none"
             id="path2764"
             inkscape:connector-curvature="0" />
        </g>
        <path
           d="m 382.42,714.589 h 1.184 v -10.376 h -1.184 z"
           style="fill:#231f20;fill-opacity:1;fill-rule:nonzero;stroke:none"
           id="path2766"
           inkscape:connector-curvature="0" />
        <g
           id="g2768"
           transform="translate(393.2688,704.2133)">
          <path
             d="M 0,0 -4.32,6.887 C -4.781,7.64 -5.165,8.332 -5.504,9.008 -5.457,7.824 -5.412,4.98 -5.412,3.182 V 0 h -1.152 v 10.376 h 1.568 L -0.754,3.643 C -0.308,2.921 0.122,2.152 0.523,1.43 0.461,2.813 0.415,5.642 0.415,7.532 v 2.844 H 1.568 V 0 Z"
             style="fill:#231f20;fill-opacity:1;fill-rule:nonzero;stroke:none"
             id="path2770"
             inkscape:connector-curvature="0" />
        </g>
        <g
           id="g2772"
           transform="translate(397.9366,704.2133)">
          <path
             d="M 0,0 V 10.376 H 5.226 V 9.423 H 1.183 V 5.826 H 5.026 V 4.873 H 1.183 V 0.984 H 5.226 V 0 Z"
             style="fill:#231f20;fill-opacity:1;fill-rule:nonzero;stroke:none"
             id="path2774"
             inkscape:connector-curvature="0" />
        </g>
        <g
           id="g2776"
           transform="translate(405.6985,704.2133)">
          <path
             d="M 0,0 V 10.376 H 5.226 V 9.423 H 1.183 V 5.826 H 5.026 V 4.873 H 1.183 V 0.984 H 5.226 V 0 Z"
             style="fill:#231f20;fill-opacity:1;fill-rule:nonzero;stroke:none"
             id="path2778"
             inkscape:connector-curvature="0" />
        </g>
        <g
           id="g2780"
           transform="translate(415.6433,713.6978)">
          <path
             d="m 0,0 c -0.385,0 -0.692,-0.015 -1,-0.046 v -3.735 c 0.17,-0.016 0.477,-0.031 0.938,-0.031 1.599,0 2.521,0.815 2.521,1.967 C 2.459,-0.492 1.598,0 0,0 m 2.828,-9.484 -3.781,4.796 H -1 V -9.484 H -2.183 V 0.892 c 0.661,0.03 1.337,0.046 2.444,0.046 1.952,0 3.428,-0.677 3.428,-2.613 0,-1.845 -1.476,-2.86 -3.367,-2.937 0.293,-0.353 0.646,-0.753 0.907,-1.076 L 4.35,-9.484 Z"
             style="fill:#231f20;fill-opacity:1;fill-rule:nonzero;stroke:none"
             id="path2782"
             inkscape:connector-curvature="0" />
        </g>
        <path
           d="m 422.067,714.589 h 1.184 v -10.376 h -1.184 z"
           style="fill:#231f20;fill-opacity:1;fill-rule:nonzero;stroke:none"
           id="path2784"
           inkscape:connector-curvature="0" />
        <g
           id="g2786"
           transform="translate(432.9149,704.2133)">
          <path
             d="M 0,0 -4.32,6.887 C -4.781,7.64 -5.165,8.332 -5.503,9.008 -5.457,7.824 -5.411,4.98 -5.411,3.182 V 0 h -1.153 v 10.376 h 1.568 L -0.754,3.643 C -0.307,2.921 0.122,2.152 0.523,1.43 0.461,2.813 0.415,5.642 0.415,7.532 v 2.844 H 1.568 V 0 Z"
             style="fill:#231f20;fill-opacity:1;fill-rule:nonzero;stroke:none"
             id="path2788"
             inkscape:connector-curvature="0" />
        </g>
        <g
           id="g2790"
           transform="translate(444.7498,713.1752)">
          <path
             d="m 0,0 c -0.877,0.354 -1.845,0.554 -2.768,0.554 -2.182,0 -4.15,-1.415 -4.15,-4.366 0,-2.737 1.63,-4.274 4.059,-4.274 0.753,0 1.398,0.108 2.013,0.308 v 4.043 H 0.338 V -8.516 C -0.708,-8.901 -1.952,-9.1 -3.044,-9.1 c -3.074,0 -5.119,1.906 -5.119,5.134 0,3.151 2.076,5.519 5.519,5.519 0.968,0 1.891,-0.154 2.828,-0.446 z"
             style="fill:#231f20;fill-opacity:1;fill-rule:nonzero;stroke:none"
             id="path2792"
             inkscape:connector-curvature="0" />
        </g>
        <g
           id="g2794"
           transform="translate(294.5569,687.3814)">
          <path
             d="M 0,0 V 4.147 H -4.786 V 0 H -5.79 v 8.803 h 1.004 V 4.982 H 0 V 8.803 H 0.992 V 0 Z"
             style="fill:#231f20;fill-opacity:1;fill-rule:nonzero;stroke:none"
             id="path2796"
             inkscape:connector-curvature="0" />
        </g>
        <g
           id="g2798"
           transform="translate(300.0996,693.2368)">
          <path
             d="M 0,0 C -0.913,0 -1.565,-0.665 -1.721,-1.682 H 1.565 C 1.591,-0.678 0.991,0 0,0 m 2.556,-2.412 h -4.329 c -0.065,-1.944 0.704,-2.752 2.151,-2.752 0.679,0 1.396,0.169 1.878,0.417 l 0.091,-0.835 c -0.599,-0.247 -1.33,-0.391 -2.138,-0.391 -1.956,0 -2.999,1.057 -2.999,3.326 0,1.943 1.043,3.39 2.842,3.39 1.787,0 2.53,-1.239 2.53,-2.673 0,-0.117 0,-0.287 -0.026,-0.482"
             style="fill:#231f20;fill-opacity:1;fill-rule:nonzero;stroke:none"
             id="path2800"
             inkscape:connector-curvature="0" />
        </g>
        <g
           id="g2802"
           transform="translate(308.6806,687.3814)">
          <path
             d="m 0,0 v 4.199 c 0,1.017 -0.274,1.604 -1.213,1.604 -1.16,0 -1.982,-1.147 -1.982,-2.686 V 0 h -0.978 v 6.482 h 0.965 c 0,-0.418 -0.039,-1.044 -0.105,-1.435 l 0.027,-0.013 c 0.365,0.939 1.186,1.578 2.321,1.578 1.487,0 1.943,-0.939 1.943,-2.087 L 0.978,0 Z"
             style="fill:#231f20;fill-opacity:1;fill-rule:nonzero;stroke:none"
             id="path2804"
             inkscape:connector-curvature="0" />
        </g>
        <g
           id="g2806"
           transform="translate(315.1226,693.0153)">
          <path
             d="m 0,0 c -1.435,0.235 -2.112,-0.861 -2.112,-3.039 v -2.595 h -0.979 v 6.482 h 0.966 c 0,-0.431 -0.053,-1.07 -0.144,-1.631 l 0.013,-0.013 c 0.261,0.952 0.939,1.917 2.295,1.761 z"
             style="fill:#231f20;fill-opacity:1;fill-rule:nonzero;stroke:none"
             id="path2808"
             inkscape:connector-curvature="0" />
        </g>
        <g
           id="g2810"
           transform="translate(318.825,686.7032)">
          <path
             d="m 0,0 c -0.756,-1.995 -1.33,-2.66 -2.752,-2.66 -0.234,0 -0.561,0.026 -0.821,0.065 l 0.104,0.9 c 0.261,-0.092 0.522,-0.131 0.809,-0.131 0.782,0 1.173,0.365 1.682,1.735 l 0.3,0.769 -2.478,6.482 h 1.122 l 1.356,-3.717 c 0.209,-0.587 0.352,-1.056 0.496,-1.539 h 0.012 c 0.118,0.417 0.392,1.226 0.653,1.969 l 1.16,3.287 h 1.07 z"
             style="fill:#231f20;fill-opacity:1;fill-rule:nonzero;stroke:none"
             id="path2812"
             inkscape:connector-curvature="0" />
        </g>
        <g
           id="g2814"
           transform="translate(327.1317,687.264)">
          <path
             d="M 0,0 C -0.652,0 -1.278,0.091 -1.761,0.222 L -1.708,1.2 C -1.2,1.017 -0.522,0.874 0.091,0.874 c 1.135,0 2.087,0.456 2.087,1.656 0,2.087 -4.082,1.291 -4.082,4.069 0,1.395 1.122,2.438 3.052,2.438 0.547,0 1.056,-0.065 1.577,-0.169 L 2.674,7.968 C 2.178,8.112 1.591,8.203 1.083,8.203 c -1.279,0 -1.957,-0.6 -1.957,-1.5 0,-2.021 4.082,-1.291 4.082,-4.043 C 3.208,1.108 1.995,0 0,0"
             style="fill:#231f20;fill-opacity:1;fill-rule:nonzero;stroke:none"
             id="path2816"
             inkscape:connector-curvature="0" />
        </g>
        <g
           id="g2818"
           transform="translate(335.6734,690.42)">
          <path
             d="m 0,0 c -2.438,0 -2.96,-0.769 -2.96,-1.395 0,-0.587 0.417,-0.965 1.056,-0.965 1.148,0 1.904,1.134 1.904,2.256 z m 0.053,-3.039 c 0,0.496 0,0.992 0.065,1.37 H 0.092 c -0.313,-0.822 -1.148,-1.487 -2.256,-1.487 -1.031,0 -1.774,0.548 -1.774,1.578 0,1.356 1.408,2.295 3.938,2.295 v 0.535 c 0,0.978 -0.352,1.526 -1.473,1.526 -0.626,0 -1.409,-0.196 -1.983,-0.561 l -0.091,0.861 c 0.613,0.274 1.369,0.482 2.243,0.482 1.787,0 2.296,-0.886 2.296,-2.112 v -2.543 c 0,-0.64 0,-1.37 0.026,-1.944 z"
             style="fill:#231f20;fill-opacity:1;fill-rule:nonzero;stroke:none"
             id="path2820"
             inkscape:connector-curvature="0" />
        </g>
        <g
           id="g2822"
           transform="translate(347.2279,687.3814)">
          <path
             d="m 0,0 v 4.186 c 0,0.978 -0.235,1.617 -1.173,1.617 -0.991,0 -1.943,-1.03 -1.943,-2.712 V 0 h -0.966 v 4.199 c 0,0.887 -0.182,1.604 -1.173,1.604 -1.07,0 -1.943,-1.121 -1.943,-2.712 V 0 h -0.979 v 6.482 h 0.966 c 0,-0.418 -0.026,-1.031 -0.105,-1.435 L -7.29,5.034 c 0.366,0.952 1.213,1.578 2.282,1.578 1.474,0 1.787,-1.057 1.813,-1.552 0.235,0.613 0.939,1.552 2.256,1.552 1.213,0 1.918,-0.652 1.918,-2.113 L 0.979,0 Z"
             style="fill:#231f20;fill-opacity:1;fill-rule:nonzero;stroke:none"
             id="path2824"
             inkscape:connector-curvature="0" />
        </g>
        <g
           id="g2826"
           transform="translate(354.7662,687.3814)">
          <path
             d="M 0,0 C 0,0.417 0.039,1.043 0.104,1.435 L 0.078,1.448 C -0.287,0.509 -1.109,-0.13 -2.244,-0.13 c -1.486,0 -1.943,0.938 -1.943,2.086 v 4.526 h 0.979 v -4.2 c 0,-1.017 0.274,-1.604 1.212,-1.604 1.161,0 1.982,1.148 1.982,2.687 V 6.482 H 0.965 V 0 Z"
             style="fill:#231f20;fill-opacity:1;fill-rule:nonzero;stroke:none"
             id="path2828"
             inkscape:connector-curvature="0" />
        </g>
        <g
           id="g2830"
           transform="translate(360.2816,693.2368)">
          <path
             d="M 0,0 C -0.913,0 -1.564,-0.665 -1.721,-1.682 H 1.565 C 1.591,-0.678 0.991,0 0,0 m 2.557,-2.412 h -4.33 c -0.065,-1.944 0.704,-2.752 2.152,-2.752 0.678,0 1.395,0.169 1.878,0.417 l 0.09,-0.835 C 1.748,-5.829 1.018,-5.973 0.209,-5.973 c -1.957,0 -2.999,1.057 -2.999,3.326 0,1.943 1.042,3.39 2.843,3.39 1.786,0 2.529,-1.239 2.529,-2.673 0,-0.117 0,-0.287 -0.025,-0.482"
             style="fill:#231f20;fill-opacity:1;fill-rule:nonzero;stroke:none"
             id="path2832"
             inkscape:connector-curvature="0" />
        </g>
        <path
           d="m 364.69,696.901 h 0.979 v -9.52 h -0.979 z"
           style="fill:#231f20;fill-opacity:1;fill-rule:nonzero;stroke:none"
           id="path2834"
           inkscape:connector-curvature="0" />
        <path
           d="m 368.042,693.863 h 0.978 v -6.482 h -0.978 z m 0.495,1.174 c -0.378,0 -0.678,0.286 -0.678,0.665 0,0.365 0.3,0.665 0.678,0.665 0.365,0 0.678,-0.3 0.678,-0.665 0,-0.379 -0.313,-0.665 -0.678,-0.665"
           style="fill:#231f20;fill-opacity:1;fill-rule:nonzero;stroke:none"
           id="path2836"
           inkscape:connector-curvature="0" />
        <g
           id="g2838"
           transform="translate(375.6698,687.264)">
          <path
             d="M 0,0 C -0.652,0 -1.278,0.091 -1.761,0.222 L -1.708,1.2 c 0.508,-0.183 1.186,-0.326 1.8,-0.326 1.134,0 2.086,0.456 2.086,1.656 0,2.087 -4.082,1.291 -4.082,4.069 0,1.395 1.122,2.438 3.052,2.438 0.547,0 1.056,-0.065 1.578,-0.169 L 2.674,7.968 C 2.178,8.112 1.591,8.203 1.083,8.203 c -1.278,0 -1.957,-0.6 -1.957,-1.5 0,-2.021 4.082,-1.291 4.082,-4.043 C 3.208,1.108 1.996,0 0,0"
             style="fill:#231f20;fill-opacity:1;fill-rule:nonzero;stroke:none"
             id="path2840"
             inkscape:connector-curvature="0" />
        </g>
        <g
           id="g2842"
           transform="translate(382.9994,687.3032)">
          <path
             d="m 0,0 c -1.448,0 -2.804,0.639 -2.804,3.091 0,2.125 1.07,3.56 3.182,3.56 0.535,0 1.07,-0.078 1.526,-0.222 L 1.8,5.569 C 1.369,5.738 0.86,5.855 0.313,5.855 c -1.395,0 -2.087,-1.03 -2.087,-2.595 0,-1.33 0.418,-2.425 1.983,-2.425 0.573,0 1.199,0.143 1.63,0.365 L 1.93,0.352 C 1.5,0.183 0.796,0 0,0"
             style="fill:#231f20;fill-opacity:1;fill-rule:nonzero;stroke:none"
             id="path2844"
             inkscape:connector-curvature="0" />
        </g>
        <g
           id="g2846"
           transform="translate(390.7193,687.3814)">
          <path
             d="m 0,0 v 4.199 c 0,1.017 -0.274,1.604 -1.213,1.604 -1.161,0 -1.982,-1.147 -1.982,-2.686 V 0 h -0.978 v 9.52 h 0.978 V 6.351 c 0,-0.43 -0.026,-0.965 -0.104,-1.291 l 0.026,-0.013 c 0.378,0.952 1.186,1.565 2.308,1.565 1.487,0 1.944,-0.939 1.944,-2.087 L 0.979,0 Z"
             style="fill:#231f20;fill-opacity:1;fill-rule:nonzero;stroke:none"
             id="path2848"
             inkscape:connector-curvature="0" />
        </g>
        <g
           id="g2850"
           transform="translate(396.4318,693.1718)">
          <path
             d="m 0,0 c -1.018,0 -1.982,-0.77 -1.982,-2.504 0,-1.656 0.717,-2.569 1.982,-2.569 1.017,0 1.943,0.782 1.943,2.569 C 1.943,-0.939 1.291,0 0,0 m -0.144,-5.908 c -1.734,0 -2.856,1.057 -2.856,3.326 0,1.852 1.148,3.39 3.091,3.39 1.578,0 2.869,-0.873 2.869,-3.247 0,-1.93 -1.187,-3.469 -3.104,-3.469"
             style="fill:#231f20;fill-opacity:1;fill-rule:nonzero;stroke:none"
             id="path2852"
             inkscape:connector-curvature="0" />
        </g>
        <g
           id="g2854"
           transform="translate(403.4996,693.1718)">
          <path
             d="m 0,0 c -1.017,0 -1.982,-0.77 -1.982,-2.504 0,-1.656 0.717,-2.569 1.982,-2.569 1.017,0 1.943,0.782 1.943,2.569 C 1.943,-0.939 1.291,0 0,0 m -0.143,-5.908 c -1.735,0 -2.856,1.057 -2.856,3.326 0,1.852 1.147,3.39 3.09,3.39 1.578,0 2.869,-0.873 2.869,-3.247 0,-1.93 -1.186,-3.469 -3.103,-3.469"
             style="fill:#231f20;fill-opacity:1;fill-rule:nonzero;stroke:none"
             id="path2856"
             inkscape:connector-curvature="0" />
        </g>
        <path
           d="m 408.208,696.901 h 0.978 v -9.52 h -0.978 z"
           style="fill:#231f20;fill-opacity:1;fill-rule:nonzero;stroke:none"
           id="path2858"
           inkscape:connector-curvature="0" />
        <g
           id="g2860"
           transform="translate(416.7621,693.1718)">
          <path
             d="m 0,0 c -1.018,0 -1.982,-0.77 -1.982,-2.504 0,-1.656 0.717,-2.569 1.982,-2.569 1.017,0 1.943,0.782 1.943,2.569 C 1.943,-0.939 1.291,0 0,0 m -0.144,-5.908 c -1.734,0 -2.855,1.057 -2.855,3.326 0,1.852 1.147,3.39 3.09,3.39 1.578,0 2.869,-0.873 2.869,-3.247 0,-1.93 -1.186,-3.469 -3.104,-3.469"
             style="fill:#231f20;fill-opacity:1;fill-rule:nonzero;stroke:none"
             id="path2862"
             inkscape:connector-curvature="0" />
        </g>
        <g
           id="g2864"
           transform="translate(425.2379,696.0276)">
          <path
             d="m 0,0 c -0.326,0.104 -0.678,0.144 -1.017,0.144 -0.991,0 -1.434,-0.574 -1.434,-1.826 v -0.483 h 1.916 V -2.934 H -2.451 V -8.646 H -3.43 v 5.712 h -1.408 v 0.769 h 1.408 v 0.457 c 0,1.812 0.901,2.647 2.452,2.647 0.365,0 0.718,-0.039 1.07,-0.117 z"
             style="fill:#231f20;fill-opacity:1;fill-rule:nonzero;stroke:none"
             id="path2866"
             inkscape:connector-curvature="0" />
        </g>
        <g
           id="g2868"
           transform="translate(288.7668,672.0113)">
          <path
             d="M 0,0 V 8.803 H 4.434 V 7.994 H 1.004 V 4.942 H 4.265 V 4.134 H 1.004 V 0.835 h 3.43 V 0 Z"
             style="fill:#231f20;fill-opacity:1;fill-rule:nonzero;stroke:none"
             id="path2870"
             inkscape:connector-curvature="0" />
        </g>
        <g
           id="g2872"
           transform="translate(299.5256,672.0113)">
          <path
             d="m 0,0 v 4.199 c 0,1.017 -0.274,1.604 -1.213,1.604 -1.16,0 -1.982,-1.147 -1.982,-2.686 V 0 h -0.978 v 6.482 h 0.965 c 0,-0.418 -0.039,-1.044 -0.105,-1.435 l 0.027,-0.013 c 0.365,0.939 1.186,1.578 2.321,1.578 1.487,0 1.943,-0.939 1.943,-2.087 L 0.978,0 Z"
             style="fill:#231f20;fill-opacity:1;fill-rule:nonzero;stroke:none"
             id="path2874"
             inkscape:connector-curvature="0" />
        </g>
        <g
           id="g2876"
           transform="translate(305.2379,677.8539)">
          <path
             d="m 0,0 c -1.122,0 -1.787,-0.691 -1.787,-1.643 0,-1.057 0.64,-1.617 1.735,-1.617 1.069,0 1.76,0.573 1.76,1.617 C 1.708,-0.6 1.069,0 0,0 m 0.665,-5.882 h -1.33 c -0.131,0 -0.3,0 -0.417,0.013 -0.561,-0.286 -0.927,-0.756 -0.927,-1.303 0,-0.835 0.809,-1.278 1.892,-1.278 1.421,0 2.256,0.599 2.256,1.46 0,0.691 -0.483,1.108 -1.474,1.108 m -0.952,-3.364 c -1.643,0 -2.699,0.665 -2.699,1.904 0,0.808 0.508,1.409 1.121,1.722 -0.404,0.182 -0.652,0.521 -0.652,0.939 0,0.442 0.261,0.847 0.717,1.055 -0.652,0.379 -0.965,1.044 -0.965,1.878 0,1.357 1.057,2.504 2.817,2.504 0.365,0 0.639,-0.039 0.978,-0.117 h 2.204 v -0.77 H 2.06 c 0.378,-0.299 0.626,-0.808 0.626,-1.421 0,-1.382 -0.952,-2.438 -2.816,-2.438 -0.3,0 -0.653,0.039 -0.887,0.091 -0.326,-0.118 -0.483,-0.353 -0.483,-0.587 0,-0.379 0.365,-0.548 1.174,-0.548 h 1.265 c 1.408,0 2.178,-0.691 2.178,-1.825 0,-1.37 -1.409,-2.387 -3.404,-2.387"
             style="fill:#231f20;fill-opacity:1;fill-rule:nonzero;stroke:none"
             id="path2878"
             inkscape:connector-curvature="0" />
        </g>
        <path
           d="m 310.128,678.493 h 0.978 v -6.482 h -0.978 z m 0.496,1.173 c -0.379,0 -0.678,0.287 -0.678,0.666 0,0.365 0.299,0.665 0.678,0.665 0.364,0 0.678,-0.3 0.678,-0.665 0,-0.379 -0.314,-0.666 -0.678,-0.666"
           style="fill:#231f20;fill-opacity:1;fill-rule:nonzero;stroke:none"
           id="path2880"
           inkscape:connector-curvature="0" />
        <g
           id="g2882"
           transform="translate(317.6528,672.0113)">
          <path
             d="m 0,0 v 4.199 c 0,1.017 -0.274,1.604 -1.213,1.604 -1.16,0 -1.982,-1.147 -1.982,-2.686 V 0 h -0.978 v 6.482 h 0.965 c 0,-0.418 -0.039,-1.044 -0.105,-1.435 l 0.027,-0.013 c 0.365,0.939 1.186,1.578 2.321,1.578 1.487,0 1.943,-0.939 1.943,-2.087 L 0.978,0 Z"
             style="fill:#231f20;fill-opacity:1;fill-rule:nonzero;stroke:none"
             id="path2884"
             inkscape:connector-curvature="0" />
        </g>
        <g
           id="g2886"
           transform="translate(323.1819,677.8671)">
          <path
             d="M 0,0 C -0.913,0 -1.565,-0.665 -1.721,-1.683 H 1.565 C 1.591,-0.679 0.991,0 0,0 m 2.556,-2.412 h -4.329 c -0.066,-1.944 0.704,-2.752 2.151,-2.752 0.679,0 1.396,0.169 1.878,0.417 l 0.091,-0.835 c -0.6,-0.247 -1.33,-0.391 -2.138,-0.391 -1.956,0 -2.999,1.056 -2.999,3.326 0,1.943 1.043,3.39 2.842,3.39 1.787,0 2.53,-1.239 2.53,-2.673 0,-0.118 0,-0.287 -0.026,-0.482"
             style="fill:#231f20;fill-opacity:1;fill-rule:nonzero;stroke:none"
             id="path2888"
             inkscape:connector-curvature="0" />
        </g>
        <g
           id="g2890"
           transform="translate(329.7675,677.8671)">
          <path
             d="M 0,0 C -0.913,0 -1.565,-0.665 -1.721,-1.683 H 1.565 C 1.591,-0.679 0.991,0 0,0 m 2.556,-2.412 h -4.329 c -0.065,-1.944 0.704,-2.752 2.151,-2.752 0.679,0 1.396,0.169 1.878,0.417 l 0.091,-0.835 c -0.6,-0.247 -1.33,-0.391 -2.138,-0.391 -1.956,0 -2.999,1.056 -2.999,3.326 0,1.943 1.043,3.39 2.842,3.39 1.787,0 2.53,-1.239 2.53,-2.673 0,-0.118 0,-0.287 -0.026,-0.482"
             style="fill:#231f20;fill-opacity:1;fill-rule:nonzero;stroke:none"
             id="path2892"
             inkscape:connector-curvature="0" />
        </g>
        <g
           id="g2894"
           transform="translate(337.2658,677.6451)">
          <path
             d="M 0,0 C -1.435,0.235 -2.112,-0.861 -2.112,-3.038 V -5.634 H -3.09 v 6.482 h 0.965 c 0,-0.43 -0.052,-1.07 -0.144,-1.63 l 0.013,-0.013 c 0.261,0.951 0.939,1.917 2.295,1.76 z"
             style="fill:#231f20;fill-opacity:1;fill-rule:nonzero;stroke:none"
             id="path2896"
             inkscape:connector-curvature="0" />
        </g>
        <path
           d="m 338.792,678.493 h 0.978 v -6.482 h -0.978 z m 0.496,1.173 c -0.379,0 -0.678,0.287 -0.678,0.666 0,0.365 0.299,0.665 0.678,0.665 0.364,0 0.678,-0.3 0.678,-0.665 0,-0.379 -0.314,-0.666 -0.678,-0.666"
           style="fill:#231f20;fill-opacity:1;fill-rule:nonzero;stroke:none"
           id="path2898"
           inkscape:connector-curvature="0" />
        <g
           id="g2900"
           transform="translate(346.3164,672.0113)">
          <path
             d="m 0,0 v 4.199 c 0,1.017 -0.274,1.604 -1.213,1.604 -1.16,0 -1.982,-1.147 -1.982,-2.686 V 0 h -0.978 v 6.482 h 0.965 c 0,-0.418 -0.039,-1.044 -0.104,-1.435 l 0.026,-0.013 c 0.365,0.939 1.186,1.578 2.321,1.578 1.487,0 1.944,-0.939 1.944,-2.087 L 0.979,0 Z"
             style="fill:#231f20;fill-opacity:1;fill-rule:nonzero;stroke:none"
             id="path2902"
             inkscape:connector-curvature="0" />
        </g>
        <g
           id="g2904"
           transform="translate(352.0289,677.8539)">
          <path
             d="m 0,0 c -1.122,0 -1.787,-0.691 -1.787,-1.643 0,-1.057 0.639,-1.617 1.734,-1.617 1.07,0 1.761,0.573 1.761,1.617 C 1.708,-0.6 1.069,0 0,0 m 0.665,-5.882 h -1.331 c -0.13,0 -0.3,0 -0.417,0.013 -0.561,-0.286 -0.926,-0.756 -0.926,-1.303 0,-0.835 0.809,-1.278 1.892,-1.278 1.421,0 2.255,0.599 2.255,1.46 0,0.691 -0.482,1.108 -1.473,1.108 m -0.952,-3.364 c -1.644,0 -2.699,0.665 -2.699,1.904 0,0.808 0.508,1.409 1.121,1.722 -0.404,0.182 -0.652,0.521 -0.652,0.939 0,0.442 0.261,0.847 0.717,1.055 -0.652,0.379 -0.965,1.044 -0.965,1.878 0,1.357 1.057,2.504 2.817,2.504 0.365,0 0.639,-0.039 0.978,-0.117 h 2.204 v -0.77 H 2.06 c 0.378,-0.299 0.626,-0.808 0.626,-1.421 0,-1.382 -0.952,-2.438 -2.817,-2.438 -0.299,0 -0.652,0.039 -0.887,0.091 -0.325,-0.118 -0.482,-0.353 -0.482,-0.587 0,-0.379 0.365,-0.548 1.173,-0.548 h 1.265 c 1.409,0 2.178,-0.691 2.178,-1.825 0,-1.37 -1.408,-2.387 -3.403,-2.387"
             style="fill:#231f20;fill-opacity:1;fill-rule:nonzero;stroke:none"
             id="path2906"
             inkscape:connector-curvature="0" />
        </g>
        <g
           id="g2908"
           transform="translate(363.1661,675.0499)">
          <path
             d="m 0,0 c -2.439,0 -2.961,-0.769 -2.961,-1.395 0,-0.587 0.417,-0.965 1.057,-0.965 1.148,0 1.904,1.135 1.904,2.256 z m 0.052,-3.039 c 0,0.496 0,0.992 0.065,1.37 H 0.091 c -0.313,-0.822 -1.148,-1.487 -2.256,-1.487 -1.031,0 -1.773,0.548 -1.773,1.578 0,1.356 1.408,2.296 3.938,2.296 L 0,1.252 C 0,2.23 -0.353,2.778 -1.474,2.778 -2.1,2.778 -2.883,2.582 -3.456,2.217 l -0.091,0.861 c 0.612,0.274 1.369,0.482 2.242,0.482 1.787,0 2.296,-0.887 2.296,-2.112 v -2.543 c 0,-0.639 0,-1.369 0.026,-1.944 z"
             style="fill:#231f20;fill-opacity:1;fill-rule:nonzero;stroke:none"
             id="path2910"
             inkscape:connector-curvature="0" />
        </g>
        <g
           id="g2912"
           transform="translate(370.7164,672.0113)">
          <path
             d="m 0,0 v 4.199 c 0,1.017 -0.274,1.604 -1.213,1.604 -1.16,0 -1.982,-1.147 -1.982,-2.686 V 0 h -0.978 v 6.482 h 0.965 c 0,-0.418 -0.039,-1.044 -0.105,-1.435 l 0.027,-0.013 c 0.365,0.939 1.186,1.578 2.32,1.578 1.488,0 1.944,-0.939 1.944,-2.087 L 0.978,0 Z"
             style="fill:#231f20;fill-opacity:1;fill-rule:nonzero;stroke:none"
             id="path2914"
             inkscape:connector-curvature="0" />
        </g>
        <g
           id="g2916"
           transform="translate(377.9804,677.6451)">
          <path
             d="m 0,0 c -0.443,0.105 -0.861,0.156 -1.278,0.156 -1.33,0 -2.217,-0.808 -2.217,-2.764 0,-1.461 0.496,-2.334 1.565,-2.334 1.291,0 1.93,1.513 1.93,2.66 z m 0,-5.634 c 0,0.391 0.039,1.017 0.117,1.409 l -0.026,0.013 c -0.365,-0.926 -1.186,-1.539 -2.229,-1.539 -1.605,0 -2.387,1.173 -2.387,3.065 0,2.308 1.304,3.612 3.325,3.612 0.378,0 0.757,-0.026 1.2,-0.066 v 3.026 h 0.965 v -9.52 z"
             style="fill:#231f20;fill-opacity:1;fill-rule:nonzero;stroke:none"
             id="path2918"
             inkscape:connector-curvature="0" />
        </g>
        <g
           id="g2920"
           transform="translate(387.3309,678.4406)">
          <path
             d="M 0,0 C -0.17,0.443 -0.287,0.835 -0.391,1.291 H -0.418 C -0.522,0.861 -0.652,0.443 -0.809,0.013 l -1.278,-3.482 h 3.365 z m 2.321,-6.429 -0.769,2.165 h -3.913 l -0.782,-2.165 h -1.03 L -0.9,2.374 h 1.082 l 3.274,-8.803 z"
             style="fill:#231f20;fill-opacity:1;fill-rule:nonzero;stroke:none"
             id="path2922"
             inkscape:connector-curvature="0" />
        </g>
        <g
           id="g2924"
           transform="translate(395.0508,677.8016)">
          <path
             d="m 0,0 c -1.304,0 -1.93,-1.513 -1.93,-2.66 v -2.27 c 0.378,-0.117 0.782,-0.169 1.265,-0.169 1.343,0 2.217,0.809 2.217,2.765 C 1.552,-0.873 1.069,0 0,0 m -0.731,-5.869 c -0.443,0 -0.769,0.013 -1.199,0.092 v -3.261 h -0.978 v 9.729 h 0.965 c 0,-0.391 -0.026,-1.03 -0.105,-1.408 l 0.027,-0.013 c 0.365,0.939 1.186,1.539 2.217,1.539 1.525,0 2.386,-1.056 2.386,-3.065 0,-2.321 -1.265,-3.613 -3.313,-3.613"
             style="fill:#231f20;fill-opacity:1;fill-rule:nonzero;stroke:none"
             id="path2926"
             inkscape:connector-curvature="0" />
        </g>
        <g
           id="g2928"
           transform="translate(402.3278,677.8016)">
          <path
             d="m 0,0 c -1.304,0 -1.93,-1.513 -1.93,-2.66 v -2.27 c 0.378,-0.117 0.782,-0.169 1.265,-0.169 1.343,0 2.217,0.809 2.217,2.765 C 1.552,-0.873 1.069,0 0,0 m -0.731,-5.869 c -0.443,0 -0.769,0.013 -1.199,0.092 v -3.261 h -0.978 v 9.729 h 0.965 c 0,-0.391 -0.026,-1.03 -0.105,-1.408 l 0.027,-0.013 c 0.365,0.939 1.186,1.539 2.217,1.539 1.525,0 2.386,-1.056 2.386,-3.065 0,-2.321 -1.265,-3.613 -3.313,-3.613"
             style="fill:#231f20;fill-opacity:1;fill-rule:nonzero;stroke:none"
             id="path2930"
             inkscape:connector-curvature="0" />
        </g>
        <path
           d="m 406.697,681.531 h 0.978 v -9.52 h -0.978 z"
           style="fill:#231f20;fill-opacity:1;fill-rule:nonzero;stroke:none"
           id="path2932"
           inkscape:connector-curvature="0" />
        <path
           d="m 410.048,678.493 h 0.979 v -6.482 h -0.979 z m 0.495,1.173 c -0.378,0 -0.678,0.287 -0.678,0.666 0,0.365 0.3,0.665 0.678,0.665 0.365,0 0.679,-0.3 0.679,-0.665 0,-0.379 -0.314,-0.666 -0.679,-0.666"
           style="fill:#231f20;fill-opacity:1;fill-rule:nonzero;stroke:none"
           id="path2934"
           inkscape:connector-curvature="0" />
        <g
           id="g2936"
           transform="translate(415.5772,677.8671)">
          <path
             d="M 0,0 C -0.913,0 -1.564,-0.665 -1.721,-1.683 H 1.565 C 1.591,-0.679 0.991,0 0,0 m 2.556,-2.412 h -4.33 c -0.064,-1.944 0.705,-2.752 2.153,-2.752 0.678,0 1.395,0.169 1.878,0.417 l 0.09,-0.835 c -0.6,-0.247 -1.329,-0.391 -2.138,-0.391 -1.957,0 -2.999,1.056 -2.999,3.326 0,1.943 1.042,3.39 2.842,3.39 1.787,0 2.53,-1.239 2.53,-2.673 0,-0.118 0,-0.287 -0.026,-0.482"
             style="fill:#231f20;fill-opacity:1;fill-rule:nonzero;stroke:none"
             id="path2938"
             inkscape:connector-curvature="0" />
        </g>
        <g
           id="g2940"
           transform="translate(423.8975,677.6451)">
          <path
             d="m 0,0 c -0.443,0.105 -0.861,0.156 -1.278,0.156 -1.33,0 -2.217,-0.808 -2.217,-2.764 0,-1.461 0.496,-2.334 1.565,-2.334 1.291,0 1.93,1.513 1.93,2.66 z m 0,-5.634 c 0,0.391 0.039,1.017 0.117,1.409 l -0.026,0.013 c -0.365,-0.926 -1.186,-1.539 -2.229,-1.539 -1.605,0 -2.387,1.173 -2.387,3.065 0,2.308 1.304,3.612 3.325,3.612 0.378,0 0.757,-0.026 1.2,-0.066 v 3.026 h 0.965 v -9.52 z"
             style="fill:#231f20;fill-opacity:1;fill-rule:nonzero;stroke:none"
             id="path2942"
             inkscape:connector-curvature="0" />
        </g>
        <g
           id="g2944"
           transform="translate(431.5261,671.8939)">
          <path
             d="M 0,0 C -0.652,0 -1.278,0.091 -1.761,0.222 L -1.708,1.2 c 0.508,-0.183 1.186,-0.326 1.8,-0.326 1.134,0 2.086,0.456 2.086,1.656 0,2.087 -4.082,1.292 -4.082,4.069 0,1.395 1.122,2.439 3.052,2.439 0.547,0 1.056,-0.066 1.578,-0.17 L 2.673,7.968 C 2.178,8.112 1.591,8.203 1.082,8.203 c -1.278,0 -1.956,-0.6 -1.956,-1.499 0,-2.022 4.082,-1.292 4.082,-4.044 C 3.208,1.108 1.995,0 0,0"
             style="fill:#231f20;fill-opacity:1;fill-rule:nonzero;stroke:none"
             id="path2946"
             inkscape:connector-curvature="0" />
        </g>
        <g
           id="g2948"
           transform="translate(438.8557,671.933)">
          <path
             d="m 0,0 c -1.448,0 -2.804,0.639 -2.804,3.091 0,2.125 1.07,3.56 3.182,3.56 0.535,0 1.07,-0.078 1.526,-0.222 L 1.8,5.569 C 1.369,5.738 0.86,5.856 0.313,5.856 c -1.396,0 -2.087,-1.031 -2.087,-2.596 0,-1.329 0.417,-2.425 1.983,-2.425 0.573,0 1.199,0.143 1.63,0.365 L 1.93,0.352 C 1.499,0.183 0.796,0 0,0"
             style="fill:#231f20;fill-opacity:1;fill-rule:nonzero;stroke:none"
             id="path2950"
             inkscape:connector-curvature="0" />
        </g>
        <path
           d="m 442.402,678.493 h 0.978 v -6.482 h -0.978 z m 0.496,1.173 c -0.378,0 -0.678,0.287 -0.678,0.666 0,0.365 0.3,0.665 0.678,0.665 0.365,0 0.678,-0.3 0.678,-0.665 0,-0.379 -0.313,-0.666 -0.678,-0.666"
           style="fill:#231f20;fill-opacity:1;fill-rule:nonzero;stroke:none"
           id="path2952"
           inkscape:connector-curvature="0" />
        <g
           id="g2954"
           transform="translate(447.9314,677.8671)">
          <path
             d="M 0,0 C -0.913,0 -1.564,-0.665 -1.721,-1.683 H 1.565 C 1.591,-0.679 0.991,0 0,0 m 2.556,-2.412 h -4.33 c -0.064,-1.944 0.705,-2.752 2.152,-2.752 0.678,0 1.396,0.169 1.879,0.417 l 0.09,-0.835 c -0.6,-0.247 -1.33,-0.391 -2.138,-0.391 -1.957,0 -2.999,1.056 -2.999,3.326 0,1.943 1.042,3.39 2.842,3.39 1.787,0 2.53,-1.239 2.53,-2.673 0,-0.118 0,-0.287 -0.026,-0.482"
             style="fill:#231f20;fill-opacity:1;fill-rule:nonzero;stroke:none"
             id="path2956"
             inkscape:connector-curvature="0" />
        </g>
        <g
           id="g2958"
           transform="translate(456.5125,672.0113)">
          <path
             d="m 0,0 v 4.199 c 0,1.017 -0.274,1.604 -1.213,1.604 -1.16,0 -1.982,-1.147 -1.982,-2.686 V 0 h -0.978 v 6.482 h 0.965 c 0,-0.418 -0.039,-1.044 -0.105,-1.435 l 0.027,-0.013 c 0.365,0.939 1.186,1.578 2.32,1.578 1.488,0 1.944,-0.939 1.944,-2.087 L 0.978,0 Z"
             style="fill:#231f20;fill-opacity:1;fill-rule:nonzero;stroke:none"
             id="path2960"
             inkscape:connector-curvature="0" />
        </g>
        <g
           id="g2962"
           transform="translate(462.055,671.933)">
          <path
             d="m 0,0 c -1.448,0 -2.803,0.639 -2.803,3.091 0,2.125 1.069,3.56 3.181,3.56 0.535,0 1.07,-0.078 1.526,-0.222 L 1.8,5.569 C 1.37,5.738 0.861,5.856 0.313,5.856 c -1.395,0 -2.087,-1.031 -2.087,-2.596 0,-1.329 0.418,-2.425 1.983,-2.425 0.573,0 1.2,0.143 1.63,0.365 L 1.93,0.352 C 1.5,0.183 0.796,0 0,0"
             style="fill:#231f20;fill-opacity:1;fill-rule:nonzero;stroke:none"
             id="path2964"
             inkscape:connector-curvature="0" />
        </g>
        <g
           id="g2966"
           transform="translate(467.7796,677.8671)">
          <path
             d="M 0,0 C -0.913,0 -1.564,-0.665 -1.721,-1.683 H 1.565 C 1.591,-0.679 0.991,0 0,0 m 2.556,-2.412 h -4.329 c -0.065,-1.944 0.704,-2.752 2.152,-2.752 0.678,0 1.395,0.169 1.878,0.417 l 0.09,-0.835 C 1.748,-5.829 1.018,-5.973 0.209,-5.973 c -1.956,0 -2.999,1.056 -2.999,3.326 0,1.943 1.043,3.39 2.842,3.39 1.787,0 2.53,-1.239 2.53,-2.673 0,-0.118 0,-0.287 -0.026,-0.482"
             style="fill:#231f20;fill-opacity:1;fill-rule:nonzero;stroke:none"
             id="path2968"
             inkscape:connector-curvature="0" />
        </g>
        <g
           id="g2970"
           transform="translate(290.7682,658.7945)">
          <path
             d="m 0,0 c -0.334,0 -0.659,-0.009 -0.945,-0.019 l -0.43,-2.243 c 0.201,-0.009 0.363,-0.009 0.592,-0.009 1.126,0 1.995,0.524 1.995,1.489 C 1.212,-0.324 0.954,0 0,0 m -0.725,-2.825 c -0.258,0 -0.592,0 -0.755,-0.01 l -0.458,-2.424 c 0.172,-0.028 0.449,-0.057 0.84,-0.057 1.222,0 1.871,0.716 1.871,1.556 0,0.611 -0.458,0.935 -1.498,0.935 m 1.25,0.343 V -2.49 c 0.639,-0.125 1.011,-0.631 1.011,-1.203 0,-1.183 -0.963,-2.215 -2.786,-2.215 -0.382,0 -0.984,0.019 -1.518,0.029 l 1.222,6.442 c 0.42,0.01 1.002,0.029 1.746,0.029 1.231,0 1.766,-0.506 1.766,-1.221 0,-1.003 -0.725,-1.614 -1.441,-1.853"
             style="fill:#231f20;fill-opacity:1;fill-rule:nonzero;stroke:none"
             id="path2972"
             inkscape:connector-curvature="0" />
        </g>
        <g
           id="g2974"
           transform="translate(294.8071,658.5183)">
          <path
             d="m 0,0 c -0.267,0 -0.458,0.21 -0.448,0.468 0.009,0.286 0.247,0.505 0.515,0.505 0.267,0 0.458,-0.219 0.448,-0.477 C 0.506,0.21 0.267,0 0,0 M -0.783,-5.603 H -1.48 l 0.907,4.744 h 0.697 z"
             style="fill:#231f20;fill-opacity:1;fill-rule:nonzero;stroke:none"
             id="path2976"
             inkscape:connector-curvature="0" />
        </g>
        <g
           id="g2978"
           transform="translate(298.8165,657.0479)">
          <path
             d="m 0,0 c -0.945,0.249 -1.918,-1.842 -2.138,-3.045 l -0.21,-1.088 h -0.697 l 0.898,4.744 h 0.697 c -0.077,-0.429 -0.22,-0.964 -0.525,-1.88 h 0.019 c 0.553,1.203 1.145,2.128 2.09,1.966 z"
             style="fill:#231f20;fill-opacity:1;fill-rule:nonzero;stroke:none"
             id="path2980"
             inkscape:connector-curvature="0" />
        </g>
        <g
           id="g2982"
           transform="translate(302.357,657.0959)">
          <path
             d="m 0,0 h -1.355 l -0.497,-2.615 c -0.152,-0.792 -0.047,-1.012 0.459,-1.012 0.276,0 0.487,0.029 0.678,0.077 l -0.029,-0.611 c -0.268,-0.058 -0.582,-0.096 -0.859,-0.096 -0.945,0 -1.184,0.459 -0.983,1.509 L -2.061,0 h -1.022 l 0.115,0.563 h 1.021 L -1.651,2.138 -0.906,2.31 -1.25,0.563 h 1.365 z"
             style="fill:#231f20;fill-opacity:1;fill-rule:nonzero;stroke:none"
             id="path2984"
             inkscape:connector-curvature="0" />
        </g>
        <g
           id="g2986"
           transform="translate(306.5293,652.9153)">
          <path
             d="m 0,0 h -0.706 l 0.591,3.054 c 0.153,0.811 0,1.175 -0.467,1.175 -0.974,0 -2.004,-2.015 -2.224,-3.217 L -2.997,0 h -0.697 l 1.327,6.967 H -1.67 L -2.109,4.658 C -2.176,4.305 -2.281,3.846 -2.653,2.72 l 0.019,-0.009 c 0.448,1.069 1.241,2.128 2.262,2.128 0.868,0 1.174,-0.61 0.983,-1.622 z"
             style="fill:#231f20;fill-opacity:1;fill-rule:nonzero;stroke:none"
             id="path2988"
             inkscape:connector-curvature="0" />
        </g>
        <g
           id="g2990"
           transform="translate(311.4083,657.1439)">
          <path
             d="M 0,0 C -0.992,0 -1.995,-2.034 -2.233,-3.207 L -2.31,-3.598 c 0.21,-0.077 0.535,-0.125 0.735,-0.125 1.518,0 2.1,1.528 2.1,2.778 C 0.525,-0.268 0.315,0 0,0 m -1.708,-4.286 c -0.268,0 -0.497,0.019 -0.726,0.057 l -0.448,-2.376 h -0.707 l 1.356,7.12 h 0.706 C -1.603,0.086 -1.737,-0.41 -2.09,-1.547 l 0.019,-0.009 c 0.487,1.193 1.27,2.167 2.281,2.167 0.668,0 1.04,-0.439 1.04,-1.432 0,-1.727 -0.877,-3.465 -2.958,-3.465"
             style="fill:#231f20;fill-opacity:1;fill-rule:nonzero;stroke:none"
             id="path2992"
             inkscape:connector-curvature="0" />
        </g>
        <g
           id="g2994"
           transform="translate(314.1401,652.9153)">
          <path
             d="M 0,0 H -0.697 L 0.63,6.967 h 0.697 z"
             style="fill:#231f20;fill-opacity:1;fill-rule:nonzero;stroke:none"
             id="path2996"
             inkscape:connector-curvature="0" />
        </g>
        <g
           id="g2998"
           transform="translate(318.6653,657.163)">
          <path
             d="m 0,0 c -1.527,0 -2.11,-1.537 -2.11,-2.788 0,-0.677 0.211,-0.944 0.535,-0.944 0.983,0 2.004,2.033 2.234,3.226 l 0.076,0.41 C 0.534,-0.048 0.296,0 0,0 m 0.649,-4.248 h -0.716 c 0.086,0.43 0.286,1.117 0.592,2.091 l -0.019,0.009 c -0.325,-0.735 -1.069,-2.195 -2.3,-2.195 -0.669,0 -1.041,0.439 -1.041,1.432 0,1.728 0.888,3.474 2.959,3.474 0.525,0 0.993,-0.058 1.412,-0.134 C 0.992,-2.396 0.849,-3.16 0.649,-4.248"
             style="fill:#231f20;fill-opacity:1;fill-rule:nonzero;stroke:none"
             id="path3000"
             inkscape:connector-curvature="0" />
        </g>
        <g
           id="g3002"
           transform="translate(324.5655,656.9525)">
          <path
             d="m 0,0 c -0.267,0.124 -0.563,0.201 -0.926,0.201 -1.279,0 -1.88,-1.451 -1.88,-2.606 0,-0.525 0.152,-1.078 1.04,-1.078 0.401,0 0.83,0.104 1.146,0.258 l -0.029,-0.631 c -0.344,-0.133 -0.802,-0.248 -1.298,-0.248 -1.222,0 -1.623,0.668 -1.623,1.537 0,1.804 1.002,3.341 2.701,3.341 0.401,0 0.726,-0.058 1.031,-0.154 z"
             style="fill:#231f20;fill-opacity:1;fill-rule:nonzero;stroke:none"
             id="path3004"
             inkscape:connector-curvature="0" />
        </g>
        <g
           id="g3006"
           transform="translate(327.5161,657.1914)">
          <path
             d="m 0,0 c -0.801,0 -1.355,-0.697 -1.584,-1.565 1.603,0.066 2.281,0.381 2.281,0.983 C 0.697,-0.201 0.42,0 0,0 m -1.689,-2.128 c -0.029,-0.153 -0.058,-0.43 -0.058,-0.62 0,-0.812 0.287,-1.022 1.088,-1.022 0.449,0 0.917,0.105 1.318,0.287 v -0.593 c -0.43,-0.181 -0.964,-0.286 -1.575,-0.286 -1.04,0 -1.566,0.43 -1.566,1.518 0,1.785 0.955,3.398 2.568,3.398 0.945,0 1.336,-0.487 1.336,-1.05 0,-0.973 -1.011,-1.547 -3.111,-1.632"
             style="fill:#231f20;fill-opacity:1;fill-rule:nonzero;stroke:none"
             id="path3008"
             inkscape:connector-curvature="0" />
        </g>
        <g
           id="g3010"
           transform="translate(334.3236,657.1439)">
          <path
             d="m 0,0 c -1.117,0 -1.871,-1.212 -1.871,-2.501 0,-0.782 0.315,-1.203 1.088,-1.203 0.974,0 1.861,1.022 1.861,2.53 C 1.078,-0.42 0.735,0 0,0 m -0.906,-4.314 c -1.146,0 -1.7,0.591 -1.7,1.679 0,1.861 1.155,3.236 2.711,3.236 1.203,0 1.728,-0.706 1.728,-1.708 0,-1.957 -1.337,-3.207 -2.739,-3.207"
             style="fill:#231f20;fill-opacity:1;fill-rule:nonzero;stroke:none"
             id="path3012"
             inkscape:connector-curvature="0" />
        </g>
        <g
           id="g3014"
           transform="translate(340.8154,659.2533)">
          <path
             d="m 0,0 c -0.229,0.066 -0.496,0.095 -0.706,0.095 -0.745,0 -1.164,-0.401 -1.336,-1.365 L -2.1,-1.594 h 1.375 L -0.84,-2.157 h -1.364 l -0.85,-4.448 c -0.296,-1.565 -1.012,-2.186 -2.148,-2.186 -0.276,0 -0.563,0.029 -0.82,0.086 l 0.181,0.62 c 0.238,-0.076 0.506,-0.104 0.716,-0.104 0.725,0 1.136,0.391 1.364,1.565 l 0.86,4.467 h -1.022 l 0.115,0.563 h 1.012 l 0.057,0.324 c 0.238,1.317 0.935,1.948 2.119,1.948 0.277,0 0.525,-0.03 0.802,-0.087 z"
             style="fill:#231f20;fill-opacity:1;fill-rule:nonzero;stroke:none"
             id="path3016"
             inkscape:connector-curvature="0" />
        </g>
        <g
           id="g3018"
           transform="translate(345.465,657.0959)">
          <path
             d="m 0,0 h -1.355 l -0.497,-2.615 c -0.152,-0.792 -0.047,-1.012 0.459,-1.012 0.276,0 0.487,0.029 0.678,0.077 l -0.029,-0.611 c -0.268,-0.058 -0.582,-0.096 -0.859,-0.096 -0.945,0 -1.184,0.459 -0.983,1.509 L -2.061,0 h -1.022 l 0.115,0.563 h 1.021 l 0.296,1.575 0.745,0.172 -0.345,-1.747 h 1.366 z"
             style="fill:#231f20;fill-opacity:1;fill-rule:nonzero;stroke:none"
             id="path3020"
             inkscape:connector-curvature="0" />
        </g>
        <g
           id="g3022"
           transform="translate(349.6373,652.9153)">
          <path
             d="m 0,0 h -0.707 l 0.592,3.054 c 0.153,0.811 0,1.175 -0.467,1.175 -0.974,0 -2.004,-2.015 -2.224,-3.217 L -2.997,0 h -0.697 l 1.327,6.967 H -1.67 L -2.109,4.658 C -2.176,4.305 -2.281,3.846 -2.653,2.72 l 0.019,-0.009 c 0.449,1.069 1.241,2.128 2.262,2.128 0.868,0 1.174,-0.61 0.983,-1.622 z"
             style="fill:#231f20;fill-opacity:1;fill-rule:nonzero;stroke:none"
             id="path3024"
             inkscape:connector-curvature="0" />
        </g>
        <g
           id="g3026"
           transform="translate(353.8384,657.1914)">
          <path
             d="m 0,0 c -0.801,0 -1.355,-0.697 -1.584,-1.565 1.603,0.066 2.281,0.381 2.281,0.983 C 0.697,-0.201 0.421,0 0,0 m -1.689,-2.128 c -0.029,-0.153 -0.058,-0.43 -0.058,-0.62 0,-0.812 0.287,-1.022 1.088,-1.022 0.449,0 0.917,0.105 1.318,0.287 v -0.593 c -0.429,-0.181 -0.964,-0.286 -1.575,-0.286 -1.04,0 -1.566,0.43 -1.566,1.518 0,1.785 0.955,3.398 2.568,3.398 0.945,0 1.336,-0.487 1.336,-1.05 0,-0.973 -1.011,-1.547 -3.111,-1.632"
             style="fill:#231f20;fill-opacity:1;fill-rule:nonzero;stroke:none"
             id="path3028"
             inkscape:connector-curvature="0" />
        </g>
        <g
           id="g3030"
           transform="translate(358.8043,652.9153)">
          <path
             d="M 0,0 H -0.716 L 0.505,6.442 H 1.222 Z"
             style="fill:#231f20;fill-opacity:1;fill-rule:nonzero;stroke:none"
             id="path3032"
             inkscape:connector-curvature="0" />
        </g>
        <g
           id="g3034"
           transform="translate(364.2452,652.9153)">
          <path
             d="m 0,0 h -0.706 l 0.591,3.054 c 0.153,0.811 0,1.175 -0.467,1.175 -0.974,0 -2.004,-2.015 -2.224,-3.217 L -2.997,0 h -0.697 l 0.898,4.744 H -2.09 C -2.147,4.42 -2.291,3.837 -2.653,2.72 l 0.019,-0.009 c 0.449,1.069 1.241,2.128 2.262,2.128 0.868,0 1.174,-0.61 0.983,-1.622 z"
             style="fill:#231f20;fill-opacity:1;fill-rule:nonzero;stroke:none"
             id="path3036"
             inkscape:connector-curvature="0" />
        </g>
        <g
           id="g3038"
           transform="translate(368.9242,657.0959)">
          <path
             d="m 0,0 h -1.355 l -0.497,-2.615 c -0.152,-0.792 -0.047,-1.012 0.459,-1.012 0.277,0 0.487,0.029 0.678,0.077 l -0.029,-0.611 c -0.268,-0.058 -0.582,-0.096 -0.859,-0.096 -0.945,0 -1.184,0.459 -0.983,1.509 L -2.061,0 h -1.022 l 0.115,0.563 h 1.021 l 0.296,1.575 0.745,0.172 -0.345,-1.747 h 1.366 z"
             style="fill:#231f20;fill-opacity:1;fill-rule:nonzero;stroke:none"
             id="path3040"
             inkscape:connector-curvature="0" />
        </g>
        <g
           id="g3042"
           transform="translate(371.8557,657.1914)">
          <path
             d="m 0,0 c -0.802,0 -1.355,-0.697 -1.584,-1.565 1.603,0.066 2.281,0.381 2.281,0.983 C 0.697,-0.201 0.42,0 0,0 m -1.689,-2.128 c -0.029,-0.153 -0.058,-0.43 -0.058,-0.62 0,-0.812 0.287,-1.022 1.088,-1.022 0.449,0 0.917,0.105 1.318,0.287 v -0.593 c -0.43,-0.181 -0.964,-0.286 -1.575,-0.286 -1.04,0 -1.566,0.43 -1.566,1.518 0,1.785 0.955,3.398 2.568,3.398 0.945,0 1.336,-0.487 1.336,-1.05 0,-0.973 -1.011,-1.547 -3.111,-1.632"
             style="fill:#231f20;fill-opacity:1;fill-rule:nonzero;stroke:none"
             id="path3044"
             inkscape:connector-curvature="0" />
        </g>
        <g
           id="g3046"
           transform="translate(377.0111,657.0479)">
          <path
             d="m 0,0 c -0.945,0.249 -1.918,-1.842 -2.138,-3.045 l -0.21,-1.088 h -0.697 l 0.898,4.744 h 0.697 c -0.077,-0.429 -0.22,-0.964 -0.525,-1.88 h 0.019 c 0.554,1.203 1.145,2.128 2.09,1.966 z"
             style="fill:#231f20;fill-opacity:1;fill-rule:nonzero;stroke:none"
             id="path3048"
             inkscape:connector-curvature="0" />
        </g>
        <g
           id="g3050"
           transform="translate(381.0404,652.9153)">
          <path
             d="m 0,0 h -0.707 l 0.592,3.054 c 0.153,0.811 0,1.175 -0.467,1.175 -0.974,0 -2.004,-2.015 -2.224,-3.217 L -2.997,0 h -0.697 l 0.898,4.744 H -2.09 C -2.148,4.42 -2.291,3.837 -2.653,2.72 l 0.019,-0.009 c 0.448,1.069 1.241,2.128 2.262,2.128 0.868,0 1.174,-0.61 0.983,-1.622 z"
             style="fill:#231f20;fill-opacity:1;fill-rule:nonzero;stroke:none"
             id="path3052"
             inkscape:connector-curvature="0" />
        </g>
        <g
           id="g3054"
           transform="translate(385.2415,657.1914)">
          <path
             d="m 0,0 c -0.801,0 -1.355,-0.697 -1.584,-1.565 1.603,0.066 2.281,0.381 2.281,0.983 C 0.697,-0.201 0.421,0 0,0 m -1.689,-2.128 c -0.029,-0.153 -0.058,-0.43 -0.058,-0.62 0,-0.812 0.287,-1.022 1.088,-1.022 0.449,0 0.917,0.105 1.318,0.287 v -0.593 c -0.43,-0.181 -0.964,-0.286 -1.575,-0.286 -1.04,0 -1.566,0.43 -1.566,1.518 0,1.785 0.955,3.398 2.568,3.398 0.945,0 1.336,-0.487 1.336,-1.05 0,-0.973 -1.011,-1.547 -3.111,-1.632"
             style="fill:#231f20;fill-opacity:1;fill-rule:nonzero;stroke:none"
             id="path3056"
             inkscape:connector-curvature="0" />
        </g>
        <g
           id="g3058"
           transform="translate(390.3877,657.0959)">
          <path
             d="m 0,0 h -1.355 l -0.497,-2.615 c -0.152,-0.792 -0.047,-1.012 0.459,-1.012 0.277,0 0.487,0.029 0.678,0.077 l -0.029,-0.611 c -0.268,-0.058 -0.582,-0.096 -0.859,-0.096 -0.945,0 -1.184,0.459 -0.983,1.509 L -2.061,0 h -1.022 l 0.115,0.563 h 1.021 l 0.296,1.575 0.745,0.172 -0.345,-1.747 h 1.366 z"
             style="fill:#231f20;fill-opacity:1;fill-rule:nonzero;stroke:none"
             id="path3060"
             inkscape:connector-curvature="0" />
        </g>
      </g>
    </g>
  </g>
</svg>
