<?xml version="1.0" encoding="UTF-8" standalone="no"?>
<!-- Generator: Adobe Illustrator 25.4.1, SVG Export Plug-In . SVG Version: 6.00 Build 0)  -->

<svg
   version="1.1"
   id="Layer_2_00000077323985072837833550000003441549804810152848_"
   x="0px"
   y="0px"
   viewBox="0 0 378.60001 35.800001"
   width="378.60001"
   height="35.799999"
   xml:space="preserve"
   sodipodi:docname="David Geffen School of Medicine logo.svg"
   inkscape:version="1.1 (c68e22c387, 2021-05-23)"
   xmlns:inkscape="http://www.inkscape.org/namespaces/inkscape"
   xmlns:sodipodi="http://sodipodi.sourceforge.net/DTD/sodipodi-0.dtd"
   xmlns="http://www.w3.org/2000/svg"
   xmlns:svg="http://www.w3.org/2000/svg"><defs
   id="defs268" /><sodipodi:namedview
   id="namedview266"
   pagecolor="#ffffff"
   bordercolor="#999999"
   borderopacity="1"
   inkscape:pageshadow="0"
   inkscape:pageopacity="0"
   inkscape:pagecheckerboard="0"
   showgrid="false"
   inkscape:zoom="2.1088497"
   inkscape:cx="315.10069"
   inkscape:cy="75.159458"
   inkscape:window-width="1920"
   inkscape:window-height="1017"
   inkscape:window-x="-8"
   inkscape:window-y="-8"
   inkscape:window-maximized="1"
   inkscape:current-layer="Layer_2_00000077323985072837833550000003441549804810152848_" />
<style
   type="text/css"
   id="style183">
	.st0{fill:#2774AE;}
	.st1{fill:#FFFFFF;}
</style>
<g
   id="g263"
   transform="translate(0,-0.60000002)">
	<g
   id="g205">
		<rect
   y="0.60000002"
   class="st0"
   width="76.300003"
   height="35.799999"
   id="rect185"
   x="0" />
		<g
   id="g203">
			<g
   id="g189">
				<path
   class="st1"
   d="m 12.2,22 c -0.1,-0.6 0,-1.4 0,-1.8 l 0.9,-9.8 h 3.2 l -0.9,9.9 c -0.2,2.1 0.6,3.6 2.8,3.6 2.2,0 3.3,-1.5 3.5,-3.4 l 0.9,-10.1 h 3.2 l -0.9,9.9 c -0.4,3.8 -2.9,6.7 -7,6.7 -3.2,0 -5.3,-2 -5.7,-5"
   id="path187" />
			</g>
			<g
   id="g193">
				<path
   class="st1"
   d="m 26.5,18.7 c 0.4,-4.7 3.6,-8.6 9,-8.6 1.4,0 2.8,0.3 4.2,1.2 l -0.4,3.9 c -1.3,-1.7 -2.8,-1.9 -4.1,-1.9 -3.4,0 -5.3,2.4 -5.5,5.4 -0.3,2.9 1.2,5.3 4.5,5.3 1.4,0 3,-0.4 4.6,-2 l -0.3,4 C 37,26.8 35.5,27.2 34,27.2 28.6,27.1 26.1,23 26.5,18.7"
   id="path191" />
			</g>
			<g
   id="g197">
				<path
   class="st1"
   d="m 42.3,10.4 h 3.2 l -1.2,13.3 h 4.6 c 0.3,0 1.4,0 1.7,0 0,0.2 -0.3,3.1 -0.3,3.1 h -9.5 z"
   id="path195" />
			</g>
			<g
   id="g201">
				<path
   class="st1"
   d="M 58.9,16.5 C 59,16.3 59.1,16 59.1,15.8 v 0 c 0,0.2 0,0.5 0.1,0.7 0.2,0.7 1.4,4.9 1.4,4.9 h -4 c 0.1,0 2.2,-4.8 2.3,-4.9 m 0.8,-6.8 h -0.2 l -8.7,17 h 3.4 l 1.2,-2.6 h 6.2 l 0.8,2.6 h 3.4 z"
   id="path199" />
			</g>
		</g>
	</g>
	<g
   id="g261">
		<path
   d="m 91.9,12.1 c 0.9,0 1.7,0.1 2.4,0.4 0.7,0.3 1.4,0.7 1.9,1.2 0.5,0.5 1,1.2 1.3,2.1 0.3,0.8 0.5,1.8 0.5,2.9 0,1 -0.1,1.9 -0.4,2.7 -0.2,0.8 -0.6,1.5 -1.2,2.2 -0.5,0.6 -1.2,1.1 -1.9,1.4 -0.7,0.3 -1.7,0.5 -2.7,0.5 H 86 V 12.1 Z m -0.2,11 c 0.4,0 0.8,-0.1 1.2,-0.2 0.4,-0.1 0.8,-0.4 1.1,-0.7 0.3,-0.3 0.6,-0.7 0.8,-1.3 0.2,-0.6 0.3,-1.1 0.3,-1.9 0,-0.7 -0.1,-1.3 -0.2,-1.9 -0.1,-0.6 -0.3,-1 -0.7,-1.4 C 93.8,15.3 93.5,15 93,14.8 92.5,14.6 91.9,14.5 91.2,14.5 H 89.1 V 23 c 0,0.1 2.6,0.1 2.6,0.1 z"
   id="path207" />
		<path
   d="m 99.8,18.9 c 0,-0.6 0.2,-1.1 0.5,-1.6 0.3,-0.4 0.6,-0.8 1.1,-1 0.5,-0.2 0.9,-0.4 1.4,-0.5 0.5,-0.1 1.1,-0.2 1.6,-0.2 0.5,0 1,0 1.5,0.1 0.5,0.1 1,0.2 1.4,0.4 0.4,0.2 0.8,0.5 1,0.8 0.3,0.4 0.4,0.8 0.4,1.4 v 5.1 c 0,0.4 0,0.9 0.1,1.3 0.1,0.4 0.1,0.7 0.3,0.9 h -2.7 c -0.1,-0.1 -0.1,-0.3 -0.1,-0.5 0,-0.2 -0.1,-0.3 -0.1,-0.5 -0.4,0.4 -0.9,0.8 -1.5,0.9 -0.6,0.1 -1.2,0.3 -1.8,0.3 -0.5,0 -0.9,-0.1 -1.3,-0.2 -0.4,-0.1 -0.8,-0.3 -1.1,-0.5 -0.3,-0.2 -0.5,-0.5 -0.7,-0.9 -0.2,-0.4 -0.3,-0.8 -0.3,-1.3 0,-0.5 0.1,-1 0.3,-1.4 0.2,-0.4 0.4,-0.6 0.8,-0.9 0.3,-0.2 0.7,-0.4 1.1,-0.5 0.4,-0.1 0.8,-0.2 1.2,-0.3 0.4,-0.1 0.8,-0.1 1.2,-0.1 0.4,0 0.7,-0.1 1,-0.2 0.3,-0.1 0.5,-0.2 0.7,-0.3 0.2,-0.1 0.3,-0.4 0.2,-0.6 0,-0.3 -0.1,-0.5 -0.1,-0.7 0,-0.2 -0.2,-0.3 -0.4,-0.4 -0.2,-0.1 -0.3,-0.2 -0.6,-0.2 -0.2,0 -0.4,0 -0.7,0 -0.5,0 -0.9,0.1 -1.2,0.3 -0.3,0.2 -0.5,0.6 -0.5,1.1 z m 6.2,1.9 c -0.1,0.1 -0.3,0.2 -0.4,0.2 -0.1,0 -0.3,0.1 -0.6,0.1 -0.2,0 -0.4,0.1 -0.6,0.1 -0.2,0 -0.4,0.1 -0.6,0.1 -0.2,0 -0.4,0.1 -0.6,0.1 -0.2,0 -0.4,0.1 -0.5,0.3 -0.2,0.1 -0.3,0.2 -0.3,0.4 -0.1,0.2 -0.1,0.4 -0.1,0.6 0,0.2 0,0.4 0.1,0.6 0.1,0.2 0.2,0.3 0.4,0.4 0.2,0.1 0.3,0.2 0.5,0.2 0.2,0 0.4,0.1 0.6,0.1 0.5,0 0.9,-0.1 1.2,-0.3 0.3,-0.2 0.5,-0.4 0.6,-0.6 0.1,-0.2 0.2,-0.5 0.3,-0.8 0,-0.2 0.1,-0.5 0.1,-0.6 -0.1,0.1 -0.1,-0.9 -0.1,-0.9 z"
   id="path209" />
		<path
   d="m 113.2,25.6 -3.3,-9.8 h 2.8 l 2.1,6.7 v 0 l 2.1,-6.7 h 2.7 l -3.3,9.8 c -0.2,0 -3.1,0 -3.1,0 z"
   id="path211" />
		<path
   d="m 120.6,14.3 v -2.2 h 2.7 v 2.2 z m 2.7,1.6 v 9.8 h -2.7 v -9.8 c 0,0 2.7,0 2.7,0 z"
   id="path213" />
		<path
   d="m 132.4,24.4 c -0.3,0.5 -0.7,0.9 -1.2,1.1 -0.5,0.2 -1.1,0.4 -1.7,0.4 -0.7,0 -1.4,-0.1 -1.9,-0.4 -0.6,-0.3 -1,-0.7 -1.4,-1.1 -0.4,-0.5 -0.6,-1 -0.8,-1.7 -0.2,-0.7 -0.3,-1.3 -0.3,-2 0,-0.7 0.1,-1.3 0.3,-1.9 0.2,-0.6 0.4,-1.1 0.8,-1.6 0.4,-0.5 0.8,-0.8 1.3,-1.1 0.5,-0.3 1.2,-0.4 1.9,-0.4 0.6,0 1.1,0.1 1.7,0.4 0.5,0.3 0.9,0.6 1.2,1.1 v 0 -4.9 h 2.7 v 13.5 h -2.6 z m -0.1,-4.9 c -0.1,-0.4 -0.2,-0.7 -0.4,-1 -0.2,-0.3 -0.4,-0.5 -0.7,-0.7 -0.3,-0.2 -0.7,-0.3 -1.1,-0.3 -0.4,0 -0.8,0.1 -1.1,0.3 -0.3,0.2 -0.6,0.4 -0.7,0.7 -0.1,0.3 -0.3,0.6 -0.4,1 -0.1,0.4 -0.1,0.8 -0.1,1.2 0,0.4 0,0.8 0.1,1.1 0.1,0.4 0.2,0.7 0.4,1 0.2,0.3 0.4,0.5 0.7,0.7 0.3,0.2 0.6,0.3 1.1,0.3 0.4,0 0.8,-0.1 1.1,-0.3 0.3,-0.2 0.5,-0.4 0.7,-0.7 0.2,-0.3 0.3,-0.6 0.4,-1 0.1,-0.4 0.1,-0.8 0.1,-1.2 0,-0.4 0,-0.7 -0.1,-1.1 z"
   id="path215" />
		<path
   d="m 150.6,25.5 c -0.6,0.3 -1.3,0.4 -1.9,0.4 -1,0 -2,-0.2 -2.8,-0.5 -0.8,-0.4 -1.5,-0.9 -2.1,-1.5 -0.6,-0.6 -1,-1.4 -1.3,-2.2 -0.3,-0.8 -0.4,-1.8 -0.4,-2.8 0,-1 0.1,-2 0.4,-2.8 0.3,-0.9 0.7,-1.6 1.3,-2.3 0.6,-0.7 1.3,-1.1 2.1,-1.5 0.8,-0.4 1.8,-0.6 2.8,-0.6 0.7,0 1.4,0.1 2,0.3 0.6,0.2 1.2,0.5 1.8,0.9 0.5,0.4 1,0.9 1.3,1.5 0.3,0.6 0.6,1.3 0.6,2 h -2.8 c -0.2,-0.8 -0.5,-1.3 -1,-1.7 -0.5,-0.4 -1.1,-0.6 -1.8,-0.6 -0.7,0 -1.2,0.1 -1.7,0.4 -0.5,0.3 -0.9,0.6 -1.1,1 -0.3,0.4 -0.5,0.9 -0.6,1.5 -0.1,0.6 -0.2,1.1 -0.2,1.7 0,0.6 0.1,1.1 0.2,1.7 0.1,0.5 0.3,1 0.6,1.5 0.3,0.4 0.7,0.8 1.1,1 0.4,0.2 1,0.4 1.7,0.4 1,0 1.7,-0.2 2.3,-0.8 0.6,-0.6 0.9,-1.2 0.9,-2.2 h -3 v -2.2 h 5.7 v 7.3 h -1.9 l -0.3,-1.5 c -0.7,0.9 -1.3,1.3 -1.9,1.6 z"
   id="path217" />
		<path
   d="m 159.5,23.3 c 0.4,0.4 1,0.6 1.7,0.6 0.5,0 1,-0.1 1.4,-0.4 0.4,-0.3 0.6,-0.6 0.7,-0.9 h 2.4 c -0.4,1.2 -1,2 -1.7,2.5 -0.8,0.5 -1.7,0.8 -2.8,0.8 -0.8,0 -1.5,-0.1 -2.1,-0.4 -0.6,-0.3 -1.1,-0.6 -1.6,-1 -0.4,-0.5 -0.8,-1 -1,-1.6 -0.2,-0.6 -0.4,-1.3 -0.4,-2.1 0,-0.7 0.1,-1.4 0.4,-2 0.3,-0.6 0.6,-1.2 1,-1.6 0.4,-0.4 1,-0.8 1.6,-1.1 0.6,-0.3 1.3,-0.4 2,-0.4 0.8,0 1.6,0.2 2.2,0.5 0.6,0.3 1.1,0.8 1.5,1.3 0.4,0.5 0.7,1.2 0.9,1.9 0.2,0.7 0.2,1.4 0.2,2.2 h -7.1 c 0.1,0.7 0.3,1.3 0.7,1.7 z m 3.1,-5.2 c -0.3,-0.4 -0.8,-0.5 -1.5,-0.5 -0.4,0 -0.8,0.1 -1.1,0.2 -0.3,0.1 -0.5,0.3 -0.7,0.5 -0.2,0.2 -0.3,0.4 -0.4,0.7 -0.1,0.3 -0.1,0.5 -0.1,0.6 h 4.4 c -0.1,-0.6 -0.3,-1.1 -0.6,-1.5 z"
   id="path219" />
		<path
   d="m 166.5,17.6 v -1.8 h 1.6 V 15 c 0,-0.9 0.3,-1.6 0.8,-2.1 0.5,-0.5 1.4,-0.8 2.5,-0.8 0.2,0 0.5,0 0.7,0 0.2,0 0.5,0 0.7,0.1 v 2 c -0.3,0 -0.6,-0.1 -1,-0.1 -0.4,0 -0.6,0.1 -0.8,0.3 -0.2,0.2 -0.2,0.5 -0.2,0.9 v 0.6 h 1.9 v 1.8 h -1.9 v 8 h -2.7 v -8 z"
   id="path221" />
		<path
   d="M 172.4,17.6 V 15.8 H 174 V 15 c 0,-0.9 0.3,-1.6 0.8,-2.1 0.5,-0.5 1.4,-0.8 2.5,-0.8 0.2,0 0.5,0 0.7,0 0.2,0 0.5,0 0.7,0.1 v 2 c -0.3,0 -0.6,-0.1 -1,-0.1 -0.4,0 -0.6,0.1 -0.8,0.3 -0.2,0.2 -0.2,0.5 -0.2,0.9 v 0.6 h 1.9 v 1.8 h -1.9 v 8 H 174 v -8 z"
   id="path223" />
		<path
   d="m 182.6,23.3 c 0.4,0.4 1,0.6 1.7,0.6 0.5,0 1,-0.1 1.4,-0.4 0.4,-0.3 0.6,-0.6 0.7,-0.9 h 2.4 c -0.4,1.2 -1,2 -1.7,2.5 -0.8,0.5 -1.7,0.8 -2.8,0.8 -0.8,0 -1.5,-0.1 -2.1,-0.4 -0.6,-0.3 -1.1,-0.6 -1.6,-1 -0.4,-0.5 -0.8,-1 -1,-1.6 -0.2,-0.6 -0.4,-1.3 -0.4,-2.1 0,-0.7 0.1,-1.4 0.4,-2 0.3,-0.6 0.6,-1.2 1,-1.6 0.4,-0.4 1,-0.8 1.6,-1.1 0.6,-0.3 1.3,-0.4 2,-0.4 0.8,0 1.6,0.2 2.2,0.5 0.6,0.3 1.1,0.8 1.5,1.3 0.4,0.5 0.7,1.2 0.9,1.9 0.2,0.7 0.2,1.4 0.2,2.2 h -7 c 0,0.7 0.2,1.3 0.6,1.7 z m 3.1,-5.2 c -0.3,-0.4 -0.8,-0.5 -1.5,-0.5 -0.4,0 -0.8,0.1 -1.1,0.2 -0.3,0.1 -0.5,0.3 -0.7,0.5 -0.2,0.2 -0.3,0.4 -0.4,0.7 -0.1,0.3 -0.1,0.5 -0.1,0.6 h 4.4 C 186.2,19 186,18.5 185.7,18.1 Z"
   id="path225" />
		<path
   d="m 193.2,15.9 v 1.4 h 0.1 c 0.3,-0.6 0.8,-1 1.3,-1.2 0.5,-0.3 1.1,-0.4 1.7,-0.4 0.7,0 1.3,0.1 1.8,0.3 0.5,0.2 0.8,0.5 1.1,0.8 0.3,0.4 0.4,0.8 0.6,1.3 0.2,0.5 0.2,1 0.2,1.7 v 6 h -2.7 v -5.5 c 0,-0.8 -0.1,-1.4 -0.4,-1.8 -0.3,-0.4 -0.7,-0.6 -1.3,-0.6 -0.7,0 -1.3,0.2 -1.6,0.6 -0.3,0.4 -0.5,1.1 -0.5,2.1 v 5.1 h -2.7 v -9.8 z"
   id="path227" />
		<path
   d="m 209.7,22.3 c 0.2,0.3 0.4,0.6 0.6,0.8 0.3,0.2 0.6,0.3 1,0.4 0.4,0.1 0.7,0.1 1.1,0.1 0.3,0 0.6,0 0.9,-0.1 0.3,0 0.6,-0.1 0.9,-0.3 0.3,-0.2 0.5,-0.3 0.7,-0.5 0.2,-0.2 0.3,-0.5 0.3,-0.8 0,-0.4 -0.1,-0.7 -0.4,-0.9 -0.3,-0.2 -0.5,-0.4 -0.9,-0.6 -0.4,-0.2 -0.8,-0.3 -1.3,-0.4 -0.5,-0.1 -1,-0.2 -1.5,-0.4 -0.5,-0.1 -1,-0.3 -1.5,-0.5 -0.5,-0.2 -0.9,-0.4 -1.3,-0.7 -0.4,-0.3 -0.7,-0.6 -0.9,-1.1 -0.2,-0.4 -0.4,-1 -0.4,-1.6 0,-0.7 0.1,-1.3 0.4,-1.8 0.3,-0.5 0.7,-0.9 1.2,-1.3 0.5,-0.3 1,-0.6 1.6,-0.8 0.6,-0.2 1.2,-0.2 1.8,-0.2 0.7,0 1.4,0.1 2,0.2 0.6,0.1 1.2,0.4 1.7,0.8 0.5,0.4 0.9,0.8 1.2,1.4 0.3,0.6 0.4,1.2 0.4,2 h -2.9 c 0,-0.4 -0.1,-0.7 -0.3,-1 -0.2,-0.3 -0.3,-0.5 -0.6,-0.6 -0.3,-0.1 -0.5,-0.3 -0.8,-0.3 -0.3,-0.1 -0.6,-0.1 -1,-0.1 -0.2,0 -0.5,0 -0.7,0.1 -0.2,0.1 -0.5,0.1 -0.6,0.3 -0.2,0.1 -0.4,0.3 -0.5,0.5 -0.1,0.2 -0.2,0.4 -0.2,0.7 0,0.3 0.1,0.5 0.1,0.6 0.1,0.2 0.3,0.3 0.6,0.5 0.3,0.1 0.7,0.3 1.2,0.4 0.5,0.1 1.2,0.3 2.1,0.5 0.2,0 0.6,0.1 1.1,0.3 0.4,0.1 0.9,0.3 1.3,0.6 0.4,0.3 0.8,0.7 1.1,1.2 0.3,0.5 0.5,1.1 0.5,1.9 0,0.6 -0.1,1.2 -0.4,1.7 -0.2,0.5 -0.6,1 -1.1,1.4 -0.5,0.4 -1.1,0.7 -1.8,0.9 -0.7,0.2 -1.5,0.3 -2.4,0.3 -0.7,0 -1.5,-0.1 -2.2,-0.3 -0.7,-0.2 -1.3,-0.5 -1.9,-0.9 -0.6,-0.4 -1,-0.9 -1.3,-1.5 -0.3,-0.6 -0.5,-1.3 -0.4,-2.2 h 2.9 c 0.3,0.6 0.4,1 0.6,1.3 z"
   id="path229" />
		<path
   d="m 224.1,17.6 c -0.4,0 -0.8,0.1 -1.1,0.3 -0.3,0.2 -0.5,0.5 -0.7,0.8 -0.2,0.3 -0.3,0.6 -0.4,1 -0.1,0.4 -0.1,0.7 -0.1,1.1 0,0.4 0,0.7 0.1,1.1 0.1,0.4 0.2,0.7 0.4,1 0.2,0.3 0.4,0.5 0.7,0.7 0.3,0.2 0.6,0.3 1.1,0.3 0.6,0 1.1,-0.2 1.5,-0.5 0.4,-0.3 0.6,-0.8 0.6,-1.5 h 2.6 c -0.2,1.3 -0.7,2.3 -1.5,3 -0.8,0.7 -1.9,1 -3.2,1 -0.7,0 -1.4,-0.1 -2,-0.4 -0.6,-0.3 -1.1,-0.6 -1.6,-1 -0.5,-0.4 -0.8,-1 -1,-1.6 -0.2,-0.6 -0.4,-1.3 -0.4,-2 0,-0.8 0.1,-1.5 0.3,-2.1 0.2,-0.6 0.6,-1.2 1,-1.7 0.4,-0.5 0.9,-0.8 1.6,-1.1 0.6,-0.3 1.3,-0.4 2.1,-0.4 0.6,0 1.1,0.1 1.7,0.2 0.6,0.1 1,0.4 1.4,0.7 0.4,0.3 0.8,0.7 1,1.1 0.2,0.4 0.4,1 0.4,1.6 H 226 c -0.1,-1 -0.8,-1.6 -1.9,-1.6 z"
   id="path231" />
		<path
   d="m 232.9,12.1 v 5.1 h 0.1 c 0.3,-0.6 0.8,-1 1.3,-1.2 0.5,-0.2 1.1,-0.4 1.6,-0.4 0.7,0 1.3,0.1 1.8,0.3 0.5,0.2 0.8,0.5 1.1,0.8 0.3,0.4 0.4,0.8 0.6,1.3 0.2,0.5 0.2,1 0.2,1.7 v 6 h -2.7 v -5.5 c 0,-0.8 -0.1,-1.4 -0.4,-1.8 -0.3,-0.4 -0.7,-0.6 -1.3,-0.6 -0.7,0 -1.3,0.2 -1.6,0.6 -0.3,0.4 -0.5,1.1 -0.5,2.1 v 5.1 h -2.7 V 12.1 Z"
   id="path233" />
		<path
   d="m 241.5,18.6 c 0.2,-0.6 0.6,-1.2 1,-1.6 0.4,-0.4 1,-0.8 1.6,-1 0.6,-0.2 1.3,-0.4 2.1,-0.4 0.8,0 1.5,0.1 2.1,0.4 0.6,0.2 1.2,0.6 1.6,1 0.4,0.4 0.8,1 1,1.6 0.2,0.6 0.4,1.4 0.4,2.1 0,0.7 -0.1,1.5 -0.4,2.1 -0.3,0.6 -0.6,1.2 -1,1.6 -0.4,0.4 -1,0.8 -1.6,1 -0.6,0.2 -1.3,0.4 -2.1,0.4 -0.8,0 -1.5,-0.1 -2.1,-0.4 -0.6,-0.3 -1.1,-0.6 -1.6,-1 -0.5,-0.4 -0.8,-1 -1,-1.6 -0.2,-0.6 -0.4,-1.3 -0.4,-2.1 0,-0.8 0.2,-1.4 0.4,-2.1 z m 2.5,3.3 c 0.1,0.4 0.2,0.7 0.4,1 0.2,0.3 0.4,0.5 0.7,0.7 0.3,0.2 0.7,0.3 1.1,0.3 0.4,0 0.8,-0.1 1.1,-0.3 0.3,-0.2 0.6,-0.4 0.7,-0.7 0.1,-0.3 0.3,-0.6 0.4,-1 0.1,-0.4 0.1,-0.8 0.1,-1.1 0,-0.4 0,-0.8 -0.1,-1.1 -0.1,-0.4 -0.2,-0.7 -0.4,-1 -0.2,-0.3 -0.4,-0.5 -0.7,-0.7 -0.3,-0.2 -0.7,-0.3 -1.1,-0.3 -0.4,0 -0.8,0.1 -1.1,0.3 -0.3,0.2 -0.6,0.4 -0.7,0.7 -0.2,0.3 -0.3,0.6 -0.4,1 -0.1,0.4 -0.1,0.8 -0.1,1.1 0,0.3 0,0.7 0.1,1.1 z"
   id="path235" />
		<path
   d="m 253.1,18.6 c 0.2,-0.6 0.6,-1.2 1,-1.6 0.4,-0.4 1,-0.8 1.6,-1 0.6,-0.2 1.3,-0.4 2.1,-0.4 0.8,0 1.5,0.1 2.1,0.4 0.6,0.2 1.2,0.6 1.6,1 0.4,0.4 0.8,1 1,1.6 0.2,0.6 0.4,1.4 0.4,2.1 0,0.7 -0.1,1.5 -0.4,2.1 -0.3,0.6 -0.6,1.2 -1,1.6 -0.4,0.4 -1,0.8 -1.6,1 -0.6,0.2 -1.3,0.4 -2.1,0.4 -0.8,0 -1.5,-0.1 -2.1,-0.4 -0.6,-0.2 -1.1,-0.6 -1.6,-1 -0.5,-0.4 -0.8,-1 -1,-1.6 -0.2,-0.6 -0.4,-1.3 -0.4,-2.1 0,-0.8 0.1,-1.4 0.4,-2.1 z m 2.4,3.3 c 0.1,0.4 0.2,0.7 0.4,1 0.2,0.3 0.4,0.5 0.7,0.7 0.3,0.2 0.7,0.3 1.1,0.3 0.4,0 0.8,-0.1 1.1,-0.3 0.3,-0.2 0.5,-0.4 0.7,-0.7 0.2,-0.3 0.3,-0.6 0.4,-1 0.1,-0.4 0.1,-0.8 0.1,-1.1 0,-0.4 0,-0.8 -0.1,-1.1 -0.1,-0.4 -0.2,-0.7 -0.4,-1 -0.2,-0.3 -0.4,-0.5 -0.7,-0.7 -0.3,-0.2 -0.7,-0.3 -1.1,-0.3 -0.4,0 -0.8,0.1 -1.1,0.3 -0.3,0.2 -0.5,0.4 -0.7,0.7 -0.2,0.3 -0.3,0.6 -0.4,1 -0.1,0.4 -0.1,0.8 -0.1,1.1 0,0.3 0,0.7 0.1,1.1 z"
   id="path237" />
		<path
   d="m 267.4,12.1 v 13.5 h -2.7 V 12.1 Z"
   id="path239" />
		<path
   d="m 274.8,18.6 c 0.2,-0.6 0.6,-1.2 1,-1.6 0.4,-0.4 1,-0.8 1.6,-1 0.6,-0.2 1.3,-0.4 2.1,-0.4 0.8,0 1.5,0.1 2.1,0.4 0.6,0.2 1.2,0.6 1.6,1 0.4,0.4 0.8,1 1,1.6 0.2,0.6 0.4,1.4 0.4,2.1 0,0.7 -0.1,1.5 -0.4,2.1 -0.3,0.6 -0.6,1.2 -1,1.6 -0.4,0.4 -1,0.8 -1.6,1 -0.6,0.2 -1.3,0.4 -2.1,0.4 -0.8,0 -1.5,-0.1 -2.1,-0.4 -0.6,-0.3 -1.1,-0.6 -1.6,-1 -0.5,-0.4 -0.8,-1 -1,-1.6 -0.2,-0.6 -0.4,-1.3 -0.4,-2.1 0,-0.8 0.1,-1.4 0.4,-2.1 z m 2.4,3.3 c 0.1,0.4 0.2,0.7 0.4,1 0.2,0.3 0.4,0.5 0.7,0.7 0.3,0.2 0.7,0.3 1.1,0.3 0.4,0 0.8,-0.1 1.1,-0.3 0.3,-0.2 0.5,-0.4 0.7,-0.7 0.2,-0.3 0.3,-0.6 0.4,-1 0.1,-0.4 0.1,-0.8 0.1,-1.1 0,-0.4 0,-0.8 -0.1,-1.1 -0.1,-0.4 -0.2,-0.7 -0.4,-1 -0.2,-0.3 -0.4,-0.5 -0.7,-0.7 -0.3,-0.2 -0.7,-0.3 -1.1,-0.3 -0.4,0 -0.8,0.1 -1.1,0.3 -0.3,0.2 -0.5,0.4 -0.7,0.7 -0.2,0.3 -0.3,0.6 -0.4,1 -0.1,0.4 -0.1,0.8 -0.1,1.1 0,0.3 0.1,0.7 0.1,1.1 z"
   id="path241" />
		<path
   d="m 285.3,17.6 v -1.8 h 1.6 V 15 c 0,-0.9 0.3,-1.6 0.8,-2.1 0.5,-0.5 1.4,-0.8 2.5,-0.8 0.2,0 0.5,0 0.7,0 0.2,0 0.5,0 0.7,0.1 v 2 c -0.3,0 -0.6,-0.1 -1,-0.1 -0.4,0 -0.6,0.1 -0.8,0.3 -0.2,0.2 -0.2,0.5 -0.2,0.9 v 0.6 h 1.9 v 1.8 h -1.9 v 8 h -2.7 v -8 z"
   id="path243" />
		<path
   d="m 302.3,12.1 3.2,9.3 v 0 l 3,-9.3 h 4.2 v 13.5 h -2.8 V 16 16 l -3.3,9.6 h -2.3 L 301,16.1 v 0 9.5 h -2.8 V 12.1 Z"
   id="path245" />
		<path
   d="m 317.9,23.3 c 0.4,0.4 1,0.6 1.7,0.6 0.5,0 1,-0.1 1.4,-0.4 0.4,-0.3 0.6,-0.6 0.7,-0.9 h 2.4 c -0.4,1.2 -1,2 -1.7,2.5 -0.7,0.5 -1.7,0.8 -2.8,0.8 -0.8,0 -1.5,-0.1 -2.1,-0.4 -0.6,-0.3 -1.1,-0.6 -1.6,-1 -0.4,-0.5 -0.8,-1 -1,-1.6 -0.2,-0.6 -0.4,-1.3 -0.4,-2.1 0,-0.7 0.1,-1.4 0.4,-2 0.3,-0.6 0.6,-1.2 1,-1.6 0.4,-0.4 1,-0.8 1.6,-1.1 0.6,-0.3 1.3,-0.4 2,-0.4 0.8,0 1.6,0.2 2.2,0.5 0.6,0.3 1.1,0.8 1.5,1.3 0.4,0.5 0.7,1.2 0.9,1.9 0.2,0.7 0.2,1.4 0.2,2.2 h -7.1 c 0.1,0.7 0.3,1.3 0.7,1.7 z m 3,-5.2 c -0.3,-0.4 -0.8,-0.5 -1.5,-0.5 -0.4,0 -0.8,0.1 -1.1,0.2 -0.3,0.1 -0.5,0.3 -0.7,0.5 -0.2,0.2 -0.3,0.4 -0.4,0.7 -0.1,0.2 -0.1,0.5 -0.1,0.6 h 4.4 c 0,-0.6 -0.2,-1.1 -0.6,-1.5 z"
   id="path247" />
		<path
   d="m 332.8,24.4 c -0.3,0.5 -0.7,0.9 -1.2,1.1 -0.5,0.2 -1.1,0.4 -1.7,0.4 -0.7,0 -1.4,-0.1 -1.9,-0.4 -0.5,-0.3 -1,-0.7 -1.4,-1.1 -0.4,-0.4 -0.6,-1 -0.8,-1.7 -0.2,-0.7 -0.3,-1.3 -0.3,-2 0,-0.7 0.1,-1.3 0.3,-1.9 0.2,-0.6 0.5,-1.1 0.8,-1.6 0.3,-0.5 0.8,-0.8 1.4,-1.1 0.5,-0.3 1.2,-0.4 1.9,-0.4 0.6,0 1.1,0.1 1.7,0.4 0.5,0.3 0.9,0.6 1.2,1.1 v 0 -4.9 h 2.7 V 25.8 H 333 Z m -0.1,-4.9 c -0.1,-0.4 -0.2,-0.7 -0.4,-1 -0.2,-0.3 -0.4,-0.5 -0.7,-0.7 -0.3,-0.2 -0.7,-0.3 -1.1,-0.3 -0.4,0 -0.8,0.1 -1.1,0.3 -0.3,0.2 -0.5,0.4 -0.7,0.7 -0.2,0.3 -0.3,0.6 -0.4,1 -0.1,0.4 -0.1,0.8 -0.1,1.2 0,0.4 0,0.8 0.1,1.1 0.1,0.3 0.2,0.7 0.4,1 0.2,0.3 0.4,0.5 0.7,0.7 0.3,0.2 0.6,0.3 1.1,0.3 0.4,0 0.8,-0.1 1.1,-0.3 0.3,-0.2 0.5,-0.4 0.7,-0.7 0.2,-0.3 0.3,-0.6 0.4,-1 0.1,-0.4 0.1,-0.8 0.1,-1.2 0,-0.4 0,-0.7 -0.1,-1.1 z"
   id="path249" />
		<path
   d="m 337.5,14.3 v -2.2 h 2.7 v 2.2 z m 2.7,1.6 v 9.8 h -2.7 v -9.8 c 0,0 2.7,0 2.7,0 z"
   id="path251" />
		<path
   d="m 347,17.6 c -0.4,0 -0.8,0.1 -1.1,0.3 -0.3,0.2 -0.5,0.5 -0.7,0.8 -0.2,0.3 -0.3,0.6 -0.4,1 -0.1,0.4 -0.1,0.7 -0.1,1.1 0,0.4 0,0.7 0.1,1.1 0.1,0.4 0.2,0.7 0.4,1 0.2,0.3 0.4,0.5 0.7,0.7 0.3,0.2 0.6,0.3 1.1,0.3 0.6,0 1.1,-0.2 1.5,-0.5 0.4,-0.4 0.6,-0.8 0.6,-1.5 h 2.6 c -0.2,1.3 -0.7,2.3 -1.5,3 -0.8,0.7 -1.9,1 -3.2,1 -0.7,0 -1.4,-0.1 -2,-0.4 -0.6,-0.3 -1.1,-0.6 -1.6,-1 -0.5,-0.4 -0.8,-1 -1,-1.6 -0.2,-0.6 -0.4,-1.3 -0.4,-2 0,-0.8 0.1,-1.5 0.3,-2.1 0.2,-0.6 0.5,-1.2 1,-1.7 0.5,-0.5 1,-0.8 1.6,-1.1 0.6,-0.3 1.3,-0.4 2.1,-0.4 0.6,0 1.1,0.1 1.7,0.2 0.6,0.1 1,0.4 1.4,0.7 0.4,0.3 0.8,0.7 1,1.1 0.2,0.4 0.4,1 0.5,1.6 H 349 c -0.2,-1 -0.9,-1.6 -2,-1.6 z"
   id="path253" />
		<path
   d="m 353.3,14.3 v -2.2 h 2.7 v 2.2 z m 2.6,1.6 v 9.8 h -2.7 v -9.8 c 0.1,0 2.7,0 2.7,0 z"
   id="path255" />
		<path
   d="m 360.6,15.9 v 1.4 h 0.1 c 0.3,-0.6 0.8,-1 1.3,-1.2 0.5,-0.2 1.1,-0.4 1.7,-0.4 0.7,0 1.3,0.1 1.8,0.3 0.5,0.2 0.8,0.5 1.1,0.8 0.3,0.4 0.5,0.8 0.6,1.3 0.1,0.5 0.2,1 0.2,1.7 v 6 h -2.7 v -5.5 c 0,-0.8 -0.1,-1.4 -0.4,-1.8 -0.3,-0.4 -0.7,-0.6 -1.3,-0.6 -0.7,0 -1.3,0.2 -1.6,0.6 -0.3,0.4 -0.5,1.1 -0.5,2.1 v 5.1 h -2.7 v -9.8 z"
   id="path257" />
		<path
   d="m 372.2,23.3 c 0.4,0.4 1,0.6 1.7,0.6 0.5,0 1,-0.1 1.4,-0.4 0.4,-0.3 0.6,-0.6 0.7,-0.9 h 2.4 c -0.4,1.2 -1,2 -1.7,2.5 -0.7,0.5 -1.7,0.8 -2.8,0.8 -0.8,0 -1.5,-0.1 -2.1,-0.4 -0.6,-0.3 -1.1,-0.6 -1.6,-1 -0.4,-0.5 -0.8,-1 -1,-1.6 -0.2,-0.6 -0.4,-1.3 -0.4,-2.1 0,-0.7 0.1,-1.4 0.4,-2 0.3,-0.6 0.6,-1.2 1,-1.6 0.4,-0.4 1,-0.8 1.6,-1.1 0.6,-0.3 1.3,-0.4 2,-0.4 0.8,0 1.6,0.2 2.2,0.5 0.6,0.3 1.1,0.8 1.5,1.3 0.4,0.5 0.7,1.2 0.9,1.9 0.2,0.7 0.2,1.4 0.2,2.2 h -7.1 c 0,0.7 0.3,1.3 0.7,1.7 z m 3,-5.2 c -0.3,-0.4 -0.8,-0.5 -1.5,-0.5 -0.4,0 -0.8,0.1 -1.1,0.2 -0.3,0.1 -0.5,0.3 -0.7,0.5 -0.2,0.2 -0.3,0.4 -0.4,0.7 -0.1,0.2 -0.1,0.5 -0.1,0.6 h 4.4 c 0,-0.6 -0.3,-1.1 -0.6,-1.5 z"
   id="path259" />
	</g>
</g>
</svg>
