<?xml version="1.0" encoding="UTF-8"?>
<svg id="Layer_1" data-name="Layer 1" xmlns="http://www.w3.org/2000/svg" viewBox="0 0 266.3 75.45">
  <defs>
    <style>
      .cls-1 {
        fill: #2774ae;
      }

      .cls-2 {
        fill: #fff;
      }
    </style>
  </defs>
  <g>
    <rect class="cls-1" x="15.35" y="16.93" width="92.05" height="43.17"/>
    <g>
      <path class="cls-2" d="M30.07,42.67c-.09-.69-.05-1.69-.05-2.18l1.04-11.77h3.85l-1.06,11.87c-.23,2.57.78,4.4,3.35,4.4s4.01-1.86,4.24-4.14l1.09-12.13h3.85l-1.06,11.98c-.43,4.61-3.49,8.07-8.44,8.07-3.86,0-6.34-2.49-6.81-6.1"/>
      <path class="cls-2" d="M47.28,38.68c.5-5.65,4.31-10.33,10.9-10.33,1.73,0,3.4.4,5.06,1.46l-.44,4.67c-1.52-2-3.32-2.32-4.99-2.32-4.1,0-6.34,2.85-6.67,6.45-.31,3.51,1.5,6.36,5.47,6.36,1.73,0,3.57-.5,5.49-2.42l-.43,4.79c-1.87,1.02-3.62,1.48-5.37,1.48-6.52,0-9.5-4.84-9.03-10.13"/>
      <path class="cls-2" d="M66.31,28.72h3.84l-1.4,15.98h5.51c.39,0,1.7-.02,2.06-.04-.02.19-.35,3.69-.35,3.69h-11.39l1.74-19.63Z"/>
      <path class="cls-2" d="M86.33,36.05c.13-.28.24-.62.28-.82,0,0,.06,0,.06,0,.02.25.07.54.15.83.21.9,1.71,5.87,1.71,5.87h-4.85s2.6-5.74,2.65-5.87M87.31,27.82h-.27s-10.52,20.53-10.52,20.53h4.08l1.48-3.11h7.41l.92,3.11h4.07l-7.19-20.53Z"/>
    </g>
  </g>
  <g>
    <path d="M114.73,31.75v-1.29h2.35v1.12c0,1.3.6,1.81,1.67,1.81s1.56-.63,1.56-1.77v-9.28h2.62v9.3c0,2.21-1.28,3.87-3.96,3.87s-4.23-1.23-4.23-3.76Z"/>
    <path d="M124.14,30.65c0-2.77,1.97-4.9,4.85-4.9s4.85,2.14,4.85,4.9-1.97,4.9-4.85,4.9-4.85-2.14-4.85-4.9ZM131.34,30.65c0-1.81-.85-3.04-2.35-3.04s-2.35,1.23-2.35,3.04.83,3.02,2.35,3.02,2.35-1.21,2.35-3.02Z"/>
    <path d="M134.51,30.63c0-2.75,1.86-4.89,4.58-4.89,2.99,0,4.58,2.28,4.58,5.59h-6.73c.18,1.43.98,2.32,2.37,2.32.96,0,1.52-.43,1.79-1.14h2.42c-.34,1.65-1.81,3.04-4.2,3.04-3.08,0-4.81-2.15-4.81-4.92ZM136.97,29.63h4.13c-.07-1.18-.85-1.99-1.97-1.99-1.3,0-1.94.78-2.15,1.99Z"/>
    <path d="M147.48,28.86c0-3.84,2.39-6.77,6.21-6.77,3.19,0,5.07,1.9,5.34,4.36h-2.61c-.23-1.3-1.21-2.15-2.73-2.15-2.39,0-3.53,1.99-3.53,4.56s1.38,4.54,3.55,4.54c1.54,0,2.62-.92,2.79-2.28h2.57c-.07,1.14-.56,2.24-1.43,3.06-.89.83-2.14,1.38-3.93,1.38-3.64,0-6.23-2.81-6.23-6.7Z"/>
    <path d="M160.15,32.66h2.64v2.62h-2.64v-2.62Z"/>
    <path d="M166.57,22.34h2.68l1.68,6.42c.25,1.1.56,2.82.56,2.82h.04s.33-1.61.6-2.75l1.41-6.5h2.53l1.41,6.48c.27,1.14.6,2.77.6,2.77h.04s.38-1.72.63-2.84l1.63-6.41h2.59l-3.69,12.94h-2.44l-1.57-6.93c-.22-.94-.45-2.3-.45-2.3h-.04s-.2,1.36-.42,2.3l-1.59,6.93h-2.43l-3.76-12.94Z"/>
    <path d="M182.68,30.63c0-2.75,1.86-4.89,4.58-4.89,2.99,0,4.58,2.28,4.58,5.59h-6.73c.18,1.43.98,2.32,2.37,2.32.96,0,1.52-.43,1.79-1.14h2.42c-.34,1.65-1.81,3.04-4.2,3.04-3.08,0-4.81-2.15-4.81-4.92ZM185.14,29.63h4.13c-.07-1.18-.85-1.99-1.97-1.99-1.3,0-1.94.78-2.15,1.99Z"/>
    <path d="M195.39,27.26h.05c.63-1,1.48-1.52,2.75-1.52,1.92,0,3.2,1.45,3.2,3.47v6.06h-2.46v-5.7c0-1-.58-1.7-1.61-1.7-1.09,0-1.88.87-1.88,2.14v5.27h-2.46v-9.28h2.41v1.27Z"/>
    <path d="M114.83,50.7h2.57c.18,1.56,1.07,2.17,2.91,2.17,1.34,0,2.52-.47,2.52-1.67,0-1.27-1.23-1.52-3.2-1.97-2.32-.52-4.43-1.14-4.43-3.84,0-2.55,2.08-3.87,4.96-3.87s4.8,1.43,4.99,4.04h-2.52c-.14-1.3-1.16-1.95-2.5-1.95-1.41,0-2.33.6-2.33,1.52,0,1.05.9,1.36,2.82,1.77,2.66.58,4.83,1.21,4.83,4,0,2.62-2.12,4.09-5.03,4.09-3.51,0-5.5-1.56-5.59-4.29Z"/>
    <path d="M126.33,50.07c0-2.77,1.81-4.9,4.63-4.9,2.41,0,3.89,1.39,4.22,3.4h-2.41c-.16-.81-.8-1.43-1.7-1.43-1.48,0-2.24,1.14-2.24,2.93s.71,2.93,2.21,2.93c1,0,1.7-.52,1.86-1.57h2.37c-.16,1.97-1.7,3.55-4.18,3.55-2.93,0-4.76-2.14-4.76-4.9Z"/>
    <path d="M138.8,46.63h.05c.67-.98,1.43-1.47,2.7-1.47,1.92,0,3.2,1.45,3.2,3.47v6.06h-2.46v-5.7c0-1-.58-1.7-1.61-1.7-1.09,0-1.88.87-1.88,2.14v5.27h-2.46v-12.94h2.46v4.87Z"/>
    <path d="M145.8,50.07c0-2.77,1.97-4.9,4.85-4.9s4.85,2.14,4.85,4.9-1.97,4.9-4.85,4.9-4.85-2.14-4.85-4.9ZM153,50.07c0-1.81-.85-3.04-2.35-3.04s-2.35,1.23-2.35,3.04.83,3.02,2.35,3.02,2.35-1.21,2.35-3.02Z"/>
    <path d="M156.16,50.07c0-2.77,1.97-4.9,4.85-4.9s4.85,2.14,4.85,4.9-1.97,4.9-4.85,4.9-4.85-2.14-4.85-4.9ZM163.36,50.07c0-1.81-.85-3.04-2.35-3.04s-2.35,1.23-2.35,3.04.83,3.02,2.35,3.02,2.35-1.21,2.35-3.02Z"/>
    <path d="M167,41.76h2.46v12.94h-2.46v-12.94Z"/>
    <path d="M173.68,50.07c0-2.77,1.97-4.9,4.85-4.9s4.85,2.14,4.85,4.9-1.97,4.9-4.85,4.9-4.85-2.14-4.85-4.9ZM180.89,50.07c0-1.81-.85-3.04-2.35-3.04s-2.35,1.23-2.35,3.04.83,3.02,2.35,3.02,2.35-1.21,2.35-3.02Z"/>
    <path d="M183.66,45.42h1.27v-.83c0-2.26,1.76-3.06,4.13-2.81v1.9c-1.16-.05-1.67.09-1.67,1.05v.69h1.67v1.7h-1.67v7.58h-2.46v-7.58h-1.27v-1.7Z"/>
    <path d="M193.42,41.76h2.66l4.31,7.22c.42.71.9,1.81.9,1.81h.04s-.07-1.34-.07-2.24v-6.79h2.59v12.94h-2.53l-4.42-7.15c-.42-.69-.92-1.79-.92-1.79h-.04s.07,1.36.07,2.26v6.68h-2.59v-12.94Z"/>
    <path d="M211.56,54.7v-1.09h-.05c-.63.85-1.36,1.34-2.66,1.34-2.06,0-3.22-1.32-3.22-3.35v-6.19h2.44v5.77c0,1.09.49,1.68,1.54,1.68,1.16,0,1.86-.87,1.86-2.1v-5.36h2.46v9.28h-2.37Z"/>
    <path d="M217.89,46.9h.05c.56-1.05,1.19-1.59,2.28-1.59.27,0,.43.02.58.07v2.15h-.05c-1.61-.16-2.77.69-2.77,2.64v4.52h-2.46v-9.28h2.37v1.48Z"/>
    <path d="M221.22,51.7h2.28c.16,1.07.92,1.54,2.03,1.54s1.7-.42,1.7-1.07c0-.89-1.18-.98-2.44-1.23-1.67-.33-3.29-.78-3.29-2.81s1.66-2.97,3.78-2.97c2.44,0,3.8,1.21,3.98,3.08h-2.23c-.11-1-.74-1.36-1.79-1.36-.96,0-1.59.36-1.59,1.03,0,.8,1.23.87,2.55,1.14,1.56.33,3.28.76,3.28,2.93,0,1.86-1.59,2.99-3.91,2.99-2.7,0-4.2-1.3-4.34-3.28Z"/>
    <path d="M230.64,41.76h2.46v2.21h-2.46v-2.21ZM230.64,45.42h2.46v9.28h-2.46v-9.28Z"/>
    <path d="M237.08,46.68h.05c.63-1,1.48-1.52,2.75-1.52,1.92,0,3.2,1.45,3.2,3.47v6.06h-2.46v-5.7c0-1-.58-1.7-1.61-1.7-1.09,0-1.88.87-1.88,2.14v5.27h-2.46v-9.28h2.41v1.27Z"/>
    <path d="M244.33,54.97h2.44c.2.58.72,1.03,1.86,1.03,1.39,0,2.06-.67,2.06-1.94v-1.01h-.05c-.54.62-1.25,1.09-2.43,1.09-2.06,0-4.09-1.63-4.09-4.43s1.67-4.54,4.02-4.54c1.16,0,2.01.45,2.57,1.23h.04v-.98h2.37v8.58c0,1.3-.42,2.19-1.1,2.82-.78.72-1.97,1.05-3.35,1.05-2.53,0-4.09-1.09-4.34-2.9ZM250.82,49.65c0-1.36-.72-2.52-2.21-2.52-1.25,0-2.08.98-2.08,2.53s.83,2.5,2.1,2.5c1.56,0,2.19-1.14,2.19-2.52Z"/>
  </g>
</svg>