<svg xmlns="http://www.w3.org/2000/svg" viewBox="0 0 1200 720" role="img">
<defs>
<linearGradient id="bg" x1="0" y1="0" x2="1" y2="1">
<stop offset="0" stop-color="#070C1E"/><stop offset="1" stop-color="#0E1A3A"/></linearGradient>
<radialGradient id="glow" cx="50%" cy="50%" r="50%">
<stop offset="0" stop-color="#FBB615" stop-opacity="0.5"/><stop offset="1" stop-color="#FBB615" stop-opacity="0"/></radialGradient>
<radialGradient id="glowS" cx="50%" cy="50%" r="50%">
<stop offset="0" stop-color="#74C2DE" stop-opacity="0.5"/><stop offset="1" stop-color="#74C2DE" stop-opacity="0"/></radialGradient>
<filter id="b"><feGaussianBlur stdDeviation="6"/></filter>
</defs>
<rect width="1200" height="720" fill="url(#bg)"/>
<rect width="1200" height="720" fill="url(#glowS)" opacity="0.12"/><line x1="780" y1="124" x2="780" y2="264" stroke="#74C2DE" stroke-width="2" opacity="0.30"/><circle cx="780" cy="264" r="3.0" fill="#4E9ABA"/><circle cx="780" cy="124" r="3.0" fill="#74C2DE"/><line x1="851" y1="461" x2="1051" y2="461" stroke="#74C2DE" stroke-width="2" opacity="0.30"/><circle cx="1051" cy="461" r="3.0" fill="#4E9ABA"/><line x1="1051" y1="461" x2="1051" y2="561" stroke="#74C2DE" stroke-width="2" opacity="0.30"/><circle cx="851" cy="461" r="12" fill="#FBB615" opacity="0.15" filter="url(#b)"/><circle cx="851" cy="461" r="3.0" fill="#FBB615"/><line x1="600" y1="553" x2="600" y2="680" stroke="#74C2DE" stroke-width="2" opacity="0.30"/><circle cx="600" cy="680" r="3.0" fill="#4E9ABA"/><circle cx="600" cy="553" r="3.0" fill="#74C2DE"/><line x1="935" y1="295" x2="935" y2="375" stroke="#74C2DE" stroke-width="2" opacity="0.30"/><circle cx="935" cy="375" r="3.0" fill="#4E9ABA"/><circle cx="935" cy="295" r="3.0" fill="#74C2DE"/><line x1="128" y1="634" x2="128" y2="680" stroke="#74C2DE" stroke-width="2" opacity="0.30"/><circle cx="128" cy="680" r="3.0" fill="#4E9ABA"/><circle cx="128" cy="634" r="3.0" fill="#74C2DE"/><line x1="461" y1="304" x2="461" y2="504" stroke="#74C2DE" stroke-width="2" opacity="0.30"/><circle cx="461" cy="504" r="3.0" fill="#4E9ABA"/><circle cx="461" cy="304" r="3.0" fill="#FBB615"/><line x1="803" y1="652" x2="803" y2="680" stroke="#74C2DE" stroke-width="2" opacity="0.30"/><circle cx="803" cy="680" r="3.0" fill="#4E9ABA"/><circle cx="803" cy="652" r="12" fill="#74C2DE" opacity="0.15" filter="url(#b)"/><circle cx="803" cy="652" r="3.0" fill="#74C2DE"/><line x1="524" y1="402" x2="604" y2="402" stroke="#74C2DE" stroke-width="2" opacity="0.30"/><circle cx="604" cy="402" r="3.0" fill="#4E9ABA"/><line x1="604" y1="402" x2="604" y2="442" stroke="#74C2DE" stroke-width="2" opacity="0.30"/><circle cx="524" cy="402" r="3.0" fill="#74C2DE"/><line x1="646" y1="304" x2="646" y2="504" stroke="#74C2DE" stroke-width="2" opacity="0.30"/><circle cx="646" cy="504" r="3.0" fill="#4E9ABA"/><circle cx="646" cy="304" r="3.0" fill="#74C2DE"/><line x1="1051" y1="379" x2="1051" y2="579" stroke="#74C2DE" stroke-width="2" opacity="0.30"/><circle cx="1051" cy="579" r="3.0" fill="#4E9ABA"/><circle cx="1051" cy="379" r="3.0" fill="#74C2DE"/><line x1="512" y1="176" x2="512" y2="376" stroke="#74C2DE" stroke-width="2" opacity="0.30"/><circle cx="512" cy="376" r="3.0" fill="#4E9ABA"/><circle cx="512" cy="176" r="3.0" fill="#74C2DE"/><line x1="365" y1="514" x2="365" y2="594" stroke="#74C2DE" stroke-width="2" opacity="0.30"/><circle cx="365" cy="594" r="3.0" fill="#4E9ABA"/><circle cx="365" cy="514" r="3.0" fill="#74C2DE"/><line x1="229" y1="136" x2="229" y2="276" stroke="#74C2DE" stroke-width="2" opacity="0.30"/><circle cx="229" cy="276" r="3.0" fill="#4E9ABA"/><circle cx="229" cy="136" r="3.0" fill="#74C2DE"/><line x1="952" y1="434" x2="952" y2="514" stroke="#74C2DE" stroke-width="2" opacity="0.30"/><circle cx="952" cy="514" r="3.0" fill="#4E9ABA"/><circle cx="952" cy="434" r="3.0" fill="#74C2DE"/><line x1="1026" y1="382" x2="1026" y2="462" stroke="#74C2DE" stroke-width="2" opacity="0.30"/><circle cx="1026" cy="462" r="3.0" fill="#4E9ABA"/><circle cx="1026" cy="382" r="3.0" fill="#74C2DE"/><line x1="436" y1="240" x2="436" y2="380" stroke="#74C2DE" stroke-width="2" opacity="0.30"/><circle cx="436" cy="380" r="3.0" fill="#4E9ABA"/><circle cx="436" cy="240" r="12" fill="#FBB615" opacity="0.15" filter="url(#b)"/><circle cx="436" cy="240" r="3.0" fill="#FBB615"/><line x1="764" y1="600" x2="904" y2="600" stroke="#74C2DE" stroke-width="2" opacity="0.30"/><circle cx="904" cy="600" r="3.0" fill="#4E9ABA"/><line x1="904" y1="600" x2="904" y2="670" stroke="#74C2DE" stroke-width="2" opacity="0.30"/><circle cx="764" cy="600" r="3.0" fill="#74C2DE"/><line x1="816" y1="81" x2="956" y2="81" stroke="#74C2DE" stroke-width="2" opacity="0.30"/><circle cx="956" cy="81" r="3.0" fill="#4E9ABA"/><line x1="956" y1="81" x2="956" y2="151" stroke="#74C2DE" stroke-width="2" opacity="0.30"/><circle cx="816" cy="81" r="3.0" fill="#74C2DE"/><line x1="1073" y1="600" x2="1073" y2="680" stroke="#74C2DE" stroke-width="2" opacity="0.30"/><circle cx="1073" cy="680" r="3.0" fill="#4E9ABA"/><circle cx="1073" cy="600" r="12" fill="#FBB615" opacity="0.15" filter="url(#b)"/><circle cx="1073" cy="600" r="3.0" fill="#FBB615"/><line x1="368" y1="616" x2="368" y2="680" stroke="#74C2DE" stroke-width="2" opacity="0.30"/><circle cx="368" cy="680" r="3.0" fill="#4E9ABA"/><circle cx="368" cy="616" r="3.0" fill="#FBB615"/><line x1="185" y1="447" x2="265" y2="447" stroke="#74C2DE" stroke-width="2" opacity="0.30"/><circle cx="265" cy="447" r="3.0" fill="#4E9ABA"/><line x1="265" y1="447" x2="265" y2="487" stroke="#74C2DE" stroke-width="2" opacity="0.30"/><circle cx="185" cy="447" r="3.0" fill="#74C2DE"/><line x1="369" y1="623" x2="369" y2="680" stroke="#74C2DE" stroke-width="2" opacity="0.30"/><circle cx="369" cy="680" r="3.0" fill="#4E9ABA"/><circle cx="369" cy="623" r="3.0" fill="#74C2DE"/><line x1="225" y1="636" x2="365" y2="636" stroke="#74C2DE" stroke-width="2" opacity="0.30"/><circle cx="365" cy="636" r="3.0" fill="#4E9ABA"/><line x1="365" y1="636" x2="365" y2="680" stroke="#74C2DE" stroke-width="2" opacity="0.30"/><circle cx="225" cy="636" r="3.0" fill="#FBB615"/><line x1="680" y1="637" x2="680" y2="680" stroke="#74C2DE" stroke-width="2" opacity="0.30"/><circle cx="680" cy="680" r="3.0" fill="#4E9ABA"/><circle cx="680" cy="637" r="3.0" fill="#FBB615"/><line x1="1004" y1="524" x2="1084" y2="524" stroke="#74C2DE" stroke-width="2" opacity="0.30"/><circle cx="1084" cy="524" r="3.0" fill="#4E9ABA"/><circle cx="1004" cy="524" r="12" fill="#74C2DE" opacity="0.15" filter="url(#b)"/><circle cx="1004" cy="524" r="3.0" fill="#74C2DE"/><line x1="649" y1="561" x2="849" y2="561" stroke="#74C2DE" stroke-width="2" opacity="0.30"/><circle cx="849" cy="561" r="3.0" fill="#4E9ABA"/><line x1="849" y1="561" x2="849" y2="661" stroke="#74C2DE" stroke-width="2" opacity="0.30"/><circle cx="649" cy="561" r="12" fill="#74C2DE" opacity="0.15" filter="url(#b)"/><circle cx="649" cy="561" r="3.0" fill="#74C2DE"/><rect x="510.0" y="290.0" width="180" height="140" rx="10" fill="none" stroke="#FBB615" stroke-width="2" opacity="0.8"/><rect x="510.0" y="290.0" width="180" height="140" rx="10" fill="#FBB615" opacity="0.05"/><line x1="530" y1="290" x2="530" y2="268" stroke="#74C2DE" stroke-width="2" opacity="0.50"/><line x1="530" y1="430" x2="530" y2="452" stroke="#74C2DE" stroke-width="2" opacity="0.50"/><line x1="558" y1="290" x2="558" y2="268" stroke="#74C2DE" stroke-width="2" opacity="0.50"/><line x1="558" y1="430" x2="558" y2="452" stroke="#74C2DE" stroke-width="2" opacity="0.50"/><line x1="586" y1="290" x2="586" y2="268" stroke="#74C2DE" stroke-width="2" opacity="0.50"/><line x1="586" y1="430" x2="586" y2="452" stroke="#74C2DE" stroke-width="2" opacity="0.50"/><line x1="614" y1="290" x2="614" y2="268" stroke="#74C2DE" stroke-width="2" opacity="0.50"/><line x1="614" y1="430" x2="614" y2="452" stroke="#74C2DE" stroke-width="2" opacity="0.50"/><line x1="642" y1="290" x2="642" y2="268" stroke="#74C2DE" stroke-width="2" opacity="0.50"/><line x1="642" y1="430" x2="642" y2="452" stroke="#74C2DE" stroke-width="2" opacity="0.50"/><line x1="670" y1="290" x2="670" y2="268" stroke="#74C2DE" stroke-width="2" opacity="0.50"/><line x1="670" y1="430" x2="670" y2="452" stroke="#74C2DE" stroke-width="2" opacity="0.50"/><line x1="510" y1="310" x2="488" y2="310" stroke="#74C2DE" stroke-width="2" opacity="0.50"/><line x1="690" y1="310" x2="712" y2="310" stroke="#74C2DE" stroke-width="2" opacity="0.50"/><line x1="510" y1="335" x2="488" y2="335" stroke="#74C2DE" stroke-width="2" opacity="0.50"/><line x1="690" y1="335" x2="712" y2="335" stroke="#74C2DE" stroke-width="2" opacity="0.50"/><line x1="510" y1="360" x2="488" y2="360" stroke="#74C2DE" stroke-width="2" opacity="0.50"/><line x1="690" y1="360" x2="712" y2="360" stroke="#74C2DE" stroke-width="2" opacity="0.50"/><line x1="510" y1="385" x2="488" y2="385" stroke="#74C2DE" stroke-width="2" opacity="0.50"/><line x1="690" y1="385" x2="712" y2="385" stroke="#74C2DE" stroke-width="2" opacity="0.50"/><line x1="510" y1="410" x2="488" y2="410" stroke="#74C2DE" stroke-width="2" opacity="0.50"/><line x1="690" y1="410" x2="712" y2="410" stroke="#74C2DE" stroke-width="2" opacity="0.50"/><circle cx="600" cy="360" r="24" fill="#FBB615" opacity="0.23" filter="url(#b)"/><circle cx="600" cy="360" r="6.0" fill="#FBB615"/></svg>