<svg xmlns="http://www.w3.org/2000/svg" viewBox="0 0 1200 720" role="img">
<defs>
<linearGradient id="bg" x1="0" y1="0" x2="1" y2="1">
<stop offset="0" stop-color="#070C1E"/><stop offset="1" stop-color="#0E1A3A"/></linearGradient>
<radialGradient id="glow" cx="50%" cy="50%" r="50%">
<stop offset="0" stop-color="#FBB615" stop-opacity="0.5"/><stop offset="1" stop-color="#FBB615" stop-opacity="0"/></radialGradient>
<radialGradient id="glowS" cx="50%" cy="50%" r="50%">
<stop offset="0" stop-color="#74C2DE" stop-opacity="0.5"/><stop offset="1" stop-color="#74C2DE" stop-opacity="0"/></radialGradient>
<filter id="b"><feGaussianBlur stdDeviation="6"/></filter>
</defs>
<rect width="1200" height="720" fill="url(#bg)"/>
<rect width="1200" height="720" fill="url(#glowS)" opacity="0.12"/><line x1="391" y1="335" x2="330" y2="370" stroke="#4E9ABA" stroke-width="2" opacity="0.70"/><line x1="330" y1="370" x2="269" y2="335" stroke="#4E9ABA" stroke-width="2" opacity="0.70"/><line x1="269" y1="335" x2="269" y2="265" stroke="#4E9ABA" stroke-width="2" opacity="0.70"/><line x1="269" y1="265" x2="330" y2="230" stroke="#4E9ABA" stroke-width="2" opacity="0.70"/><line x1="330" y1="230" x2="391" y2="265" stroke="#4E9ABA" stroke-width="2" opacity="0.70"/><line x1="391" y1="265" x2="391" y2="335" stroke="#4E9ABA" stroke-width="2" opacity="0.70"/><circle cx="391" cy="335" r="16" fill="#FBB615" opacity="0.17" filter="url(#b)"/><circle cx="391" cy="335" r="4.0" fill="#FBB615"/><circle cx="330" cy="370" r="4.0" fill="#74C2DE"/><circle cx="269" cy="335" r="4.0" fill="#74C2DE"/><circle cx="269" cy="265" r="16" fill="#FBB615" opacity="0.17" filter="url(#b)"/><circle cx="269" cy="265" r="4.0" fill="#FBB615"/><circle cx="330" cy="230" r="4.0" fill="#74C2DE"/><circle cx="391" cy="265" r="4.0" fill="#74C2DE"/><line x1="612" y1="460" x2="560" y2="490" stroke="#4E9ABA" stroke-width="2" opacity="0.70"/><line x1="560" y1="490" x2="508" y2="460" stroke="#4E9ABA" stroke-width="2" opacity="0.70"/><line x1="508" y1="460" x2="508" y2="400" stroke="#4E9ABA" stroke-width="2" opacity="0.70"/><line x1="508" y1="400" x2="560" y2="370" stroke="#4E9ABA" stroke-width="2" opacity="0.70"/><line x1="560" y1="370" x2="612" y2="400" stroke="#4E9ABA" stroke-width="2" opacity="0.70"/><line x1="612" y1="400" x2="612" y2="460" stroke="#4E9ABA" stroke-width="2" opacity="0.70"/><circle cx="612" cy="460" r="4.0" fill="#74C2DE"/><circle cx="560" cy="490" r="4.0" fill="#74C2DE"/><circle cx="508" cy="460" r="4.0" fill="#74C2DE"/><circle cx="508" cy="400" r="4.0" fill="#74C2DE"/><circle cx="560" cy="370" r="4.0" fill="#74C2DE"/><circle cx="612" cy="400" r="4.0" fill="#74C2DE"/><line x1="330" y1="300" x2="560" y2="430" stroke="#74C2DE" stroke-width="2" opacity="0.50"/><line x1="865" y1="288" x2="800" y2="325" stroke="#4E9ABA" stroke-width="2" opacity="0.70"/><line x1="800" y1="325" x2="735" y2="288" stroke="#4E9ABA" stroke-width="2" opacity="0.70"/><line x1="735" y1="288" x2="735" y2="213" stroke="#4E9ABA" stroke-width="2" opacity="0.70"/><line x1="735" y1="213" x2="800" y2="175" stroke="#4E9ABA" stroke-width="2" opacity="0.70"/><line x1="800" y1="175" x2="865" y2="213" stroke="#4E9ABA" stroke-width="2" opacity="0.70"/><line x1="865" y1="213" x2="865" y2="288" stroke="#4E9ABA" stroke-width="2" opacity="0.70"/><circle cx="865" cy="288" r="4.0" fill="#74C2DE"/><circle cx="800" cy="325" r="4.0" fill="#74C2DE"/><circle cx="735" cy="288" r="4.0" fill="#74C2DE"/><circle cx="735" cy="213" r="4.0" fill="#74C2DE"/><circle cx="800" cy="175" r="4.0" fill="#74C2DE"/><circle cx="865" cy="213" r="4.0" fill="#74C2DE"/><line x1="560" y1="430" x2="800" y2="250" stroke="#74C2DE" stroke-width="2" opacity="0.50"/><line x1="665" y1="226" x2="620" y2="252" stroke="#4E9ABA" stroke-width="2" opacity="0.70"/><line x1="620" y1="252" x2="575" y2="226" stroke="#4E9ABA" stroke-width="2" opacity="0.70"/><line x1="575" y1="226" x2="575" y2="174" stroke="#4E9ABA" stroke-width="2" opacity="0.70"/><line x1="575" y1="174" x2="620" y2="148" stroke="#4E9ABA" stroke-width="2" opacity="0.70"/><line x1="620" y1="148" x2="665" y2="174" stroke="#4E9ABA" stroke-width="2" opacity="0.70"/><line x1="665" y1="174" x2="665" y2="226" stroke="#4E9ABA" stroke-width="2" opacity="0.70"/><circle cx="665" cy="226" r="4.0" fill="#74C2DE"/><circle cx="620" cy="252" r="4.0" fill="#74C2DE"/><circle cx="575" cy="226" r="4.0" fill="#74C2DE"/><circle cx="575" cy="174" r="4.0" fill="#74C2DE"/><circle cx="620" cy="148" r="4.0" fill="#74C2DE"/><circle cx="665" cy="174" r="4.0" fill="#74C2DE"/><line x1="800" y1="250" x2="620" y2="200" stroke="#74C2DE" stroke-width="2" opacity="0.50"/><line x1="930" y1="499" x2="880" y2="528" stroke="#4E9ABA" stroke-width="2" opacity="0.70"/><line x1="880" y1="528" x2="830" y2="499" stroke="#4E9ABA" stroke-width="2" opacity="0.70"/><line x1="830" y1="499" x2="830" y2="441" stroke="#4E9ABA" stroke-width="2" opacity="0.70"/><line x1="830" y1="441" x2="880" y2="412" stroke="#4E9ABA" stroke-width="2" opacity="0.70"/><line x1="880" y1="412" x2="930" y2="441" stroke="#4E9ABA" stroke-width="2" opacity="0.70"/><line x1="930" y1="441" x2="930" y2="499" stroke="#4E9ABA" stroke-width="2" opacity="0.70"/><circle cx="930" cy="499" r="16" fill="#FBB615" opacity="0.17" filter="url(#b)"/><circle cx="930" cy="499" r="4.0" fill="#FBB615"/><circle cx="880" cy="528" r="4.0" fill="#74C2DE"/><circle cx="830" cy="499" r="4.0" fill="#74C2DE"/><circle cx="830" cy="441" r="16" fill="#FBB615" opacity="0.17" filter="url(#b)"/><circle cx="830" cy="441" r="4.0" fill="#FBB615"/><circle cx="880" cy="412" r="4.0" fill="#74C2DE"/><circle cx="930" cy="441" r="4.0" fill="#74C2DE"/><line x1="620" y1="200" x2="880" y2="470" stroke="#74C2DE" stroke-width="2" opacity="0.50"/><line x1="330" y1="300" x2="442" y2="309" stroke="#74C2DE" stroke-width="2" opacity="0.45"/><circle cx="442" cy="309" r="16" fill="#E0A24A" opacity="0.15" filter="url(#b)"/><circle cx="442" cy="309" r="4.0" fill="#E0A24A"/><line x1="560" y1="430" x2="633" y2="492" stroke="#74C2DE" stroke-width="2" opacity="0.45"/><circle cx="633" cy="492" r="16" fill="#E0A24A" opacity="0.15" filter="url(#b)"/><circle cx="633" cy="492" r="4.0" fill="#E0A24A"/><line x1="800" y1="250" x2="706" y2="325" stroke="#74C2DE" stroke-width="2" opacity="0.45"/><circle cx="706" cy="325" r="16" fill="#E0A24A" opacity="0.15" filter="url(#b)"/><circle cx="706" cy="325" r="4.0" fill="#E0A24A"/></svg>