<svg xmlns="http://www.w3.org/2000/svg" viewBox="0 0 1200 720" role="img">
<defs>
<linearGradient id="bg" x1="0" y1="0" x2="1" y2="1">
<stop offset="0" stop-color="#070C1E"/><stop offset="1" stop-color="#0E1A3A"/></linearGradient>
<radialGradient id="glow" cx="50%" cy="50%" r="50%">
<stop offset="0" stop-color="#FBB615" stop-opacity="0.5"/><stop offset="1" stop-color="#FBB615" stop-opacity="0"/></radialGradient>
<radialGradient id="glowS" cx="50%" cy="50%" r="50%">
<stop offset="0" stop-color="#74C2DE" stop-opacity="0.5"/><stop offset="1" stop-color="#74C2DE" stop-opacity="0"/></radialGradient>
<filter id="b"><feGaussianBlur stdDeviation="6"/></filter>
</defs>
<rect width="1200" height="720" fill="url(#bg)"/>
<rect width="1200" height="720" fill="url(#glowS)" opacity="0.12"/><line x1="902" y1="279" x2="844" y2="340" stroke="#74C2DE" stroke-width="1" opacity="0.16"/><line x1="902" y1="279" x2="825" y2="314" stroke="#74C2DE" stroke-width="1" opacity="0.16"/><line x1="902" y1="279" x2="801" y2="335" stroke="#74C2DE" stroke-width="1" opacity="0.16"/><line x1="620" y1="431" x2="617" y2="437" stroke="#74C2DE" stroke-width="1" opacity="0.16"/><line x1="620" y1="431" x2="607" y2="418" stroke="#74C2DE" stroke-width="1" opacity="0.16"/><line x1="620" y1="431" x2="602" y2="441" stroke="#74C2DE" stroke-width="1" opacity="0.16"/><line x1="406" y1="348" x2="387" y2="390" stroke="#74C2DE" stroke-width="1" opacity="0.16"/><line x1="406" y1="348" x2="438" y2="385" stroke="#74C2DE" stroke-width="1" opacity="0.16"/><line x1="406" y1="348" x2="379" y2="303" stroke="#74C2DE" stroke-width="1" opacity="0.16"/><line x1="387" y1="390" x2="391" y2="407" stroke="#74C2DE" stroke-width="1" opacity="0.16"/><line x1="387" y1="390" x2="350" y2="397" stroke="#74C2DE" stroke-width="1" opacity="0.16"/><line x1="387" y1="390" x2="406" y2="348" stroke="#74C2DE" stroke-width="1" opacity="0.16"/><line x1="781" y1="368" x2="801" y2="335" stroke="#74C2DE" stroke-width="1" opacity="0.16"/><line x1="781" y1="368" x2="752" y2="306" stroke="#74C2DE" stroke-width="1" opacity="0.16"/><line x1="781" y1="368" x2="844" y2="340" stroke="#74C2DE" stroke-width="1" opacity="0.16"/><line x1="588" y1="423" x2="590" y2="440" stroke="#74C2DE" stroke-width="1" opacity="0.16"/><line x1="588" y1="423" x2="607" y2="418" stroke="#74C2DE" stroke-width="1" opacity="0.16"/><line x1="588" y1="423" x2="602" y2="441" stroke="#74C2DE" stroke-width="1" opacity="0.16"/><line x1="688" y1="394" x2="704" y2="410" stroke="#74C2DE" stroke-width="1" opacity="0.16"/><line x1="688" y1="394" x2="716" y2="420" stroke="#74C2DE" stroke-width="1" opacity="0.16"/><line x1="688" y1="394" x2="661" y2="348" stroke="#74C2DE" stroke-width="1" opacity="0.16"/><line x1="576" y1="281" x2="551" y2="263" stroke="#74C2DE" stroke-width="1" opacity="0.16"/><line x1="576" y1="281" x2="564" y2="249" stroke="#74C2DE" stroke-width="1" opacity="0.16"/><line x1="576" y1="281" x2="592" y2="311" stroke="#74C2DE" stroke-width="1" opacity="0.16"/><line x1="844" y1="340" x2="825" y2="314" stroke="#74C2DE" stroke-width="1" opacity="0.16"/><line x1="844" y1="340" x2="801" y2="335" stroke="#74C2DE" stroke-width="1" opacity="0.16"/><line x1="844" y1="340" x2="848" y2="388" stroke="#74C2DE" stroke-width="1" opacity="0.16"/><line x1="612" y1="462" x2="610" y2="473" stroke="#74C2DE" stroke-width="1" opacity="0.16"/><line x1="612" y1="462" x2="602" y2="441" stroke="#74C2DE" stroke-width="1" opacity="0.16"/><line x1="612" y1="462" x2="617" y2="437" stroke="#74C2DE" stroke-width="1" opacity="0.16"/><line x1="456" y1="410" x2="469" y2="414" stroke="#74C2DE" stroke-width="1" opacity="0.16"/><line x1="456" y1="410" x2="438" y2="385" stroke="#74C2DE" stroke-width="1" opacity="0.16"/><line x1="456" y1="410" x2="449" y2="460" stroke="#74C2DE" stroke-width="1" opacity="0.16"/><line x1="448" y1="221" x2="429" y2="199" stroke="#74C2DE" stroke-width="1" opacity="0.16"/><line x1="448" y1="221" x2="488" y2="226" stroke="#74C2DE" stroke-width="1" opacity="0.16"/><line x1="448" y1="221" x2="413" y2="252" stroke="#74C2DE" stroke-width="1" opacity="0.16"/><line x1="424" y1="299" x2="407" y2="258" stroke="#74C2DE" stroke-width="1" opacity="0.16"/><line x1="424" y1="299" x2="379" y2="303" stroke="#74C2DE" stroke-width="1" opacity="0.16"/><line x1="424" y1="299" x2="413" y2="252" stroke="#74C2DE" stroke-width="1" opacity="0.16"/><line x1="396" y1="509" x2="414" y2="531" stroke="#74C2DE" stroke-width="1" opacity="0.16"/><line x1="396" y1="509" x2="421" y2="527" stroke="#74C2DE" stroke-width="1" opacity="0.16"/><line x1="396" y1="509" x2="418" y2="458" stroke="#74C2DE" stroke-width="1" opacity="0.16"/><line x1="530" y1="398" x2="547" y2="390" stroke="#74C2DE" stroke-width="1" opacity="0.16"/><line x1="530" y1="398" x2="516" y2="372" stroke="#74C2DE" stroke-width="1" opacity="0.16"/><line x1="530" y1="398" x2="549" y2="434" stroke="#74C2DE" stroke-width="1" opacity="0.16"/><line x1="695" y1="497" x2="703" y2="529" stroke="#74C2DE" stroke-width="1" opacity="0.16"/><line x1="695" y1="497" x2="658" y2="513" stroke="#74C2DE" stroke-width="1" opacity="0.16"/><line x1="695" y1="497" x2="642" y2="480" stroke="#74C2DE" stroke-width="1" opacity="0.16"/><line x1="418" y1="458" x2="449" y2="460" stroke="#74C2DE" stroke-width="1" opacity="0.16"/><line x1="418" y1="458" x2="396" y2="509" stroke="#74C2DE" stroke-width="1" opacity="0.16"/><line x1="418" y1="458" x2="391" y2="407" stroke="#74C2DE" stroke-width="1" opacity="0.16"/><line x1="658" y1="513" x2="642" y2="480" stroke="#74C2DE" stroke-width="1" opacity="0.16"/><line x1="658" y1="513" x2="695" y2="497" stroke="#74C2DE" stroke-width="1" opacity="0.16"/><line x1="658" y1="513" x2="611" y2="505" stroke="#74C2DE" stroke-width="1" opacity="0.16"/><line x1="716" y1="420" x2="704" y2="410" stroke="#74C2DE" stroke-width="1" opacity="0.16"/><line x1="716" y1="420" x2="688" y2="394" stroke="#74C2DE" stroke-width="1" opacity="0.16"/><line x1="716" y1="420" x2="695" y2="497" stroke="#74C2DE" stroke-width="1" opacity="0.16"/><line x1="429" y1="199" x2="448" y2="221" stroke="#74C2DE" stroke-width="1" opacity="0.16"/><line x1="429" y1="199" x2="413" y2="252" stroke="#74C2DE" stroke-width="1" opacity="0.16"/><line x1="429" y1="199" x2="407" y2="258" stroke="#74C2DE" stroke-width="1" opacity="0.16"/><line x1="527" y1="310" x2="556" y2="319" stroke="#74C2DE" stroke-width="1" opacity="0.16"/><line x1="527" y1="310" x2="519" y2="270" stroke="#74C2DE" stroke-width="1" opacity="0.16"/><line x1="527" y1="310" x2="568" y2="327" stroke="#74C2DE" stroke-width="1" opacity="0.16"/><line x1="801" y1="335" x2="825" y2="314" stroke="#74C2DE" stroke-width="1" opacity="0.16"/><line x1="801" y1="335" x2="781" y2="368" stroke="#74C2DE" stroke-width="1" opacity="0.16"/><line x1="801" y1="335" x2="844" y2="340" stroke="#74C2DE" stroke-width="1" opacity="0.16"/><line x1="607" y1="401" x2="614" y2="406" stroke="#74C2DE" stroke-width="1" opacity="0.16"/><line x1="607" y1="401" x2="607" y2="418" stroke="#74C2DE" stroke-width="1" opacity="0.16"/><line x1="607" y1="401" x2="588" y2="423" stroke="#74C2DE" stroke-width="1" opacity="0.16"/><line x1="784" y1="218" x2="789" y2="234" stroke="#74C2DE" stroke-width="1" opacity="0.16"/><line x1="784" y1="218" x2="789" y2="191" stroke="#74C2DE" stroke-width="1" opacity="0.16"/><line x1="784" y1="218" x2="749" y2="211" stroke="#74C2DE" stroke-width="1" opacity="0.16"/><line x1="789" y1="191" x2="784" y2="218" stroke="#74C2DE" stroke-width="1" opacity="0.16"/><line x1="789" y1="191" x2="789" y2="234" stroke="#74C2DE" stroke-width="1" opacity="0.16"/><line x1="789" y1="191" x2="745" y2="195" stroke="#74C2DE" stroke-width="1" opacity="0.16"/><line x1="661" y1="348" x2="646" y2="344" stroke="#74C2DE" stroke-width="1" opacity="0.16"/><line x1="661" y1="348" x2="687" y2="339" stroke="#74C2DE" stroke-width="1" opacity="0.16"/><line x1="661" y1="348" x2="660" y2="316" stroke="#74C2DE" stroke-width="1" opacity="0.16"/><line x1="607" y1="342" x2="592" y2="311" stroke="#74C2DE" stroke-width="1" opacity="0.16"/><line x1="607" y1="342" x2="646" y2="344" stroke="#74C2DE" stroke-width="1" opacity="0.16"/><line x1="607" y1="342" x2="568" y2="327" stroke="#74C2DE" stroke-width="1" opacity="0.16"/><line x1="607" y1="418" x2="614" y2="406" stroke="#74C2DE" stroke-width="1" opacity="0.16"/><line x1="607" y1="418" x2="607" y2="401" stroke="#74C2DE" stroke-width="1" opacity="0.16"/><line x1="607" y1="418" x2="620" y2="431" stroke="#74C2DE" stroke-width="1" opacity="0.16"/><line x1="667" y1="287" x2="671" y2="297" stroke="#74C2DE" stroke-width="1" opacity="0.16"/><line x1="667" y1="287" x2="660" y2="316" stroke="#74C2DE" stroke-width="1" opacity="0.16"/><line x1="667" y1="287" x2="675" y2="239" stroke="#74C2DE" stroke-width="1" opacity="0.16"/><line x1="602" y1="441" x2="590" y2="440" stroke="#74C2DE" stroke-width="1" opacity="0.16"/><line x1="602" y1="441" x2="617" y2="437" stroke="#74C2DE" stroke-width="1" opacity="0.16"/><line x1="602" y1="441" x2="620" y2="431" stroke="#74C2DE" stroke-width="1" opacity="0.16"/><line x1="298" y1="315" x2="290" y2="325" stroke="#74C2DE" stroke-width="1" opacity="0.16"/><line x1="298" y1="315" x2="319" y2="327" stroke="#74C2DE" stroke-width="1" opacity="0.16"/><line x1="298" y1="315" x2="337" y2="309" stroke="#74C2DE" stroke-width="1" opacity="0.16"/><line x1="304" y1="442" x2="350" y2="397" stroke="#74C2DE" stroke-width="1" opacity="0.16"/><line x1="304" y1="442" x2="325" y2="379" stroke="#74C2DE" stroke-width="1" opacity="0.16"/><line x1="304" y1="442" x2="391" y2="407" stroke="#74C2DE" stroke-width="1" opacity="0.16"/><line x1="611" y1="505" x2="596" y2="494" stroke="#74C2DE" stroke-width="1" opacity="0.16"/><line x1="611" y1="505" x2="610" y2="473" stroke="#74C2DE" stroke-width="1" opacity="0.16"/><line x1="611" y1="505" x2="642" y2="480" stroke="#74C2DE" stroke-width="1" opacity="0.16"/><line x1="618" y1="267" x2="619" y2="240" stroke="#74C2DE" stroke-width="1" opacity="0.16"/><line x1="618" y1="267" x2="576" y2="281" stroke="#74C2DE" stroke-width="1" opacity="0.16"/><line x1="618" y1="267" x2="592" y2="311" stroke="#74C2DE" stroke-width="1" opacity="0.16"/><line x1="653" y1="203" x2="675" y2="239" stroke="#74C2DE" stroke-width="1" opacity="0.16"/><line x1="653" y1="203" x2="619" y2="240" stroke="#74C2DE" stroke-width="1" opacity="0.16"/><line x1="653" y1="203" x2="710" y2="245" stroke="#74C2DE" stroke-width="1" opacity="0.16"/><line x1="488" y1="460" x2="449" y2="460" stroke="#74C2DE" stroke-width="1" opacity="0.16"/><line x1="488" y1="460" x2="469" y2="414" stroke="#74C2DE" stroke-width="1" opacity="0.16"/><line x1="488" y1="460" x2="456" y2="410" stroke="#74C2DE" stroke-width="1" opacity="0.16"/><line x1="741" y1="224" x2="749" y2="211" stroke="#74C2DE" stroke-width="1" opacity="0.16"/><line x1="741" y1="224" x2="745" y2="195" stroke="#74C2DE" stroke-width="1" opacity="0.16"/><line x1="741" y1="224" x2="710" y2="245" stroke="#74C2DE" stroke-width="1" opacity="0.16"/><line x1="752" y1="306" x2="738" y2="292" stroke="#74C2DE" stroke-width="1" opacity="0.16"/><line x1="752" y1="306" x2="801" y2="335" stroke="#74C2DE" stroke-width="1" opacity="0.16"/><line x1="752" y1="306" x2="781" y2="368" stroke="#74C2DE" stroke-width="1" opacity="0.16"/><line x1="642" y1="480" x2="642" y2="454" stroke="#74C2DE" stroke-width="1" opacity="0.16"/><line x1="642" y1="480" x2="610" y2="473" stroke="#74C2DE" stroke-width="1" opacity="0.16"/><line x1="642" y1="480" x2="612" y2="462" stroke="#74C2DE" stroke-width="1" opacity="0.16"/><line x1="482" y1="539" x2="469" y2="529" stroke="#74C2DE" stroke-width="1" opacity="0.16"/><line x1="482" y1="539" x2="530" y2="505" stroke="#74C2DE" stroke-width="1" opacity="0.16"/><line x1="482" y1="539" x2="421" y2="527" stroke="#74C2DE" stroke-width="1" opacity="0.16"/><line x1="337" y1="309" x2="346" y2="313" stroke="#74C2DE" stroke-width="1" opacity="0.16"/><line x1="337" y1="309" x2="319" y2="327" stroke="#74C2DE" stroke-width="1" opacity="0.16"/><line x1="337" y1="309" x2="298" y2="315" stroke="#74C2DE" stroke-width="1" opacity="0.16"/><line x1="346" y1="313" x2="337" y2="309" stroke="#74C2DE" stroke-width="1" opacity="0.16"/><line x1="346" y1="313" x2="319" y2="327" stroke="#74C2DE" stroke-width="1" opacity="0.16"/><line x1="346" y1="313" x2="379" y2="303" stroke="#74C2DE" stroke-width="1" opacity="0.16"/><line x1="477" y1="349" x2="516" y2="372" stroke="#74C2DE" stroke-width="1" opacity="0.16"/><line x1="477" y1="349" x2="438" y2="385" stroke="#74C2DE" stroke-width="1" opacity="0.16"/><line x1="477" y1="349" x2="527" y2="310" stroke="#74C2DE" stroke-width="1" opacity="0.16"/><line x1="738" y1="292" x2="752" y2="306" stroke="#74C2DE" stroke-width="1" opacity="0.16"/><line x1="738" y1="292" x2="710" y2="245" stroke="#74C2DE" stroke-width="1" opacity="0.16"/><line x1="738" y1="292" x2="671" y2="297" stroke="#74C2DE" stroke-width="1" opacity="0.16"/><line x1="530" y1="505" x2="482" y2="539" stroke="#74C2DE" stroke-width="1" opacity="0.16"/><line x1="530" y1="505" x2="488" y2="460" stroke="#74C2DE" stroke-width="1" opacity="0.16"/><line x1="530" y1="505" x2="585" y2="471" stroke="#74C2DE" stroke-width="1" opacity="0.16"/><line x1="350" y1="397" x2="325" y2="379" stroke="#74C2DE" stroke-width="1" opacity="0.16"/><line x1="350" y1="397" x2="387" y2="390" stroke="#74C2DE" stroke-width="1" opacity="0.16"/><line x1="350" y1="397" x2="391" y2="407" stroke="#74C2DE" stroke-width="1" opacity="0.16"/><line x1="675" y1="239" x2="710" y2="245" stroke="#74C2DE" stroke-width="1" opacity="0.16"/><line x1="675" y1="239" x2="653" y2="203" stroke="#74C2DE" stroke-width="1" opacity="0.16"/><line x1="675" y1="239" x2="667" y2="287" stroke="#74C2DE" stroke-width="1" opacity="0.16"/><line x1="568" y1="327" x2="556" y2="319" stroke="#74C2DE" stroke-width="1" opacity="0.16"/><line x1="568" y1="327" x2="592" y2="311" stroke="#74C2DE" stroke-width="1" opacity="0.16"/><line x1="568" y1="327" x2="607" y2="342" stroke="#74C2DE" stroke-width="1" opacity="0.16"/><line x1="421" y1="527" x2="414" y2="531" stroke="#74C2DE" stroke-width="1" opacity="0.16"/><line x1="421" y1="527" x2="396" y2="509" stroke="#74C2DE" stroke-width="1" opacity="0.16"/><line x1="421" y1="527" x2="469" y2="529" stroke="#74C2DE" stroke-width="1" opacity="0.16"/><line x1="619" y1="240" x2="618" y2="267" stroke="#74C2DE" stroke-width="1" opacity="0.16"/><line x1="619" y1="240" x2="653" y2="203" stroke="#74C2DE" stroke-width="1" opacity="0.16"/><line x1="619" y1="240" x2="675" y2="239" stroke="#74C2DE" stroke-width="1" opacity="0.16"/><line x1="749" y1="211" x2="741" y2="224" stroke="#74C2DE" stroke-width="1" opacity="0.16"/><line x1="749" y1="211" x2="745" y2="195" stroke="#74C2DE" stroke-width="1" opacity="0.16"/><line x1="749" y1="211" x2="784" y2="218" stroke="#74C2DE" stroke-width="1" opacity="0.16"/><line x1="449" y1="460" x2="418" y2="458" stroke="#74C2DE" stroke-width="1" opacity="0.16"/><line x1="449" y1="460" x2="488" y2="460" stroke="#74C2DE" stroke-width="1" opacity="0.16"/><line x1="449" y1="460" x2="469" y2="414" stroke="#74C2DE" stroke-width="1" opacity="0.16"/><line x1="414" y1="531" x2="421" y2="527" stroke="#74C2DE" stroke-width="1" opacity="0.16"/><line x1="414" y1="531" x2="396" y2="509" stroke="#74C2DE" stroke-width="1" opacity="0.16"/><line x1="414" y1="531" x2="469" y2="529" stroke="#74C2DE" stroke-width="1" opacity="0.16"/><line x1="617" y1="437" x2="620" y2="431" stroke="#74C2DE" stroke-width="1" opacity="0.16"/><line x1="617" y1="437" x2="602" y2="441" stroke="#74C2DE" stroke-width="1" opacity="0.16"/><line x1="617" y1="437" x2="607" y2="418" stroke="#74C2DE" stroke-width="1" opacity="0.16"/><line x1="325" y1="379" x2="350" y2="397" stroke="#74C2DE" stroke-width="1" opacity="0.16"/><line x1="325" y1="379" x2="319" y2="327" stroke="#74C2DE" stroke-width="1" opacity="0.16"/><line x1="325" y1="379" x2="387" y2="390" stroke="#74C2DE" stroke-width="1" opacity="0.16"/><line x1="469" y1="414" x2="456" y2="410" stroke="#74C2DE" stroke-width="1" opacity="0.16"/><line x1="469" y1="414" x2="438" y2="385" stroke="#74C2DE" stroke-width="1" opacity="0.16"/><line x1="469" y1="414" x2="488" y2="460" stroke="#74C2DE" stroke-width="1" opacity="0.16"/><line x1="703" y1="529" x2="695" y2="497" stroke="#74C2DE" stroke-width="1" opacity="0.16"/><line x1="703" y1="529" x2="658" y2="513" stroke="#74C2DE" stroke-width="1" opacity="0.16"/><line x1="703" y1="529" x2="642" y2="480" stroke="#74C2DE" stroke-width="1" opacity="0.16"/><line x1="590" y1="440" x2="602" y2="441" stroke="#74C2DE" stroke-width="1" opacity="0.16"/><line x1="590" y1="440" x2="588" y2="423" stroke="#74C2DE" stroke-width="1" opacity="0.16"/><line x1="590" y1="440" x2="617" y2="437" stroke="#74C2DE" stroke-width="1" opacity="0.16"/><line x1="592" y1="311" x2="568" y2="327" stroke="#74C2DE" stroke-width="1" opacity="0.16"/><line x1="592" y1="311" x2="576" y2="281" stroke="#74C2DE" stroke-width="1" opacity="0.16"/><line x1="592" y1="311" x2="607" y2="342" stroke="#74C2DE" stroke-width="1" opacity="0.16"/><line x1="469" y1="529" x2="482" y2="539" stroke="#74C2DE" stroke-width="1" opacity="0.16"/><line x1="469" y1="529" x2="421" y2="527" stroke="#74C2DE" stroke-width="1" opacity="0.16"/><line x1="469" y1="529" x2="414" y2="531" stroke="#74C2DE" stroke-width="1" opacity="0.16"/><line x1="646" y1="344" x2="661" y2="348" stroke="#74C2DE" stroke-width="1" opacity="0.16"/><line x1="646" y1="344" x2="660" y2="316" stroke="#74C2DE" stroke-width="1" opacity="0.16"/><line x1="646" y1="344" x2="607" y2="342" stroke="#74C2DE" stroke-width="1" opacity="0.16"/><line x1="519" y1="270" x2="551" y2="263" stroke="#74C2DE" stroke-width="1" opacity="0.16"/><line x1="519" y1="270" x2="527" y2="310" stroke="#74C2DE" stroke-width="1" opacity="0.16"/><line x1="519" y1="270" x2="564" y2="249" stroke="#74C2DE" stroke-width="1" opacity="0.16"/><line x1="596" y1="494" x2="611" y2="505" stroke="#74C2DE" stroke-width="1" opacity="0.16"/><line x1="596" y1="494" x2="610" y2="473" stroke="#74C2DE" stroke-width="1" opacity="0.16"/><line x1="596" y1="494" x2="585" y2="471" stroke="#74C2DE" stroke-width="1" opacity="0.16"/><line x1="710" y1="245" x2="675" y2="239" stroke="#74C2DE" stroke-width="1" opacity="0.16"/><line x1="710" y1="245" x2="741" y2="224" stroke="#74C2DE" stroke-width="1" opacity="0.16"/><line x1="710" y1="245" x2="749" y2="211" stroke="#74C2DE" stroke-width="1" opacity="0.16"/><line x1="704" y1="410" x2="716" y2="420" stroke="#74C2DE" stroke-width="1" opacity="0.16"/><line x1="704" y1="410" x2="688" y2="394" stroke="#74C2DE" stroke-width="1" opacity="0.16"/><line x1="704" y1="410" x2="687" y2="339" stroke="#74C2DE" stroke-width="1" opacity="0.16"/><line x1="671" y1="297" x2="667" y2="287" stroke="#74C2DE" stroke-width="1" opacity="0.16"/><line x1="671" y1="297" x2="660" y2="316" stroke="#74C2DE" stroke-width="1" opacity="0.16"/><line x1="671" y1="297" x2="687" y2="339" stroke="#74C2DE" stroke-width="1" opacity="0.16"/><line x1="556" y1="319" x2="568" y2="327" stroke="#74C2DE" stroke-width="1" opacity="0.16"/><line x1="556" y1="319" x2="527" y2="310" stroke="#74C2DE" stroke-width="1" opacity="0.16"/><line x1="556" y1="319" x2="592" y2="311" stroke="#74C2DE" stroke-width="1" opacity="0.16"/><line x1="660" y1="316" x2="671" y2="297" stroke="#74C2DE" stroke-width="1" opacity="0.16"/><line x1="660" y1="316" x2="667" y2="287" stroke="#74C2DE" stroke-width="1" opacity="0.16"/><line x1="660" y1="316" x2="646" y2="344" stroke="#74C2DE" stroke-width="1" opacity="0.16"/><line x1="547" y1="390" x2="530" y2="398" stroke="#74C2DE" stroke-width="1" opacity="0.16"/><line x1="547" y1="390" x2="516" y2="372" stroke="#74C2DE" stroke-width="1" opacity="0.16"/><line x1="547" y1="390" x2="549" y2="434" stroke="#74C2DE" stroke-width="1" opacity="0.16"/><line x1="745" y1="195" x2="749" y2="211" stroke="#74C2DE" stroke-width="1" opacity="0.16"/><line x1="745" y1="195" x2="741" y2="224" stroke="#74C2DE" stroke-width="1" opacity="0.16"/><line x1="745" y1="195" x2="789" y2="191" stroke="#74C2DE" stroke-width="1" opacity="0.16"/><line x1="379" y1="303" x2="346" y2="313" stroke="#74C2DE" stroke-width="1" opacity="0.16"/><line x1="379" y1="303" x2="337" y2="309" stroke="#74C2DE" stroke-width="1" opacity="0.16"/><line x1="379" y1="303" x2="424" y2="299" stroke="#74C2DE" stroke-width="1" opacity="0.16"/><line x1="642" y1="454" x2="642" y2="480" stroke="#74C2DE" stroke-width="1" opacity="0.16"/><line x1="642" y1="454" x2="617" y2="437" stroke="#74C2DE" stroke-width="1" opacity="0.16"/><line x1="642" y1="454" x2="612" y2="462" stroke="#74C2DE" stroke-width="1" opacity="0.16"/><line x1="614" y1="406" x2="607" y2="401" stroke="#74C2DE" stroke-width="1" opacity="0.16"/><line x1="614" y1="406" x2="607" y2="418" stroke="#74C2DE" stroke-width="1" opacity="0.16"/><line x1="614" y1="406" x2="620" y2="431" stroke="#74C2DE" stroke-width="1" opacity="0.16"/><line x1="290" y1="325" x2="298" y2="315" stroke="#74C2DE" stroke-width="1" opacity="0.16"/><line x1="290" y1="325" x2="319" y2="327" stroke="#74C2DE" stroke-width="1" opacity="0.16"/><line x1="290" y1="325" x2="337" y2="309" stroke="#74C2DE" stroke-width="1" opacity="0.16"/><line x1="610" y1="473" x2="612" y2="462" stroke="#74C2DE" stroke-width="1" opacity="0.16"/><line x1="610" y1="473" x2="596" y2="494" stroke="#74C2DE" stroke-width="1" opacity="0.16"/><line x1="610" y1="473" x2="585" y2="471" stroke="#74C2DE" stroke-width="1" opacity="0.16"/><line x1="825" y1="314" x2="801" y2="335" stroke="#74C2DE" stroke-width="1" opacity="0.16"/><line x1="825" y1="314" x2="844" y2="340" stroke="#74C2DE" stroke-width="1" opacity="0.16"/><line x1="825" y1="314" x2="781" y2="368" stroke="#74C2DE" stroke-width="1" opacity="0.16"/><line x1="687" y1="339" x2="661" y2="348" stroke="#74C2DE" stroke-width="1" opacity="0.16"/><line x1="687" y1="339" x2="660" y2="316" stroke="#74C2DE" stroke-width="1" opacity="0.16"/><line x1="687" y1="339" x2="646" y2="344" stroke="#74C2DE" stroke-width="1" opacity="0.16"/><line x1="585" y1="471" x2="610" y2="473" stroke="#74C2DE" stroke-width="1" opacity="0.16"/><line x1="585" y1="471" x2="596" y2="494" stroke="#74C2DE" stroke-width="1" opacity="0.16"/><line x1="585" y1="471" x2="612" y2="462" stroke="#74C2DE" stroke-width="1" opacity="0.16"/><line x1="848" y1="388" x2="844" y2="340" stroke="#74C2DE" stroke-width="1" opacity="0.16"/><line x1="848" y1="388" x2="781" y2="368" stroke="#74C2DE" stroke-width="1" opacity="0.16"/><line x1="848" y1="388" x2="801" y2="335" stroke="#74C2DE" stroke-width="1" opacity="0.16"/><line x1="488" y1="226" x2="448" y2="221" stroke="#74C2DE" stroke-width="1" opacity="0.16"/><line x1="488" y1="226" x2="519" y2="270" stroke="#74C2DE" stroke-width="1" opacity="0.16"/><line x1="488" y1="226" x2="429" y2="199" stroke="#74C2DE" stroke-width="1" opacity="0.16"/><line x1="438" y1="385" x2="456" y2="410" stroke="#74C2DE" stroke-width="1" opacity="0.16"/><line x1="438" y1="385" x2="469" y2="414" stroke="#74C2DE" stroke-width="1" opacity="0.16"/><line x1="438" y1="385" x2="406" y2="348" stroke="#74C2DE" stroke-width="1" opacity="0.16"/><line x1="549" y1="434" x2="588" y2="423" stroke="#74C2DE" stroke-width="1" opacity="0.16"/><line x1="549" y1="434" x2="530" y2="398" stroke="#74C2DE" stroke-width="1" opacity="0.16"/><line x1="549" y1="434" x2="590" y2="440" stroke="#74C2DE" stroke-width="1" opacity="0.16"/><line x1="391" y1="407" x2="387" y2="390" stroke="#74C2DE" stroke-width="1" opacity="0.16"/><line x1="391" y1="407" x2="350" y2="397" stroke="#74C2DE" stroke-width="1" opacity="0.16"/><line x1="391" y1="407" x2="438" y2="385" stroke="#74C2DE" stroke-width="1" opacity="0.16"/><line x1="413" y1="252" x2="407" y2="258" stroke="#74C2DE" stroke-width="1" opacity="0.16"/><line x1="413" y1="252" x2="448" y2="221" stroke="#74C2DE" stroke-width="1" opacity="0.16"/><line x1="413" y1="252" x2="424" y2="299" stroke="#74C2DE" stroke-width="1" opacity="0.16"/><line x1="789" y1="234" x2="784" y2="218" stroke="#74C2DE" stroke-width="1" opacity="0.16"/><line x1="789" y1="234" x2="789" y2="191" stroke="#74C2DE" stroke-width="1" opacity="0.16"/><line x1="789" y1="234" x2="749" y2="211" stroke="#74C2DE" stroke-width="1" opacity="0.16"/><line x1="319" y1="327" x2="298" y2="315" stroke="#74C2DE" stroke-width="1" opacity="0.16"/><line x1="319" y1="327" x2="337" y2="309" stroke="#74C2DE" stroke-width="1" opacity="0.16"/><line x1="319" y1="327" x2="290" y2="325" stroke="#74C2DE" stroke-width="1" opacity="0.16"/><line x1="564" y1="249" x2="551" y2="263" stroke="#74C2DE" stroke-width="1" opacity="0.16"/><line x1="564" y1="249" x2="576" y2="281" stroke="#74C2DE" stroke-width="1" opacity="0.16"/><line x1="564" y1="249" x2="519" y2="270" stroke="#74C2DE" stroke-width="1" opacity="0.16"/><line x1="407" y1="258" x2="413" y2="252" stroke="#74C2DE" stroke-width="1" opacity="0.16"/><line x1="407" y1="258" x2="424" y2="299" stroke="#74C2DE" stroke-width="1" opacity="0.16"/><line x1="407" y1="258" x2="379" y2="303" stroke="#74C2DE" stroke-width="1" opacity="0.16"/><line x1="551" y1="263" x2="564" y2="249" stroke="#74C2DE" stroke-width="1" opacity="0.16"/><line x1="551" y1="263" x2="576" y2="281" stroke="#74C2DE" stroke-width="1" opacity="0.16"/><line x1="551" y1="263" x2="519" y2="270" stroke="#74C2DE" stroke-width="1" opacity="0.16"/><line x1="516" y1="372" x2="530" y2="398" stroke="#74C2DE" stroke-width="1" opacity="0.16"/><line x1="516" y1="372" x2="547" y2="390" stroke="#74C2DE" stroke-width="1" opacity="0.16"/><line x1="516" y1="372" x2="477" y2="349" stroke="#74C2DE" stroke-width="1" opacity="0.16"/><circle cx="902" cy="279" r="12" fill="#FBB615" opacity="0.16" filter="url(#b)"/><circle cx="902" cy="279" r="3.0" fill="#FBB615"/><circle cx="620" cy="431" r="2.0" fill="#74C2DE"/><circle cx="406" cy="348" r="2.0" fill="#4E9ABA"/><circle cx="387" cy="390" r="2.0" fill="#74C2DE"/><circle cx="781" cy="368" r="2.0" fill="#4E9ABA"/><circle cx="588" cy="423" r="2.0" fill="#74C2DE"/><circle cx="688" cy="394" r="12" fill="#FBB615" opacity="0.16" filter="url(#b)"/><circle cx="688" cy="394" r="3.0" fill="#FBB615"/><circle cx="576" cy="281" r="2.0" fill="#74C2DE"/><circle cx="844" cy="340" r="2.0" fill="#4E9ABA"/><circle cx="612" cy="462" r="2.0" fill="#74C2DE"/><circle cx="456" cy="410" r="2.0" fill="#4E9ABA"/><circle cx="448" cy="221" r="2.0" fill="#74C2DE"/><circle cx="424" cy="299" r="12" fill="#FBB615" opacity="0.16" filter="url(#b)"/><circle cx="424" cy="299" r="3.0" fill="#FBB615"/><circle cx="396" cy="509" r="2.0" fill="#74C2DE"/><circle cx="530" cy="398" r="2.0" fill="#4E9ABA"/><circle cx="695" cy="497" r="2.0" fill="#74C2DE"/><circle cx="418" cy="458" r="2.0" fill="#4E9ABA"/><circle cx="658" cy="513" r="2.0" fill="#74C2DE"/><circle cx="716" cy="420" r="12" fill="#FBB615" opacity="0.16" filter="url(#b)"/><circle cx="716" cy="420" r="3.0" fill="#FBB615"/><circle cx="429" cy="199" r="2.0" fill="#74C2DE"/><circle cx="527" cy="310" r="2.0" fill="#4E9ABA"/><circle cx="801" cy="335" r="2.0" fill="#74C2DE"/><circle cx="607" cy="401" r="2.0" fill="#4E9ABA"/><circle cx="784" cy="218" r="2.0" fill="#74C2DE"/><circle cx="789" cy="191" r="12" fill="#FBB615" opacity="0.16" filter="url(#b)"/><circle cx="789" cy="191" r="3.0" fill="#FBB615"/><circle cx="661" cy="348" r="2.0" fill="#74C2DE"/><circle cx="607" cy="342" r="2.0" fill="#4E9ABA"/><circle cx="607" cy="418" r="2.0" fill="#74C2DE"/><circle cx="667" cy="287" r="2.0" fill="#4E9ABA"/><circle cx="602" cy="441" r="2.0" fill="#74C2DE"/><circle cx="298" cy="315" r="12" fill="#FBB615" opacity="0.16" filter="url(#b)"/><circle cx="298" cy="315" r="3.0" fill="#FBB615"/><circle cx="304" cy="442" r="2.0" fill="#74C2DE"/><circle cx="611" cy="505" r="2.0" fill="#4E9ABA"/><circle cx="618" cy="267" r="2.0" fill="#74C2DE"/><circle cx="653" cy="203" r="2.0" fill="#4E9ABA"/><circle cx="488" cy="460" r="2.0" fill="#74C2DE"/><circle cx="741" cy="224" r="12" fill="#FBB615" opacity="0.16" filter="url(#b)"/><circle cx="741" cy="224" r="3.0" fill="#FBB615"/><circle cx="752" cy="306" r="2.0" fill="#74C2DE"/><circle cx="642" cy="480" r="2.0" fill="#4E9ABA"/><circle cx="482" cy="539" r="2.0" fill="#74C2DE"/><circle cx="337" cy="309" r="2.0" fill="#4E9ABA"/><circle cx="346" cy="313" r="2.0" fill="#74C2DE"/><circle cx="477" cy="349" r="12" fill="#FBB615" opacity="0.16" filter="url(#b)"/><circle cx="477" cy="349" r="3.0" fill="#FBB615"/><circle cx="738" cy="292" r="2.0" fill="#74C2DE"/><circle cx="530" cy="505" r="2.0" fill="#4E9ABA"/><circle cx="350" cy="397" r="2.0" fill="#74C2DE"/><circle cx="675" cy="239" r="2.0" fill="#4E9ABA"/><circle cx="568" cy="327" r="2.0" fill="#74C2DE"/><circle cx="421" cy="527" r="12" fill="#FBB615" opacity="0.16" filter="url(#b)"/><circle cx="421" cy="527" r="3.0" fill="#FBB615"/><circle cx="619" cy="240" r="2.0" fill="#74C2DE"/><circle cx="749" cy="211" r="2.0" fill="#4E9ABA"/><circle cx="449" cy="460" r="2.0" fill="#74C2DE"/><circle cx="414" cy="531" r="2.0" fill="#4E9ABA"/><circle cx="617" cy="437" r="2.0" fill="#74C2DE"/><circle cx="325" cy="379" r="12" fill="#FBB615" opacity="0.16" filter="url(#b)"/><circle cx="325" cy="379" r="3.0" fill="#FBB615"/><circle cx="469" cy="414" r="2.0" fill="#74C2DE"/><circle cx="703" cy="529" r="2.0" fill="#4E9ABA"/><circle cx="590" cy="440" r="2.0" fill="#74C2DE"/><circle cx="592" cy="311" r="2.0" fill="#4E9ABA"/><circle cx="469" cy="529" r="2.0" fill="#74C2DE"/><circle cx="646" cy="344" r="12" fill="#FBB615" opacity="0.16" filter="url(#b)"/><circle cx="646" cy="344" r="3.0" fill="#FBB615"/><circle cx="519" cy="270" r="2.0" fill="#74C2DE"/><circle cx="596" cy="494" r="2.0" fill="#4E9ABA"/><circle cx="710" cy="245" r="2.0" fill="#74C2DE"/><circle cx="704" cy="410" r="2.0" fill="#4E9ABA"/><circle cx="671" cy="297" r="2.0" fill="#74C2DE"/><circle cx="556" cy="319" r="12" fill="#FBB615" opacity="0.16" filter="url(#b)"/><circle cx="556" cy="319" r="3.0" fill="#FBB615"/><circle cx="660" cy="316" r="2.0" fill="#74C2DE"/><circle cx="547" cy="390" r="2.0" fill="#4E9ABA"/><circle cx="745" cy="195" r="2.0" fill="#74C2DE"/><circle cx="379" cy="303" r="2.0" fill="#4E9ABA"/><circle cx="642" cy="454" r="2.0" fill="#74C2DE"/><circle cx="614" cy="406" r="12" fill="#FBB615" opacity="0.16" filter="url(#b)"/><circle cx="614" cy="406" r="3.0" fill="#FBB615"/><circle cx="290" cy="325" r="2.0" fill="#74C2DE"/><circle cx="610" cy="473" r="2.0" fill="#4E9ABA"/><circle cx="825" cy="314" r="2.0" fill="#74C2DE"/><circle cx="687" cy="339" r="2.0" fill="#4E9ABA"/><circle cx="585" cy="471" r="2.0" fill="#74C2DE"/><circle cx="848" cy="388" r="12" fill="#FBB615" opacity="0.16" filter="url(#b)"/><circle cx="848" cy="388" r="3.0" fill="#FBB615"/><circle cx="488" cy="226" r="2.0" fill="#74C2DE"/><circle cx="438" cy="385" r="2.0" fill="#4E9ABA"/><circle cx="549" cy="434" r="2.0" fill="#74C2DE"/><circle cx="391" cy="407" r="2.0" fill="#4E9ABA"/><circle cx="413" cy="252" r="2.0" fill="#74C2DE"/><circle cx="789" cy="234" r="12" fill="#FBB615" opacity="0.16" filter="url(#b)"/><circle cx="789" cy="234" r="3.0" fill="#FBB615"/><circle cx="319" cy="327" r="2.0" fill="#74C2DE"/><circle cx="564" cy="249" r="2.0" fill="#4E9ABA"/><circle cx="407" cy="258" r="2.0" fill="#74C2DE"/><circle cx="551" cy="263" r="2.0" fill="#4E9ABA"/><circle cx="516" cy="372" r="2.0" fill="#74C2DE"/></svg>