<svg xmlns="http://www.w3.org/2000/svg" viewBox="0 0 1200 720" role="img">
<defs>
<linearGradient id="bg" x1="0" y1="0" x2="1" y2="1">
<stop offset="0" stop-color="#070C1E"/><stop offset="1" stop-color="#0E1A3A"/></linearGradient>
<radialGradient id="glow" cx="50%" cy="50%" r="50%">
<stop offset="0" stop-color="#FBB615" stop-opacity="0.5"/><stop offset="1" stop-color="#FBB615" stop-opacity="0"/></radialGradient>
<radialGradient id="glowS" cx="50%" cy="50%" r="50%">
<stop offset="0" stop-color="#74C2DE" stop-opacity="0.5"/><stop offset="1" stop-color="#74C2DE" stop-opacity="0"/></radialGradient>
<filter id="b"><feGaussianBlur stdDeviation="6"/></filter>
</defs>
<rect width="1200" height="720" fill="url(#bg)"/>
<rect width="1200" height="720" fill="url(#glowS)" opacity="0.12"/><line x1="284" y1="107" x2="381" y2="117" stroke="#74C2DE" stroke-width="1" opacity="0.06"/><line x1="284" y1="107" x2="262" y2="239" stroke="#74C2DE" stroke-width="1" opacity="0.02"/><line x1="284" y1="107" x2="353" y2="191" stroke="#74C2DE" stroke-width="1" opacity="0.05"/><line x1="381" y1="117" x2="485" y2="111" stroke="#74C2DE" stroke-width="1" opacity="0.05"/><line x1="381" y1="117" x2="353" y2="191" stroke="#74C2DE" stroke-width="1" opacity="0.08"/><line x1="485" y1="111" x2="512" y2="195" stroke="#74C2DE" stroke-width="1" opacity="0.07"/><line x1="650" y1="133" x2="738" y2="94" stroke="#74C2DE" stroke-width="1" opacity="0.07"/><line x1="650" y1="133" x2="615" y2="209" stroke="#74C2DE" stroke-width="1" opacity="0.08"/><line x1="650" y1="133" x2="732" y2="227" stroke="#74C2DE" stroke-width="1" opacity="0.03"/><line x1="738" y1="94" x2="867" y2="135" stroke="#74C2DE" stroke-width="1" opacity="0.02"/><line x1="738" y1="94" x2="732" y2="227" stroke="#74C2DE" stroke-width="1" opacity="0.02"/><line x1="867" y1="135" x2="895" y2="257" stroke="#74C2DE" stroke-width="1" opacity="0.03"/><line x1="159" y1="267" x2="262" y2="239" stroke="#74C2DE" stroke-width="1" opacity="0.05"/><line x1="159" y1="267" x2="120" y2="363" stroke="#74C2DE" stroke-width="1" opacity="0.06"/><line x1="159" y1="267" x2="247" y2="332" stroke="#74C2DE" stroke-width="1" opacity="0.05"/><line x1="262" y1="239" x2="353" y2="191" stroke="#74C2DE" stroke-width="1" opacity="0.06"/><line x1="262" y1="239" x2="247" y2="332" stroke="#74C2DE" stroke-width="1" opacity="0.07"/><line x1="512" y1="195" x2="615" y2="209" stroke="#74C2DE" stroke-width="1" opacity="0.06"/><line x1="615" y1="209" x2="732" y2="227" stroke="#74C2DE" stroke-width="1" opacity="0.04"/><line x1="615" y1="209" x2="625" y2="328" stroke="#74C2DE" stroke-width="1" opacity="0.04"/><line x1="732" y1="227" x2="625" y2="328" stroke="#74C2DE" stroke-width="1" opacity="0.00"/><line x1="732" y1="227" x2="753" y2="316" stroke="#74C2DE" stroke-width="1" opacity="0.07"/><line x1="895" y1="257" x2="1032" y2="241" stroke="#74C2DE" stroke-width="1" opacity="0.02"/><line x1="895" y1="257" x2="921" y2="342" stroke="#74C2DE" stroke-width="1" opacity="0.07"/><line x1="1032" y1="241" x2="921" y2="342" stroke="#74C2DE" stroke-width="1" opacity="0.00"/><line x1="1032" y1="241" x2="1058" y2="341" stroke="#74C2DE" stroke-width="1" opacity="0.06"/><line x1="120" y1="363" x2="247" y2="332" stroke="#74C2DE" stroke-width="1" opacity="0.02"/><line x1="120" y1="363" x2="157" y2="498" stroke="#74C2DE" stroke-width="1" opacity="0.01"/><line x1="120" y1="363" x2="210" y2="447" stroke="#74C2DE" stroke-width="1" opacity="0.03"/><line x1="247" y1="332" x2="210" y2="447" stroke="#74C2DE" stroke-width="1" opacity="0.04"/><line x1="420" y1="390" x2="537" y2="367" stroke="#74C2DE" stroke-width="1" opacity="0.04"/><line x1="420" y1="390" x2="413" y2="468" stroke="#74C2DE" stroke-width="1" opacity="0.09"/><line x1="420" y1="390" x2="548" y2="462" stroke="#74C2DE" stroke-width="1" opacity="0.00"/><line x1="537" y1="367" x2="625" y2="328" stroke="#74C2DE" stroke-width="1" opacity="0.06"/><line x1="537" y1="367" x2="548" y2="462" stroke="#74C2DE" stroke-width="1" opacity="0.07"/><line x1="537" y1="367" x2="606" y2="480" stroke="#74C2DE" stroke-width="1" opacity="0.02"/><line x1="625" y1="328" x2="753" y2="316" stroke="#74C2DE" stroke-width="1" opacity="0.03"/><line x1="753" y1="316" x2="792" y2="452" stroke="#74C2DE" stroke-width="1" opacity="0.01"/><line x1="921" y1="342" x2="1058" y2="341" stroke="#74C2DE" stroke-width="1" opacity="0.02"/><line x1="921" y1="342" x2="867" y2="457" stroke="#74C2DE" stroke-width="1" opacity="0.03"/><line x1="157" y1="498" x2="210" y2="447" stroke="#74C2DE" stroke-width="1" opacity="0.09"/><line x1="157" y1="498" x2="89" y2="570" stroke="#74C2DE" stroke-width="1" opacity="0.06"/><line x1="157" y1="498" x2="218" y2="555" stroke="#74C2DE" stroke-width="1" opacity="0.08"/><line x1="210" y1="447" x2="218" y2="555" stroke="#74C2DE" stroke-width="1" opacity="0.05"/><line x1="413" y1="468" x2="548" y2="462" stroke="#74C2DE" stroke-width="1" opacity="0.02"/><line x1="413" y1="468" x2="404" y2="564" stroke="#74C2DE" stroke-width="1" opacity="0.06"/><line x1="548" y1="462" x2="606" y2="480" stroke="#74C2DE" stroke-width="1" opacity="0.11"/><line x1="548" y1="462" x2="515" y2="586" stroke="#74C2DE" stroke-width="1" opacity="0.03"/><line x1="606" y1="480" x2="515" y2="586" stroke="#74C2DE" stroke-width="1" opacity="0.01"/><line x1="606" y1="480" x2="615" y2="609" stroke="#74C2DE" stroke-width="1" opacity="0.03"/><line x1="792" y1="452" x2="867" y2="457" stroke="#74C2DE" stroke-width="1" opacity="0.09"/><line x1="867" y1="457" x2="869" y2="584" stroke="#74C2DE" stroke-width="1" opacity="0.03"/><line x1="1067" y1="491" x2="1007" y2="572" stroke="#74C2DE" stroke-width="1" opacity="0.06"/><line x1="89" y1="570" x2="218" y2="555" stroke="#74C2DE" stroke-width="1" opacity="0.02"/><line x1="404" y1="564" x2="515" y2="586" stroke="#74C2DE" stroke-width="1" opacity="0.04"/><line x1="404" y1="564" x2="357" y2="702" stroke="#74C2DE" stroke-width="1" opacity="0.01"/><line x1="515" y1="586" x2="615" y2="609" stroke="#74C2DE" stroke-width="1" opacity="0.06"/><line x1="515" y1="586" x2="538" y2="721" stroke="#74C2DE" stroke-width="1" opacity="0.01"/><line x1="615" y1="609" x2="740" y2="601" stroke="#74C2DE" stroke-width="1" opacity="0.03"/><line x1="615" y1="609" x2="538" y2="721" stroke="#74C2DE" stroke-width="1" opacity="0.02"/><line x1="615" y1="609" x2="608" y2="749" stroke="#74C2DE" stroke-width="1" opacity="0.01"/><line x1="740" y1="601" x2="869" y2="584" stroke="#74C2DE" stroke-width="1" opacity="0.02"/><line x1="740" y1="601" x2="747" y2="691" stroke="#74C2DE" stroke-width="1" opacity="0.07"/><line x1="869" y1="584" x2="1007" y2="572" stroke="#74C2DE" stroke-width="1" opacity="0.01"/><line x1="869" y1="584" x2="922" y2="696" stroke="#74C2DE" stroke-width="1" opacity="0.03"/><line x1="1007" y1="572" x2="1014" y2="676" stroke="#74C2DE" stroke-width="1" opacity="0.05"/><line x1="158" y1="734" x2="234" y2="741" stroke="#74C2DE" stroke-width="1" opacity="0.09"/><line x1="158" y1="734" x2="87" y2="837" stroke="#74C2DE" stroke-width="1" opacity="0.03"/><line x1="158" y1="734" x2="229" y2="838" stroke="#74C2DE" stroke-width="1" opacity="0.03"/><line x1="234" y1="741" x2="357" y2="702" stroke="#74C2DE" stroke-width="1" opacity="0.03"/><line x1="234" y1="741" x2="229" y2="838" stroke="#74C2DE" stroke-width="1" opacity="0.06"/><line x1="357" y1="702" x2="370" y2="826" stroke="#74C2DE" stroke-width="1" opacity="0.03"/><line x1="538" y1="721" x2="608" y2="749" stroke="#74C2DE" stroke-width="1" opacity="0.09"/><line x1="538" y1="721" x2="547" y2="829" stroke="#74C2DE" stroke-width="1" opacity="0.05"/><line x1="608" y1="749" x2="547" y2="829" stroke="#74C2DE" stroke-width="1" opacity="0.06"/><line x1="608" y1="749" x2="646" y2="859" stroke="#74C2DE" stroke-width="1" opacity="0.04"/><line x1="608" y1="749" x2="745" y2="802" stroke="#74C2DE" stroke-width="1" opacity="0.00"/><line x1="747" y1="691" x2="745" y2="802" stroke="#74C2DE" stroke-width="1" opacity="0.05"/><line x1="922" y1="696" x2="1014" y2="676" stroke="#74C2DE" stroke-width="1" opacity="0.07"/><line x1="922" y1="696" x2="1010" y2="805" stroke="#74C2DE" stroke-width="1" opacity="0.01"/><line x1="1014" y1="676" x2="1010" y2="805" stroke="#74C2DE" stroke-width="1" opacity="0.02"/><line x1="87" y1="837" x2="229" y2="838" stroke="#74C2DE" stroke-width="1" opacity="0.01"/><line x1="229" y1="838" x2="370" y2="826" stroke="#74C2DE" stroke-width="1" opacity="0.01"/><line x1="229" y1="838" x2="226" y2="986" stroke="#74C2DE" stroke-width="1" opacity="0.00"/><line x1="370" y1="826" x2="411" y2="958" stroke="#74C2DE" stroke-width="1" opacity="0.01"/><line x1="547" y1="829" x2="646" y2="859" stroke="#74C2DE" stroke-width="1" opacity="0.06"/><line x1="547" y1="829" x2="504" y2="918" stroke="#74C2DE" stroke-width="1" opacity="0.06"/><line x1="646" y1="859" x2="745" y2="802" stroke="#74C2DE" stroke-width="1" opacity="0.04"/><line x1="646" y1="859" x2="603" y2="987" stroke="#74C2DE" stroke-width="1" opacity="0.02"/><line x1="646" y1="859" x2="749" y2="966" stroke="#74C2DE" stroke-width="1" opacity="0.00"/><line x1="933" y1="855" x2="1010" y2="805" stroke="#74C2DE" stroke-width="1" opacity="0.07"/><line x1="933" y1="855" x2="881" y2="976" stroke="#74C2DE" stroke-width="1" opacity="0.02"/><line x1="933" y1="855" x2="1038" y2="933" stroke="#74C2DE" stroke-width="1" opacity="0.02"/><line x1="1010" y1="805" x2="1038" y2="933" stroke="#74C2DE" stroke-width="1" opacity="0.02"/><line x1="139" y1="985" x2="226" y2="986" stroke="#74C2DE" stroke-width="1" opacity="0.08"/><line x1="411" y1="958" x2="504" y2="918" stroke="#74C2DE" stroke-width="1" opacity="0.06"/><line x1="504" y1="918" x2="603" y2="987" stroke="#74C2DE" stroke-width="1" opacity="0.04"/><line x1="603" y1="987" x2="749" y2="966" stroke="#74C2DE" stroke-width="1" opacity="0.00"/><line x1="749" y1="966" x2="881" y2="976" stroke="#74C2DE" stroke-width="1" opacity="0.02"/><circle cx="116" cy="115" r="2.2" fill="#4E9ABA"/><circle cx="284" cy="107" r="2.2" fill="#74C2DE"/><circle cx="381" cy="117" r="13" fill="#FBB615" opacity="0.17" filter="url(#b)"/><circle cx="381" cy="117" r="3.2" fill="#FBB615"/><circle cx="485" cy="111" r="2.2" fill="#4E9ABA"/><circle cx="650" cy="133" r="2.2" fill="#74C2DE"/><circle cx="738" cy="94" r="2.2" fill="#74C2DE"/><circle cx="867" cy="135" r="2.2" fill="#4E9ABA"/><circle cx="1045" cy="73" r="2.2" fill="#74C2DE"/><circle cx="159" cy="267" r="2.2" fill="#74C2DE"/><circle cx="262" cy="239" r="13" fill="#FBB615" opacity="0.17" filter="url(#b)"/><circle cx="262" cy="239" r="3.2" fill="#FBB615"/><circle cx="353" cy="191" r="2.2" fill="#74C2DE"/><circle cx="512" cy="195" r="2.2" fill="#74C2DE"/><circle cx="615" cy="209" r="2.2" fill="#4E9ABA"/><circle cx="732" cy="227" r="2.2" fill="#74C2DE"/><circle cx="895" cy="257" r="2.2" fill="#74C2DE"/><circle cx="1032" cy="241" r="2.2" fill="#4E9ABA"/><circle cx="120" cy="363" r="13" fill="#FBB615" opacity="0.17" filter="url(#b)"/><circle cx="120" cy="363" r="3.2" fill="#FBB615"/><circle cx="247" cy="332" r="2.2" fill="#74C2DE"/><circle cx="420" cy="390" r="2.2" fill="#4E9ABA"/><circle cx="537" cy="367" r="2.2" fill="#74C2DE"/><circle cx="625" cy="328" r="2.2" fill="#74C2DE"/><circle cx="753" cy="316" r="2.2" fill="#4E9ABA"/><circle cx="921" cy="342" r="2.2" fill="#74C2DE"/><circle cx="1058" cy="341" r="13" fill="#FBB615" opacity="0.17" filter="url(#b)"/><circle cx="1058" cy="341" r="3.2" fill="#FBB615"/><circle cx="157" cy="498" r="2.2" fill="#4E9ABA"/><circle cx="210" cy="447" r="2.2" fill="#74C2DE"/><circle cx="413" cy="468" r="2.2" fill="#74C2DE"/><circle cx="548" cy="462" r="2.2" fill="#4E9ABA"/><circle cx="606" cy="480" r="2.2" fill="#74C2DE"/><circle cx="792" cy="452" r="2.2" fill="#74C2DE"/><circle cx="867" cy="457" r="13" fill="#FBB615" opacity="0.17" filter="url(#b)"/><circle cx="867" cy="457" r="3.2" fill="#FBB615"/><circle cx="1067" cy="491" r="2.2" fill="#74C2DE"/><circle cx="89" cy="570" r="2.2" fill="#74C2DE"/><circle cx="218" cy="555" r="2.2" fill="#4E9ABA"/><circle cx="404" cy="564" r="2.2" fill="#74C2DE"/><circle cx="515" cy="586" r="2.2" fill="#74C2DE"/><circle cx="615" cy="609" r="2.2" fill="#4E9ABA"/><circle cx="740" cy="601" r="13" fill="#FBB615" opacity="0.17" filter="url(#b)"/><circle cx="740" cy="601" r="3.2" fill="#FBB615"/><circle cx="869" cy="584" r="2.2" fill="#74C2DE"/><circle cx="1007" cy="572" r="2.2" fill="#4E9ABA"/><circle cx="158" cy="734" r="2.2" fill="#74C2DE"/><circle cx="234" cy="741" r="2.2" fill="#74C2DE"/><circle cx="357" cy="702" r="2.2" fill="#4E9ABA"/><circle cx="538" cy="721" r="2.2" fill="#74C2DE"/><circle cx="608" cy="749" r="13" fill="#FBB615" opacity="0.17" filter="url(#b)"/><circle cx="608" cy="749" r="3.2" fill="#FBB615"/><circle cx="747" cy="691" r="2.2" fill="#4E9ABA"/><circle cx="922" cy="696" r="2.2" fill="#74C2DE"/><circle cx="1014" cy="676" r="2.2" fill="#74C2DE"/><circle cx="87" cy="837" r="2.2" fill="#4E9ABA"/><circle cx="229" cy="838" r="2.2" fill="#74C2DE"/><circle cx="370" cy="826" r="2.2" fill="#74C2DE"/><circle cx="547" cy="829" r="13" fill="#FBB615" opacity="0.17" filter="url(#b)"/><circle cx="547" cy="829" r="3.2" fill="#FBB615"/><circle cx="646" cy="859" r="2.2" fill="#74C2DE"/><circle cx="745" cy="802" r="2.2" fill="#74C2DE"/><circle cx="933" cy="855" r="2.2" fill="#4E9ABA"/><circle cx="1010" cy="805" r="2.2" fill="#74C2DE"/><circle cx="139" cy="985" r="2.2" fill="#74C2DE"/><circle cx="226" cy="986" r="2.2" fill="#4E9ABA"/><circle cx="411" cy="958" r="13" fill="#FBB615" opacity="0.17" filter="url(#b)"/><circle cx="411" cy="958" r="3.2" fill="#FBB615"/><circle cx="504" cy="918" r="2.2" fill="#74C2DE"/><circle cx="603" cy="987" r="2.2" fill="#4E9ABA"/><circle cx="749" cy="966" r="2.2" fill="#74C2DE"/><circle cx="881" cy="976" r="2.2" fill="#74C2DE"/><circle cx="1038" cy="933" r="2.2" fill="#4E9ABA"/><g opacity="0.85"><ellipse cx="600.0" cy="360.0" rx="160" ry="56" fill="none" stroke="#74C2DE" stroke-width="1.4" opacity="0.5" transform="rotate(0 600.0 360.0)"/><ellipse cx="600.0" cy="360.0" rx="160" ry="56" fill="none" stroke="#74C2DE" stroke-width="1.4" opacity="0.5" transform="rotate(60 600.0 360.0)"/><ellipse cx="600.0" cy="360.0" rx="160" ry="56" fill="none" stroke="#74C2DE" stroke-width="1.4" opacity="0.5" transform="rotate(120 600.0 360.0)"/><circle cx="600" cy="360" r="28" fill="#FBB615" opacity="0.24" filter="url(#b)"/><circle cx="600" cy="360" r="7.0" fill="#FBB615"/><circle cx="760" cy="360" r="16" fill="#74C2DE" opacity="0.17" filter="url(#b)"/><circle cx="760" cy="360" r="4.0" fill="#74C2DE"/></g></svg>