<svg xmlns="http://www.w3.org/2000/svg" viewBox="0 0 1200 720" role="img">
<defs>
<linearGradient id="bg" x1="0" y1="0" x2="1" y2="1">
<stop offset="0" stop-color="#070C1E"/><stop offset="1" stop-color="#0E1A3A"/></linearGradient>
<radialGradient id="glow" cx="50%" cy="50%" r="50%">
<stop offset="0" stop-color="#FBB615" stop-opacity="0.5"/><stop offset="1" stop-color="#FBB615" stop-opacity="0"/></radialGradient>
<radialGradient id="glowS" cx="50%" cy="50%" r="50%">
<stop offset="0" stop-color="#74C2DE" stop-opacity="0.5"/><stop offset="1" stop-color="#74C2DE" stop-opacity="0"/></radialGradient>
<filter id="b"><feGaussianBlur stdDeviation="6"/></filter>
</defs>
<rect width="1200" height="720" fill="url(#bg)"/>
<rect width="1200" height="720" fill="url(#glowS)" opacity="0.12"/><path d="M0 160 L0 160.0 L8 158.2 L16 156.8 L24 156.2 L32 156.7 L40 158.3 L48 160.6 L56 162.9 L64 164.6 L72 165.1 L80 164.0 L88 161.6 L96 158.5 L104 155.5 L112 153.6 L120 153.5 L128 155.3 L136 158.8 L144 162.9 L152 166.5 L160 168.4 L168 168.0 L176 165.1 L184 160.4 L192 155.2 L200 151.1 L208 149.3 L216 150.6 L224 154.9 L232 161.0 L240 167.2 L248 171.7 L256 173.0 L264 170.4 L272 164.6 L280 157.0 L288 149.9 L296 145.3 L304 144.9 L312 149.0 L320 156.6 L328 165.6 L336 173.4 L344 177.6 L352 176.8 L360 171.0 L368 161.6 L376 151.4 L384 143.2 L392 139.8 L400 142.1 L408 149.9 L416 160.9 L424 172.0 L432 180.0 L440 182.3 L448 178.1 L456 168.5 L464 156.1 L472 144.5 L480 137.2 L488 136.5 L496 142.6 L504 153.9 L512 167.2 L520 178.6 L528 184.8 L536 183.8 L544 175.9 L552 163.2 L560 149.5 L568 138.8 L576 134.1 L584 137.0 L592 146.5 L600 160.0 L608 173.5 L616 183.0 L624 185.9 L632 181.2 L640 170.5 L648 156.8 L656 144.1 L664 136.2 L672 135.2 L680 141.4 L688 152.8 L696 166.1 L704 177.4 L712 183.5 L720 182.8 L728 175.5 L736 163.9 L744 151.5 L752 141.9 L760 137.7 L768 140.0 L776 148.0 L784 159.1 L792 170.1 L800 177.9 L808 180.2 L816 176.8 L824 168.6 L832 158.4 L840 149.0 L848 143.2 L856 142.4 L864 146.6 L872 154.4 L880 163.4 L888 171.0 L896 175.1 L904 174.7 L912 170.1 L920 163.0 L928 155.4 L936 149.6 L944 147.0 L952 148.3 L960 152.8 L968 159.0 L976 165.1 L984 169.4 L992 170.7 L1000 168.9 L1008 164.8 L1016 159.6 L1024 154.9 L1032 152.0 L1040 151.6 L1048 153.5 L1056 157.1 L1064 161.2 L1072 164.7 L1080 166.5 L1088 166.4 L1096 164.5 L1104 161.5 L1112 158.4 L1120 156.0 L1128 154.9 L1136 155.4 L1144 157.1 L1152 159.4 L1160 161.7 L1168 163.3 L1176 163.8 L1184 163.2 L1192 161.8 L1200 160.0 " fill="none" stroke="#74C2DE" stroke-width="2" opacity="0.5"/><path d="M0 300 L0 300.0 L8 299.9 L16 299.9 L24 300.1 L32 300.2 L40 300.0 L48 299.7 L56 299.8 L64 300.2 L72 300.4 L80 300.0 L88 299.5 L96 299.6 L104 300.4 L112 300.6 L120 300.0 L128 299.4 L136 299.6 L144 300.3 L152 300.5 L160 300.0 L168 299.0 L176 299.2 L184 300.9 L192 301.8 L200 300.0 L208 297.6 L216 298.3 L224 301.8 L232 303.2 L240 300.0 L248 296.5 L256 297.8 L264 302.2 L272 303.4 L280 300.0 L288 297.0 L296 298.4 L304 301.7 L312 303.6 L320 300.0 L328 294.5 L336 296.0 L344 304.6 L352 308.3 L360 300.0 L368 290.2 L376 293.6 L384 306.7 L392 311.0 L400 300.0 L408 289.2 L416 293.6 L424 306.0 L432 308.8 L440 300.0 L448 293.5 L456 295.4 L464 305.7 L472 311.1 L480 300.0 L488 285.4 L496 290.1 L504 310.7 L512 318.4 L520 300.0 L528 280.6 L536 288.0 L544 311.8 L552 318.4 L560 300.0 L568 284.1 L576 291.2 L584 307.7 L592 310.5 L600 300.0 L608 289.5 L616 292.3 L624 308.8 L632 315.9 L640 300.0 L648 281.6 L656 288.2 L664 312.0 L672 319.4 L680 300.0 L688 281.6 L696 289.3 L704 309.9 L712 314.6 L720 300.0 L728 288.9 L736 294.3 L744 304.6 L752 306.5 L760 300.0 L768 291.2 L776 294.0 L784 306.4 L792 310.8 L800 300.0 L808 289.0 L816 293.3 L824 306.4 L832 309.8 L840 300.0 L848 291.7 L856 295.4 L864 304.0 L872 305.5 L880 300.0 L888 296.4 L896 298.3 L904 301.6 L912 303.0 L920 300.0 L928 296.6 L936 297.8 L944 302.2 L952 303.5 L960 300.0 L968 296.8 L976 298.2 L984 301.7 L992 302.4 L1000 300.0 L1008 298.2 L1016 299.1 L1024 300.8 L1032 301.0 L1040 300.0 L1048 299.5 L1056 299.7 L1064 300.4 L1072 300.6 L1080 300.0 L1088 299.4 L1096 299.6 L1104 300.4 L1112 300.5 L1120 300.0 L1128 299.6 L1136 299.8 L1144 300.2 L1152 300.3 L1160 300.0 L1168 299.8 L1176 299.9 L1184 300.1 L1192 300.1 L1200 300.0 " fill="none" stroke="#4E9ABA" stroke-width="2" opacity="0.45"/><path d="M0 440 L0 440.0 L8 440.0 L16 440.0 L24 440.0 L32 440.0 L40 440.0 L48 440.0 L56 440.0 L64 440.0 L72 440.0 L80 440.0 L88 440.0 L96 440.0 L104 440.0 L112 440.0 L120 440.0 L128 440.0 L136 440.0 L144 440.0 L152 440.0 L160 440.0 L168 440.0 L176 440.0 L184 439.8 L192 437.9 L200 430.1 L208 415.0 L216 406.0 L224 415.0 L232 430.1 L240 437.9 L248 439.8 L256 440.0 L264 440.0 L272 440.0 L280 440.0 L288 440.0 L296 440.0 L304 440.0 L312 440.0 L320 440.0 L328 440.0 L336 440.0 L344 440.0 L352 440.0 L360 440.0 L368 440.0 L376 439.8 L384 437.9 L392 430.1 L400 415.0 L408 406.0 L416 415.0 L424 430.1 L432 437.9 L440 439.8 L448 440.0 L456 440.0 L464 440.0 L472 440.0 L480 440.0 L488 440.0 L496 440.0 L504 440.0 L512 440.0 L520 440.0 L528 440.0 L536 440.0 L544 440.0 L552 440.0 L560 440.0 L568 439.8 L576 437.9 L584 430.1 L592 415.0 L600 406.0 L608 415.0 L616 430.1 L624 437.9 L632 439.8 L640 440.0 L648 440.0 L656 440.0 L664 440.0 L672 440.0 L680 440.0 L688 440.0 L696 440.0 L704 440.0 L712 440.0 L720 440.0 L728 440.0 L736 440.0 L744 440.0 L752 440.0 L760 439.8 L768 437.9 L776 430.1 L784 415.0 L792 406.0 L800 415.0 L808 430.1 L816 437.9 L824 439.8 L832 440.0 L840 440.0 L848 440.0 L856 440.0 L864 440.0 L872 440.0 L880 440.0 L888 440.0 L896 440.0 L904 440.0 L912 440.0 L920 440.0 L928 440.0 L936 440.0 L944 440.0 L952 439.8 L960 437.9 L968 430.1 L976 415.0 L984 406.0 L992 415.0 L1000 430.1 L1008 437.9 L1016 439.8 L1024 440.0 L1032 440.0 L1040 440.0 L1048 440.0 L1056 440.0 L1064 440.0 L1072 440.0 L1080 440.0 L1088 440.0 L1096 440.0 L1104 440.0 L1112 440.0 L1120 440.0 L1128 440.0 L1136 440.0 L1144 440.0 L1152 440.0 L1160 440.0 L1168 440.0 L1176 440.0 L1184 440.0 L1192 440.0 L1200 440.0 " fill="none" stroke="#FBB615" stroke-width="2" opacity="0.5"/><path d="M0 580 L0 560.0 L8 560.0 L16 560.0 L24 560.0 L32 560.0 L40 560.0 L48 560.0 L56 560.0 L64 560.0 L72 560.0 L80 560.0 L88 560.0 L96 560.0 L104 560.0 L112 560.0 L120 560.0 L128 560.0 L136 600.0 L144 600.0 L152 600.0 L160 600.0 L168 600.0 L176 600.0 L184 600.0 L192 600.0 L200 600.0 L208 600.0 L216 600.0 L224 600.0 L232 600.0 L240 600.0 L248 600.0 L256 600.0 L264 600.0 L272 560.0 L280 560.0 L288 560.0 L296 560.0 L304 560.0 L312 560.0 L320 560.0 L328 560.0 L336 560.0 L344 560.0 L352 560.0 L360 560.0 L368 560.0 L376 560.0 L384 560.0 L392 560.0 L400 560.0 L408 600.0 L416 600.0 L424 600.0 L432 600.0 L440 600.0 L448 600.0 L456 600.0 L464 600.0 L472 600.0 L480 600.0 L488 600.0 L496 600.0 L504 600.0 L512 600.0 L520 600.0 L528 600.0 L536 560.0 L544 560.0 L552 560.0 L560 560.0 L568 560.0 L576 560.0 L584 560.0 L592 560.0 L600 560.0 L608 560.0 L616 560.0 L624 560.0 L632 560.0 L640 560.0 L648 560.0 L656 560.0 L664 560.0 L672 600.0 L680 600.0 L688 600.0 L696 600.0 L704 600.0 L712 600.0 L720 600.0 L728 600.0 L736 600.0 L744 600.0 L752 600.0 L760 600.0 L768 600.0 L776 600.0 L784 600.0 L792 600.0 L800 600.0 L808 560.0 L816 560.0 L824 560.0 L832 560.0 L840 560.0 L848 560.0 L856 560.0 L864 560.0 L872 560.0 L880 560.0 L888 560.0 L896 560.0 L904 560.0 L912 560.0 L920 560.0 L928 560.0 L936 600.0 L944 600.0 L952 600.0 L960 600.0 L968 600.0 L976 600.0 L984 600.0 L992 600.0 L1000 600.0 L1008 600.0 L1016 600.0 L1024 600.0 L1032 600.0 L1040 600.0 L1048 600.0 L1056 600.0 L1064 600.0 L1072 560.0 L1080 560.0 L1088 560.0 L1096 560.0 L1104 560.0 L1112 560.0 L1120 560.0 L1128 560.0 L1136 560.0 L1144 560.0 L1152 560.0 L1160 560.0 L1168 560.0 L1176 560.0 L1184 560.0 L1192 560.0 L1200 560.0 " fill="none" stroke="#E0A24A" stroke-width="2" opacity="0.4"/><rect y="560" width="1200" height="160" fill="url(#glow)" opacity="0.10"/></svg>